<?xml version="1.0" encoding="utf-8"?>
<!-- Generator: Adobe Illustrator 27.5.0, SVG Export Plug-In . SVG Version: 6.00 Build 0)  -->
<svg version="1.1" id="Layer_1" xmlns="http://www.w3.org/2000/svg" xmlns:xlink="http://www.w3.org/1999/xlink" x="0px" y="0px"
	 viewBox="0 0 378 92.5" enable-background="new 0 0 378 92.5" xml:space="preserve">
<g>
	<path fill="#332D2C" d="M70.2,78.4c0.2,0,0.4,0.1,0.7,0.3l1.3,1.4c-1.8,1.8-3.8,3.5-5.9,5c-2.1,1.5-4.5,2.8-7,3.9
		c-2.5,1.1-5.3,1.9-8.3,2.5c-3,0.6-6.3,0.9-10,0.9c-5.9,0-11.4-1-16.5-3.2c-5-2.1-9.3-5.1-13-9c-3.6-3.9-6.5-8.6-8.5-14.1
		C1,60.6,0,54.4,0,47.6c0-6.9,1-12.8,3.1-18.3c2-5.5,4.9-10.2,8.6-14.2c3.7-3.9,8.2-7,13.4-9.1C30.2,3.7,36,2.7,42.2,2.7
		c5.9,0,11.1,0.9,15.6,2.7c4.5,1.8,8.8,4.4,12.7,7.7l-0.9,1.4c-0.2,0.3-0.5,0.4-1,0.4c-0.2,0-0.7-0.2-1.3-0.7
		c-0.6-0.5-1.4-1-2.4-1.7c-1-0.7-2.2-1.4-3.5-2.3c-1.4-0.8-3-1.6-4.9-2.3c-1.9-0.7-4-1.3-6.4-1.7c-2.4-0.5-5-0.7-7.9-0.7
		c-5.7,0-10.9,1-15.6,2.9c-4.7,2-8.8,4.7-12.2,8.4c-3.4,3.6-6.1,8-8,13.2c-1.9,5.2-2.8,11-2.8,17.4S4.5,60,6.4,65.1
		c1.9,5.2,4.5,9.6,7.9,13.2c3.4,3.6,7.3,6.4,11.9,8.3c4.6,1.9,9.5,2.9,14.9,2.9c3.4,0,6.4-0.2,9.1-0.7c2.7-0.5,5.1-1.1,7.3-2.1
		c2.2-0.9,4.3-2,6.2-3.4c1.9-1.3,3.8-2.9,5.6-4.6C69.6,78.5,69.9,78.3,70.2,78.4L70.2,78.4z"/>
	<path fill="#332D2C" d="M110.3,28.9c4.4,0,8.3,0.8,11.6,2.3c3.4,1.5,6.2,3.7,8.6,6.4c2.3,2.8,4.1,6.1,5.3,10
		c1.2,3.9,1.8,8.3,1.8,13s-0.6,9.1-1.8,13c-1.2,3.9-3,7.2-5.3,10c-2.3,2.8-5.2,4.9-8.6,6.3c-3.4,1.5-7.3,2.2-11.6,2.2
		c-4.4,0-8.3-0.7-11.6-2.2c-3.4-1.5-6.2-3.6-8.6-6.3c-2.3-2.8-4.1-6.1-5.3-10c-1.2-3.9-1.8-8.2-1.8-13s0.6-9.1,1.8-13
		c1.2-3.9,3-7.3,5.3-10c2.3-2.8,5.2-4.9,8.6-6.4C102.1,29.7,105.9,28.9,110.3,28.9z M110.3,89.6c4,0,7.5-0.7,10.5-2.1
		c3-1.4,5.5-3.3,7.5-5.9c2-2.5,3.5-5.6,4.5-9.1c1-3.5,1.5-7.5,1.5-11.9c0-4.4-0.5-8.3-1.5-11.9c-1-3.6-2.5-6.7-4.5-9.2
		c-2-2.6-4.5-4.5-7.5-5.9c-3-1.4-6.5-2.1-10.5-2.1c-4,0-7.5,0.7-10.5,2.1c-3,1.4-5.5,3.4-7.5,5.9s-3.5,5.6-4.5,9.2
		c-1,3.6-1.5,7.6-1.5,11.9c0,4.4,0.5,8.3,1.5,11.9c1,3.5,2.5,6.6,4.5,9.1c2,2.5,4.5,4.5,7.5,5.9C102.8,88.9,106.3,89.6,110.3,89.6z"
		/>
	<path fill="#332D2C" d="M179.4,28.9c4.4,0,8.3,0.8,11.6,2.3c3.4,1.5,6.2,3.7,8.6,6.4c2.3,2.8,4.1,6.1,5.3,10
		c1.2,3.9,1.8,8.3,1.8,13s-0.6,9.1-1.8,13c-1.2,3.9-3,7.2-5.3,10c-2.3,2.8-5.2,4.9-8.6,6.3c-3.4,1.5-7.3,2.2-11.6,2.2
		c-4.4,0-8.3-0.7-11.6-2.2c-3.4-1.5-6.2-3.6-8.6-6.3c-2.3-2.8-4.1-6.1-5.3-10c-1.2-3.9-1.8-8.2-1.8-13s0.6-9.1,1.8-13
		c1.2-3.9,3-7.3,5.3-10c2.3-2.8,5.2-4.9,8.6-6.4C171.2,29.7,175.1,28.9,179.4,28.9z M179.4,89.6c4,0,7.5-0.7,10.5-2.1
		c3-1.4,5.5-3.3,7.5-5.9c2-2.5,3.5-5.6,4.5-9.1c1-3.5,1.5-7.5,1.5-11.9c0-4.4-0.5-8.3-1.5-11.9c-1-3.6-2.5-6.7-4.5-9.2
		c-2-2.6-4.5-4.5-7.5-5.9c-3-1.4-6.5-2.1-10.5-2.1c-4,0-7.5,0.7-10.5,2.1c-3,1.4-5.5,3.4-7.5,5.9c-2,2.6-3.5,5.6-4.5,9.2
		c-1,3.6-1.5,7.6-1.5,11.9c0,4.4,0.5,8.3,1.5,11.9c1,3.5,2.5,6.6,4.5,9.1c2,2.5,4.5,4.5,7.5,5.9C171.9,88.9,175.4,89.6,179.4,89.6z"
		/>
	<path fill="#332D2C" d="M228.3,1.2v56h2.9c0.5,0,0.9-0.1,1.4-0.2c0.5-0.1,1.1-0.5,1.7-1.1l27.4-24.8c0.4-0.4,0.8-0.7,1.2-0.9
		c0.4-0.2,0.9-0.3,1.5-0.3h2.8l-29.5,26.7c-0.3,0.3-0.7,0.6-1,0.8c-0.3,0.2-0.6,0.4-1,0.7c0.6,0.2,1.1,0.5,1.6,0.8
		c0.5,0.4,0.9,0.7,1.3,1.2l31,31.4h-2.8c-0.4,0-0.8-0.1-1.2-0.2c-0.4-0.1-0.7-0.4-1-0.8l-28.9-29.2c-0.7-0.7-1.3-1.2-1.9-1.4
		c-0.6-0.2-1.5-0.4-2.8-0.4h-2.6v32H225V1.2H228.3z"/>
	<path fill="#F6884F" d="M314.7,16.7c-0.5,2.1-25.4,71-25.4,71c-0.3,1-1,1.8-1.9,2.6c-1,0.8-2.1,1.2-3.5,1.2h-13.1l35.5-90.3h17.1
		l35.5,90.3h-13c-1.5,0-2.6-0.4-3.6-1.1c-0.9-0.7-1.6-1.6-2.1-2.7C340.2,87.7,315.3,18.8,314.7,16.7z"/>
	<path fill="#F26323" d="M378,20.1c0,1-0.2,2-0.6,2.9c-0.4,0.9-1,1.7-1.7,2.4c-0.7,0.7-1.5,1.2-2.5,1.7c-0.9,0.4-2,0.6-3,0.6
		c-1.1,0-2-0.2-3-0.6c-0.9-0.4-1.7-1-2.4-1.7c-0.7-0.7-1.2-1.5-1.7-2.4c-0.4-0.9-0.6-1.9-0.6-2.9c0-1,0.2-2.1,0.6-3
		c0.4-0.9,1-1.8,1.7-2.4c0.7-0.7,1.5-1.2,2.4-1.6c0.9-0.4,1.9-0.6,3-0.6c1,0,2.1,0.2,3,0.6c0.9,0.4,1.8,1,2.5,1.6
		c0.7,0.7,1.3,1.5,1.7,2.4C377.8,18,378,19,378,20.1z"/>
	<path fill="#F6884F" d="M364.8,7.3c1.7-0.7,3.4-1.1,5.3-1.1s3.7,0.4,5.4,1.1c0.9,0.4,1.7,0.8,2.5,1.3V1.2h-15.5v7.4
		C363.2,8.1,364,7.7,364.8,7.3L364.8,7.3z"/>
	<path fill="#F6884F" d="M375.5,32.7c-1.7,0.7-3.5,1.1-5.4,1.1c-1.9,0-3.6-0.4-5.3-1.1c-0.8-0.4-1.5-0.8-2.3-1.2v60H378V31.3
		C377.2,31.8,376.4,32.3,375.5,32.7L375.5,32.7z"/>
</g>
</svg>
