<?xml version="1.0" encoding="utf-8"?>
<!-- Generator: Adobe Illustrator 27.5.0, SVG Export Plug-In . SVG Version: 6.00 Build 0)  -->
<svg version="1.1" id="Layer_1" xmlns="http://www.w3.org/2000/svg" xmlns:xlink="http://www.w3.org/1999/xlink" x="0px" y="0px"
	 viewBox="0 0 228.9 245.9" enable-background="new 0 0 228.9 245.9" xml:space="preserve">
<g>
	<path fill="#FFFFFF" d="M86.8,0C86.8,0,86.8,0,86.8,0C76.7,0,64.7,3.6,54.7,9.5c-12.3,7.2-20.9,20-24.9,37
		c-0.5,1.9-0.9,3.8-1.3,5.6c-0.1,0.5-0.2,0.9-0.3,1.4c-2.8,4-3.2,9.6-1.1,14.8c0.5,1.1,1,2.1,1.6,3c0.1,3.4,1,6.9,2.5,10.2
		c-0.9,0.1-2.6,0.4-4.4,1.4c-2.2,1.3-4.9,3.9-5.2,9.3c-0.1,1.1,0.2,2.1,0.7,3c-0.3,0.1-0.7,0.3-1,0.5c-5.4,3.7-5.1,10-5,10.7l0,0
		l0,0c0.2,1.9,1.3,3.6,3.1,4.4c3.5,1.6,7.7,3.4,12.4,5.2c0.1,0.6,0.3,1.1,0.4,1.6c-1.1,2.1-2.1,5.2-1.5,8.6
		c-0.2,1.2-0.2,2.3-0.1,3.5c-5,4.4-9,8.8-12.1,13.4c-0.6,0.5-1.2,1.3-2,2.3c-1,1.2-2.2,2.7-3.1,3.8l-0.3,0.4
		c-0.5,0.6-1.4,1.6-1.8,2.2C3.8,160.7,0,170.3,0,179.7c0,10.2,4.6,19.5,13.3,27.1l0,0l0,0c6.9,5.9,15.4,10.4,25.9,13.7
		c3.2,2.4,6.7,4.6,10.5,6.5c0.8,4.8,3.6,9.2,7.7,11.8c2.3,1.5,5,2.5,8.2,3l0,0l0,0c1,0.2,2.1,0.2,3.1,0.2c2.1,0,4-0.3,5.9-0.9l0,0
		l0,0c2.4-0.8,4.6-2.1,6.5-3.8c5.8,1,11.8,1.6,17.7,1.8c0.9,0.8,1.9,1.5,2.9,2.2l0,0l0,0c4.7,3,10.3,4.6,16.1,4.6c0.5,0,1,0,1.5,0
		c6.6-0.3,13.1-3.9,17.4-9.5c0.6-0.8,1.1-1.5,1.5-2.2c7.1-2,14.1-4.6,20.7-7.7c2.6,1.3,5.6,1.9,8.7,1.9c2.8,0,5.6-0.5,8.2-1.5
		c7.2-2.6,12.2-9.4,12.8-17.3c0.1-0.8,0.1-1.6,0.1-2.3c7.8-7,14.2-14.7,18.8-22.9c12.5-11.3,19.6-23.3,20.9-35.8l0,0l0,0
		c0.8-7.9-1.6-16.2-6.4-22.8c-2.1-2.9-4.7-5.6-7.4-7.8c-3.7-3.1-7.7-5.5-11.6-7.8l-0.4-0.2c-1-0.6-11.8-7.4-18.1-9.8
		c-3.4-1.3-7-2.4-11.1-3.4c-1.4-0.4-2.9-0.7-4.3-1c-1.2-0.3-2.3-0.5-3.5-0.8c-0.1-0.5-0.3-1-0.4-1.4l0-0.1l0-0.1
		c-0.1-0.3-0.2-0.6-0.3-0.9c-0.4-1.3-0.9-2.8-2-4.2l0,0l0,0c-1.6-2-3.7-3.4-6.2-4.3l-1.2-2.2c-0.6-1-1.5-1.9-2.5-2.3
		c-0.1,0-0.2-0.1-0.3-0.1c-0.2-0.1-0.3-0.2-0.5-0.3c-2.2-1.3-2.9-3.3-3-3.4c-0.6-1.8-2.1-3.3-4-3.7l-0.9-0.2
		c-0.6-1.5-1.5-2.9-2.5-4.1c0.2-1.1,0.4-2.1,0.4-3.1l0-0.1l0-0.1c0.1-3.2-0.1-6.8-2.7-9.9c-0.1-0.2-0.3-0.3-0.5-0.5
		c1.6-3.9,2.7-7.7,3.3-11.6l0,0l0,0c0.5-3.5,0.5-6.7-0.1-9.5c-0.1-0.6-0.3-1.3-0.7-2.2l0-0.1l0-0.1c-1.6-3-4.3-4.6-7.8-4.6
		c-1.4,0-3,0.3-4.7,0.9c-4.4-7-10-13.1-16.2-17.6c-7.5-5.4-15.5-8.4-23.9-8.8C88.6,0,87.7,0,86.8,0L86.8,0L86.8,0z"/>
	<path fill="#1D0C3A" d="M129.5,48.1c-4.5,1.1-5.6,7.2-5.7,11.3c-1-5.1-0.6-12.2,4.9-14.4C130.9,44.6,131.6,47.6,129.5,48.1z"/>
	<path fill="#1D0C3A" d="M95.8,89.8c-1.5,0.5-3.2,0.9-4.2,2.1c0.3-1.8,1.8-3.1,3-4.4C96.2,86.2,97.8,89.2,95.8,89.8z"/>
	<path fill="#1D0C3A" d="M158.8,101.8c-2.5-10.6-14.7-7.6-12.7,2.5C148.1,114.4,160.6,112.6,158.8,101.8z M153.3,107.5
		c-3.9,0.2-5.5-7.5-1.8-8.8C155.4,98,157,106.7,153.3,107.5z"/>
	<path fill="#1D0C3A" d="M219.5,128c-4.6-6.5-11.5-11-18.4-14.9c0,0-11.3-7.2-17.5-9.5c-6.6-2.6-13.6-3.8-20.5-5.6
		c-1.2-5.5-2.7-10-8.8-11.1c0.1-0.7-1.4-2.9-1.6-3.5c-0.4-0.7-1.2-0.9-1.8-1.3c-5.3-3.1-3.6-5.7-6.1-6.8c0,0-2.8-0.7-2.8-0.7
		c-0.6-2.3-1.9-4.5-3.7-6.2c1.1-4.4,2-11.5-3.3-13.3c4.2-8,10.5-32.7-6.8-24C113.9,3.9,82.3-3.8,56.6,12.8
		c-15.4,8.9-21.8,25.8-25,42.4c-3.4,4.3-2.6,10.9,0.7,15c-0.2,10.2,6.9,19.1,15.4,24.1c0.5,1.5,1.2,2.8,2.1,4.1
		c-7-4.3-12.6-9.6-18.1-13.1c-0.1,0-6,0.1-6.5,7.3c0,0.6,0.2,1.1,0.7,1.4C26,94.1,33,98.9,41,104.1c-0.6,0.1-1.2,0.3-1.7,0.6
		c-0.8,0-15.6-7.2-16-5.7c-4,3.1-4.1,8-2.5,8.7c3.9,1.8,8.7,3.8,14.2,5.9c0.1,2.1,0.7,3.7,1.1,4.6c-1,1.5-2.7,4.7-1.8,8.1
		c-0.3,1.9-0.3,3.2,0.1,5c-4.9,4.3-9.7,9.1-13.4,14.6c-16.5,15.8-26.2,41-5.3,58.2c7.3,6.2,16.1,10.4,25.2,13.2
		c3.8,2.9,8,5.4,12.3,7.5c0,13.1,18.9,18.6,26.8,8.8c6.7,1.3,13.6,2,20.5,2.1c10.1,9.9,29.1,9.1,35.6-4.4c7.9-2.1,15.7-5,23.3-8.7
		c11.8,7.2,28.2-2.6,25.8-16.7c8-6.8,14.8-14.8,19.7-23.7C220.6,168.9,232.9,146.3,219.5,128z"/>
	<linearGradient id="SVGID_1_" gradientUnits="userSpaceOnUse" x1="127.01" y1="128.9044" x2="138.4449" y2="152.4096">
		<stop  offset="0" style="stop-color:#B9539F"/>
		<stop  offset="1" style="stop-color:#5E4EA1"/>
	</linearGradient>
	<path fill="url(#SVGID_1_)" d="M168.8,135.2c-1.8,17.4-33.5,33-67.5,32.2c5.2-0.6,9.3-3.5,13.8-5.6c2.1,1.7,6.1,0.7,8.2-0.9v0
		c5.7-1.3,11.6-1.3,17.1-3.9c15.3-7.2,23.2-24.4,24.3-40.6C168.7,120.7,170.4,128.1,168.8,135.2z"/>
	
		<linearGradient id="SVGID_00000043425756650628662890000014792166916656373910_" gradientUnits="userSpaceOnUse" x1="72.5383" y1="155.4042" x2="83.9732" y2="178.9093">
		<stop  offset="0" style="stop-color:#B9539F"/>
		<stop  offset="1" style="stop-color:#5E4EA1"/>
	</linearGradient>
	<path fill="url(#SVGID_00000043425756650628662890000014792166916656373910_)" d="M92.6,167.2c-11-0.3-27.3-4.5-34.2-11.4
		c1.8-0.8,3.7-2,5.6-3.6c1.9,9.4,16.6,14.3,24.1,13.7l0-0.3C89.5,166.2,91,166.9,92.6,167.2z"/>
	<path fill="#1D0C3A" d="M29.4,148.1c-10.1,2.9-8.3,22.2,3.5,18.8C42.2,163.7,40.5,145.5,29.4,148.1z M36.4,158.2
		c-5.9,14.5-17.4-2.6-6.5-8.4C34.9,147.9,37.7,154.1,36.4,158.2z"/>
	<path fill="#1D0C3A" d="M80.4,180c-4-4.9-11.2-6.6-17-4.2c-4.7,1.9-7.6,6.9-5.9,11.8C62.7,202.9,91.6,196.4,80.4,180z M78.4,191.5
		c-14.7,12.3-30.1-15.5-6.7-12.9C77.3,179.6,83,186.4,78.4,191.5z"/>
	<path fill="#1D0C3A" d="M162.8,166c-7.3-0.7-15.4,4.2-16.9,11.6c-1.2,15.5,23,9.6,24.8-1.7C171.9,170.5,167.9,166.5,162.8,166z
		 M168,175.3c-1.1,7.4-14.7,13.5-18.9,5.9C146,171.9,168.4,163,168,175.3z"/>
	<path fill="#1D0C3A" d="M196.1,116.9c-15.4-11.7-18.2,7.8-4.5,13.6C202.1,133.9,202.8,122.2,196.1,116.9z M196.4,127.1
		c-4.1,2.5-9.9-2.7-11.4-6.5c-1-2.4-0.6-5.4,2.5-5.5C192.4,115.2,199.1,122.3,196.4,127.1z"/>
	<path fill="#1D0C3A" d="M92,41c-1.4,3.9-4.4,1.6-7.2,1.1c-3.9-0.8-8.1,0-10.4,3.7c0.3-1.4,0.9-2.8,2-4C78.5,38.3,92.9,33.7,92,41z"
		/>
	<path fill="#1D0C3A" d="M46.2,53.8c-0.2,1-1.1,1.6-2.1,1.4c-2-1-4.7,0.2-6.2,1.9C38.5,53.2,46.2,49,46.2,53.8z"/>
	<path fill="#1D0C3A" d="M100.1,83c-7.9-2.5-16.6-1.5-22.9,4.1c0.3-0.7,0.7-1.4,1.1-2c-2-0.3-9-1.9-8.4-12.1
		c1.6-28.4,48.1-20,25.5,5.3c2,0.2,4,0.5,5.9,1.2C103.7,80.3,102.5,83.7,100.1,83z"/>
	<g>
		<path fill="#48C2C9" d="M66.9,124.5c-4.2,3.2-8,9.1-8.5,7.5c-0.5-1.6-3.7-10.1-1.8-11.2C58.5,119.8,66.9,124.5,66.9,124.5z"/>
		
			<linearGradient id="SVGID_00000137844913682708975950000011423996097592256421_" gradientUnits="userSpaceOnUse" x1="59.6335" y1="186.3293" x2="80.0311" y2="186.3293">
			<stop  offset="0" style="stop-color:#B9539F"/>
			<stop  offset="1" style="stop-color:#5E4EA1"/>
		</linearGradient>
		<path fill="url(#SVGID_00000137844913682708975950000011423996097592256421_)" d="M78.4,191.5c-5.3,5.6-16.5,2.8-18.6-4.6
			c-1.5-6.9,6.3-9.8,11.9-8.3c2.3,0.6,4.5,1.8,6.2,3.5C80.4,184.7,80.9,188.8,78.4,191.5z"/>
		<path fill="#5A6A7A" d="M173.7,145c-6.4,12.6-19.6,20-32.7,23.8c-3.5,1.1-7.1,1.9-10.7,2.5c-0.4,0.1-1.2,0.2-1.5,0.3
			c-1.8,0.3-4.4,0.7-6.2,0.9c-21.9,2.5-49.6,2.1-68-11.4c-1.9-1.4-3.7-3-5.4-4.7c0.2,0.1,0.5,0.2,0.7,0.2c0.9,0.2,1.9,0.4,2.9,0.4
			c0.1,0,0.3,0,0.4,0c0.4,0,0.9,0,1.3-0.1c1.6,1.7,5.8,5.7,14,9c8.6,3.4,19,5.1,31,5.1c7.4,0,15.5-0.7,24.2-2
			c27.1-4.1,44.8-16.2,48.7-33c1.5-6.7,0.5-13.5-2.5-18.7c-1.3-2.5-2.9-4.6-5-6.3c0-0.6,0-1.2-0.1-1.8c2.8,1.5,5.3,3.7,7.4,6.1
			c1,1.2,1.9,2.4,2.6,3.7c1.7,3,2.8,6.3,2.8,9.7C177.6,134.5,176.1,140,173.7,145z"/>
		<path fill="#FAED81" d="M106.4,125.1c-0.4-1.1-0.9-2.2-1.5-3.1c0,0,0.1,0,0.1,0c0.7,0.4,1.3,0.8,1.6,1.3
			C106.7,123.9,106.6,124.5,106.4,125.1z"/>
		<path fill="#70CDDD" d="M125.2,148c0,1.7-0.3,3.3-0.9,4.9c-0.5,1.3-1,2.6-1.8,3.8c-0.5,0.5-1.7,1.6-3.1,2.1
			c1.2-1.5,2.3-3.9,2.5-7.2c0.5-7.4-5.4-11.4-8.6-12.5c-0.1,0-0.2-0.1-0.3-0.1c0-0.1,0-0.2,0.1-0.2c0.4-0.2,0.7-0.3,1.1-0.4
			c0,0,0,0,0,0c1.9-0.4,4.2,0.3,5.1,0.8c0,0,0.1,0,0.2,0.1v0c0.2,0.1,0.4,0.1,0.6,0.1c1.4,0.5,2.6,1.6,3.4,2.8
			C124.7,143.9,125.2,145.9,125.2,148z"/>
		<path fill="#52A4DB" d="M125.2,148c0,1.7-0.3,3.3-0.9,4.9c-0.5,1.3-1,2.6-1.8,3.8c-0.5,0.5-1.7,1.6-3.1,2.1
			c1.2-1.5,2.3-3.9,2.5-7.2c0.5-7.4-5.4-11.4-8.6-12.5c-0.1,0-0.2-0.1-0.3-0.1c0-0.1,0-0.2,0.1-0.2c0.4-0.2,0.7-0.3,1.1-0.4
			c0,0,0,0,0,0c2.5,0.8,6,2.7,7.5,7.2C122.7,148.2,124,148.6,125.2,148z"/>
		
			<linearGradient id="SVGID_00000165951180386534369370000016827197094701151131_" gradientUnits="userSpaceOnUse" x1="121.2053" y1="223.0535" x2="127.8967" y2="245.0286">
			<stop  offset="0" style="stop-color:#B9539F"/>
			<stop  offset="1" style="stop-color:#5E4EA1"/>
		</linearGradient>
		<path fill="url(#SVGID_00000165951180386534369370000016827197094701151131_)" d="M70.2,231.2c-1.2-0.3-2.3-0.7-3.5-1
			c-1.1-0.3-2.1-0.7-3.2-1.1c-1-0.4-2.1-0.8-3.1-1.2c-1.1-0.4-2.2-0.9-3.2-1.3c-0.1,0-0.2-0.1-0.3-0.1c0,0.1,0.1,0.2,0.1,0.2
			c0.8,1.8,2,3.5,3.5,4.7c0.1,0.1,0.2,0.2,0.3,0.3c1.2,0.9,2.6,1.6,4.3,2c0.7,0.2,1.4,0.4,2.2,0.5c2.8,0.4,5.6-0.2,8-1.6
			C73.6,232.1,71.9,231.7,70.2,231.2z M125.6,233.6c-1.1,0.2-2.1,0.4-3.2,0.5c-0.8,0.2-2.1,0.3-2.9,0.4c-1.7,0.2-4.2,0.6-5.9,0.7
			c-0.4,0-0.8,0.1-1.1,0.1c-1.5,0.1-3,0.2-4.4,0.3c1.8,0.8,3.8,1.4,5.8,1.8c0.8,0.2,1.7,0.3,2.5,0.4c3,0.4,5.7,0,8.2-0.9
			c2.6-0.9,4.9-2.5,7-4.4C129.6,232.8,127.6,233.2,125.6,233.6z M178.3,211.3c-3.5,2.5-7.1,4.9-10.9,7c-1.3,0.8-2.7,1.5-4,2.2
			c2.2,0.4,4.4,0.3,6.6-0.2c1.8-0.4,3.6-1,5.2-1.9c1.7-0.9,3-2.2,4.1-3.7c1.4-1.9,2.3-4.1,3-6.4
			C180.9,209.4,179.6,210.4,178.3,211.3z"/>
		<path fill="#FFFFFF" d="M173.7,144.8c-6.4,12.6-19.6,20-32.7,23.8c-3.5,1.1-7.1,1.9-10.7,2.5c-0.4,0.1-1.2,0.2-1.5,0.3
			c-1.8,0.3-4.4,0.7-6.2,0.9c-21.9,2.5-49.6,2.1-68-11.4c-1.4-1-2.7-2.1-4-3.3c-0.5-0.4-0.9-0.9-1.4-1.3c1.2,0.4,2.4,0.6,3.6,0.6
			c0.1,0,0.3,0,0.4,0c0.4,0,0.9,0,1.3-0.1c1.6,1.7,5.8,5.7,14,9c8.6,3.4,19,5.1,31,5.1c7.4,0,15.5-0.7,24.2-2
			c27.1-4.1,44.8-16.2,48.7-33c1.4-6.2,0.6-12.5-1.9-17.6c-1.3-2.5-2.9-4.6-5-6.3c-0.2-0.2-0.4-0.3-0.6-0.5c0-0.8,0-1.7-0.1-2.5
			c2.8,1.5,5.3,3.7,7.4,6.1c1.3,1.5,2.4,3.1,3.2,4.8c1.4,2.7,2.2,5.6,2.2,8.6C177.6,134.3,176.1,139.9,173.7,144.8z"/>
		<path fill="#7890B4" d="M53.8,160.1c18.5,13.4,46.1,13.9,68,11.4c1.8-0.2,4.4-0.6,6.2-0.9c0.4-0.1,1.2-0.2,1.5-0.3
			c3.6-0.7,7.2-1.5,10.7-2.5c13.2-3.8,26.3-11.3,32.7-23.8c2.5-5,3.9-10.5,3.8-16.1c0-3.7-1.2-7.1-3.1-10.3
			c-0.5-0.8-1.1-1.5-1.7-2.2c-2.1-2.4-4.6-4.6-7.4-6.1c0,0.7,0.1,1.3,0.1,2c1.7,1.3,3.1,3,4.2,4.9c3.6,5.3,5,12.7,3.3,19.9
			c-3.9,16.8-21.6,28.9-48.7,33c-8.7,1.3-16.7,2-24.2,2c-12,0-22.4-1.7-31-5.1c-8.3-3.3-12.5-7.2-14-9c-0.4,0.1-0.9,0.1-1.3,0.1
			c-0.1,0-0.3,0-0.4,0c-1.1,0-2.1-0.2-3.1-0.5C50.9,157.8,52.3,159,53.8,160.1z"/>
		<g>
			<path fill="#5A6A7A" d="M172.1,115.3c-2.1-2.4-5.2-5.1-8-6.7c0,0.7,0,1.4,0.1,2.1c0,0,0.7,0.5,0.7,0.6c0.1,0.1,0.2,0.1,0.2,0.2
				c0.2,0.2,0.4,0.3,0.5,0.5c0.1,0.1,0.1,0.1,0.2,0.2c0.2,0.2,0.4,0.4,0.7,0.7c0.1,0.1,0.1,0.1,0.2,0.2c0.2,0.2,0.3,0.4,0.5,0.6
				c0.1,0.1,0.2,0.2,0.2,0.3c0.1,0.2,0.3,0.3,0.4,0.5c0.1,0.1,0.1,0.2,0.2,0.3c0.2,0.2,0.4,0.5,0.5,0.8c0.1,0.1,0.1,0.2,0.2,0.3
				c0.1,0.1,0.2,0.2,0.2,0.4c0.3,0.4,0.6,0.9,0.8,1.3h3.9C173.1,116.7,172.6,116,172.1,115.3z"/>
			<path fill="#5A6A7A" d="M99.7,171c-0.3,0.5-0.6,1.1-0.9,1.6c2.3,0.1,4.7,0,7,0c0.3-0.6,0.5-1.2,0.7-1.8
				C104.2,170.9,102,171,99.7,171z"/>
			<path fill="#5A6A7A" d="M176.8,126.7c0-0.3,0-0.5-0.1-0.8c0,0,0-0.1,0-0.1c0-0.3-0.1-0.6-0.1-0.9c0,0,0-0.1,0-0.1
				c0-0.3-0.1-0.6-0.2-0.8c0,0,0,0,0-0.1c-0.1-0.6-0.3-1.2-0.5-1.8c0,0,0,0,0,0c-0.2-0.6-0.4-1.2-0.7-1.8l-4,0
				c1.4,3.5,2,7.5,1.7,11.6l3.7,0.8c0,0,0,0,0,0c0.1-0.4,0.1-0.8,0.1-1.1c0,0,0-0.1,0-0.1c0-0.3,0.1-0.7,0.1-1c0-0.1,0-0.1,0-0.2
				c0-0.3,0-0.6,0-0.9c0-0.1,0-0.2,0-0.3c0-0.4,0-0.8,0-1.2c0-0.3,0-0.6,0-0.9C176.8,126.8,176.8,126.8,176.8,126.7z"/>
			<path fill="#5A6A7A" d="M92.8,170.8c-5.2-0.3-10-1-14.5-2c-0.6,0.4-1.3,0.7-2,1.1c0,0,0,0,0,0c3.7,0.9,7.5,1.5,11.4,2
				c0.1,0,0.1,0,0.2,0c0.6,0.1,1.2,0.1,1.8,0.2c0.1,0,0.1,0,0.2,0c0.6,0.1,1.2,0.1,1.8,0.2c0,0,0,0,0,0
				C92.1,171.7,92.4,171.3,92.8,170.8z"/>
			<path fill="#5A6A7A" d="M55.7,161.3c0.5,0.3,0.9,0.6,1.4,0.9c0.2,0.1,0.4,0.2,0.6,0.4c0.4,0.2,0.8,0.5,1.2,0.7
				c0.3,0.2,0.6,0.3,0.9,0.5c0.1,0,0.1,0.1,0.2,0.1c0.6,0.3,1.3,0.7,1.9,1c0,0,0,0,0,0c0.6-0.4,1.2-0.8,1.9-1.2
				c-5.2-2.7-8-5.4-9.3-6.8c-0.4,0.1-0.9,0.1-1.3,0.1c-0.1,0-0.3,0-0.4,0c-1.1,0-2.1-0.2-3.1-0.5c0,0,0,0,0,0
				c0.2,0.2,0.5,0.4,0.7,0.7c0.2,0.1,0.3,0.3,0.5,0.4c0.2,0.2,0.4,0.4,0.6,0.6c0.2,0.2,0.4,0.4,0.7,0.6c0.2,0.1,0.3,0.3,0.5,0.4
				c0.4,0.3,0.8,0.7,1.2,1c0.5,0.4,1,0.7,1.6,1.1C55.5,161.2,55.6,161.3,55.7,161.3z"/>
			<path fill="#5A6A7A" d="M173.7,142.5c0.1-0.3,0.3-0.7,0.4-1c0-0.1,0-0.1,0.1-0.2c0.3-0.8,0.7-1.7,0.9-2.6c0,0,0,0,0,0l-3.2-1.4
				c-2.5,9-9,16.6-18.9,22.2c0.7,0.7,1.4,1.4,2.1,2.1c0,0,0,0,0,0c0.5-0.3,0.9-0.5,1.3-0.8c0,0,0.1,0,0.1-0.1
				c0.4-0.3,0.9-0.5,1.3-0.8c0,0,0,0,0,0c0.9-0.6,1.8-1.2,2.6-1.8c0,0,0,0,0,0c0.4-0.3,0.8-0.6,1.2-0.9c0.1-0.1,0.1-0.1,0.2-0.2
				c0.3-0.3,0.7-0.5,1-0.8c0.1-0.1,0.1-0.1,0.2-0.2c0.8-0.7,1.5-1.3,2.3-2c0,0,0.1-0.1,0.1-0.1c0.3-0.3,0.6-0.6,0.9-0.9
				c0.1-0.1,0.2-0.2,0.3-0.3c0.3-0.3,0.5-0.5,0.8-0.8c0.1-0.1,0.2-0.2,0.3-0.3c0.3-0.3,0.5-0.6,0.8-0.9c0.1-0.1,0.1-0.2,0.2-0.2
				c0.3-0.4,0.6-0.8,0.9-1.2c0-0.1,0.1-0.1,0.1-0.2c0.3-0.3,0.5-0.7,0.7-1c0.1-0.1,0.2-0.3,0.3-0.4c0.2-0.3,0.4-0.6,0.6-0.9
				c0.1-0.1,0.2-0.3,0.3-0.4c0.2-0.3,0.4-0.6,0.5-0.9c0.1-0.1,0.2-0.3,0.2-0.4c0.2-0.4,0.5-0.9,0.7-1.3c0.2-0.4,0.4-0.8,0.5-1.1
				C173.6,142.6,173.7,142.6,173.7,142.5z"/>
		</g>
		<path fill="#48C2C9" d="M199.3,186.8c-2.7,3.5-5.7,6.7-8.9,9.7c-19,17.8-43.9,28.9-69.5,32.8c-1.9,0.2-4.5,0.6-6.4,0.8
			c-2.2,0.1-4.9,0.4-7.1,0.5c-3.3,0.2-8,0.2-11.4,0.1l-5.7-0.4l-5.7-0.6c-1.9-0.3-3.8-0.6-5.6-0.9c-3.3-0.6-8-1.7-11.1-2.6
			c-1.2-0.4-3.6-1.1-4.8-1.5c-4.1-1.4-8.1-3-12-4.9c1.7,0.4,3.4,0.7,5.1,1c9.3,1.5,18.9,2.3,28.6,2.2c0,0,0,0,0,0
			c26.5-0.1,53.8-5.7,78.2-15.8c7.1-2.9,13.9-6.2,20.4-9.9C188.6,194.5,194.1,190.9,199.3,186.8z"/>
		<path fill="#489CB1" d="M198.6,181.5c-32.6,24.9-79.9,36.6-120.5,36.4c-23.5-0.2-64.9-6.3-71.4-33.3c-2.3-10.4,2.4-21,8.7-29.1
			l0.8-1.1c0,0,0.1-0.1,0.2-0.3c-0.7,1.6-1.2,3.2-1.7,4.9c-0.1,0.3-0.1,0.5-0.2,0.8c-5,21.1,11.7,35.7,30.1,42.2
			c44.9,15.8,111.3,2.1,147.6-28.3c11.2-9.6,21.9-23,20.7-38.6c-0.2-3-1-6-2.2-8.7c-0.7-1.7-1.6-3.4-2.6-4.9
			c0.1,0.1,0.2,0.1,0.3,0.2c5.4,4.1,10.1,9.7,12,16.3C225.4,155.5,211.6,171.3,198.6,181.5z"/>
		<path fill="#056A88" d="M218.6,148.4c-1.6,12.9-12.1,24.1-22.1,32c-31.7,24.3-77.8,35.7-117.4,35.4c-22.9-0.2-63.2-6.2-69.5-32.5
			c-1.8-8.2,0.8-16.5,5.2-23.6c-5,21.1,11.7,35.7,30.1,42.2c44.9,15.8,111.3,2.1,147.6-28.3c10.6-9,20.7-21.5,20.8-35.9
			c0-0.9,0-1.8-0.1-2.7c-0.2-3-1-6-2.2-8.7c3.1,3.3,5.6,7.2,6.8,11.6C218.8,141.5,219,145,218.6,148.4z"/>
		<path fill="#FFFFFF" d="M14.5,173.4c-0.9-4.2-0.9-8.7,0.2-13.5c-4.4,7.1-7,15.4-5.2,23.6c0.8,3.2,2.1,6.2,3.8,8.8
			C10.9,184.1,12.8,177.3,14.5,173.4z"/>
		<g>
			<path fill="#004E78" d="M119.5,205.6c-26,4.8-52.9,4.1-74.7-3.6c-5.8-2.1-11.5-4.9-16.3-8.5l-8.4,6.3c15.1,12.6,41.9,16,59,16.1
				c12.8,0.1,26.3-1.1,39.7-3.5C119,210.1,119.3,207.9,119.5,205.6z"/>
			<path fill="#004E78" d="M205.5,159.6c-3.7,5.3-8.3,10-13.1,14.1c-6.7,5.6-14.3,10.6-22.7,15l6,4.8c7.4-3.9,14.4-8.2,20.8-13.1
				c6-4.7,12.2-10.7,16.5-17.5L205.5,159.6z"/>
			<path fill="#004E78" d="M145.6,198.9c-7.3,2.4-14.8,4.5-22.4,6c0,2.2-0.1,4.4-0.1,6.7c8.7-1.7,17.3-4,25.7-6.8L145.6,198.9z"/>
			<path fill="#004E78" d="M156,195c-2.5,1-5,2-7.5,2.9c1.3,1.9,2.6,3.8,3.9,5.7c2.6-0.9,5.2-1.9,7.8-2.9
				C158.7,198.8,157.4,196.9,156,195z"/>
		</g>
		<path fill="#48C2C9" d="M207.9,126.9c-1.5-3.4-3.8-6.7-7-9.7c-0.2-0.2-0.4-0.4-0.6-0.6c-0.2-0.1-0.6-0.5-0.6-0.5
			c-7.7-6.7-17.5-10.6-27.4-13.1c-2.8-0.7-5.6-1.4-8.5-1.6c0,0.1,0,0.2,0.1,0.3c0.1,0.7,0.2,1.5,0.3,2.2c0.1,0.4,0.1,0.8,0.2,1.2
			c9.1,4.1,16.6,13.3,16.7,23.6c0.2,17.8-11.5,31.5-26.9,38.8c-6.8,3.3-14.2,5.5-21.7,7c-0.5,0.1-1.9,0.4-2.4,0.5
			c-0.5,0.1-3.4,0.5-4,0.6c-1.8,0.3-4.6,0.6-6.4,0.8c-18.1,1.7-37.3,1.3-54.4-5.4c-11.5-4.5-22.3-12.8-26.9-24.5
			c-0.3-0.7-0.6-1.5-0.7-2.3c-1.5-3.5-2.3-6.8-2.6-8.5c-2.1,1.9-4.1,4-6,6.1c-4.6,5.3-8.5,11.4-10.2,18.2
			c-4.8,19.5,10.9,32,27.5,37.9c38.3,13.4,90.7,4.3,125.8-14.9c12.5-7,24.4-15.7,32.2-27.9C210.3,145.9,211.8,135.8,207.9,126.9z
			 M38.9,158.7c-0.5,3.4-2.6,7-6.1,8.2c-2.5,1-5.5,0.3-7.4-1.5c-5.2-5-2.8-15,3.9-17.3C35.7,146.2,39.9,153.1,38.9,158.7z
			 M80.1,193.2c-6.7,6.2-19.6,3-22.6-5.6c-1.7-4.9,1.2-9.9,5.9-11.8c2.9-1.2,6.2-1.3,9.2-0.6c3,0.8,5.8,2.4,7.8,4.8
			C83.7,183.8,83.9,189.6,80.1,193.2z M170.6,175.9c-1.9,8-13.5,13.9-21,10c-3-1.6-4.4-5-3.8-8.2c0.8-4.5,4.4-8,8.3-10
			c2.7-1.3,5.6-2,8.6-1.6C167.9,166.5,171.9,170.5,170.6,175.9z M191.6,130.6c-4.1-1.7-7.2-5.2-8.5-9.3c-0.7-2.1-0.7-4.8,1-6.5
			c3.5-3.1,9.1-0.6,12,2.1c2.4,2.3,4.6,5.3,4.4,8.9C200.3,130.6,195.6,132.2,191.6,130.6z"/>
		
			<linearGradient id="SVGID_00000083807103025916785100000009426363816119543184_" gradientUnits="userSpaceOnUse" x1="120.3815" y1="146.8624" x2="147.7786" y2="259.3864">
			<stop  offset="0" style="stop-color:#00A6B8"/>
			<stop  offset="1" style="stop-color:#632A80"/>
		</linearGradient>
		<path fill="url(#SVGID_00000083807103025916785100000009426363816119543184_)" d="M184.6,130.1c0.4,10.4-3.8,23.9-22.1,35.9
			c0.1,0,0.2,0,0.3,0c5.1,0.5,9.1,4.5,7.9,9.9c-1.9,8-13.5,13.9-21,10c-3-1.6-4.4-5-3.8-8.2c0.2-1.3,0.7-2.5,1.3-3.6
			c-25.6,10.9-49.5,9.6-66.9,5.8c0.1,0.1,0.1,0.1,0.2,0.2c3.2,3.9,3.5,9.6-0.3,13.2c-6.7,6.2-19.6,3-22.6-5.6
			c-1.7-4.9,1.2-9.9,5.9-11.8c0.5-0.2,0.9-0.4,1.4-0.5c-4.5-1.3-8.6-3.1-12.2-5.5c0,0-7.6,10.5-7.9,27.5c0.5,0.2,1,0.4,1.5,0.6
			c38.3,13.4,90.7,4.3,125.8-14.9c12.5-7,24.4-15.7,32.2-27.9c1.7-2.6,3-5.3,3.9-8C198.5,137,188.1,131.7,184.6,130.1z"/>
		
			<linearGradient id="SVGID_00000152950423503448396200000017844877510963432596_" gradientUnits="userSpaceOnUse" x1="37.6496" y1="167.0058" x2="65.0467" y2="279.5299">
			<stop  offset="0" style="stop-color:#00A6B8"/>
			<stop  offset="1" style="stop-color:#632A80"/>
		</linearGradient>
		<path fill="url(#SVGID_00000152950423503448396200000017844877510963432596_)" d="M47.9,167.4c0,0-2.9-1.3-5.9-6
			c0,0-8,11.2-8.6,30.3c2.4,1.5,4.9,2.9,7.5,4.1C40.8,181.8,47.9,167.4,47.9,167.4z"/>
		<path fill="#FFFFFF" d="M23.7,163c-2.6-5.3-0.1-12.9,5.7-14.8c0.2-0.1,0.3-0.1,0.5-0.1c1.8-2.6,4-4.9,6.6-6.8
			c-0.8-2.3-1.3-4.4-1.5-5.6c-2.1,1.9-4.1,4-6,6.1c-4.6,5.3-8.5,11.4-10.2,18.2c-2.3,9.2,0.1,16.8,4.9,23
			C22.4,176.3,22.4,169.4,23.7,163z"/>
		<path fill="#9279B6" d="M54.2,133.2c-2.9,2.3-6.6,3.3-9.6,1.4c0.4,0,0.7-0.1,1-0.2c0.6-0.1,1.2-0.2,2-0.2c3.8-0.1,6.5-2.5,7.4-4.7
			c0.3-0.8,0.4-1.6,0.3-2.4c0.2-0.2,0.5-0.5,0.8-0.9C56.5,128.7,56.5,131.7,54.2,133.2z"/>
		<path fill="#70CDDD" d="M56.6,133.9c-0.9,3.8-3.3,6.7-7.5,6.3c-0.7-0.1-1.5-0.2-2.2-0.4c-1.6-0.4-3.2-1-4.6-1.8
			c-1.9-1-3.2-2.6-4-4.3c0-0.1-0.1-0.2-0.1-0.3c-0.3-0.6-0.5-1.3-0.6-2c1,0.9,2,1.5,2.8,1.9c0.2,0.1,0.3,0.2,0.5,0.3
			c0.8,0.5,1.5,0.7,2.1,0.9c1.5,1.7,3.7,2.7,5.9,2.7c1.8,0,3.5-0.5,5-1.4c0.6-0.3,1.1-0.6,1.6-0.9C55.8,134.6,56.2,134.3,56.6,133.9
			z"/>
		<path fill="#BFCAD5" d="M62.1,149.2c-3.3,2.9-6.5,4.3-9.3,4.2c-1.8-0.1-3.5-0.6-4.9-1.5c0,0,0,0,0,0c-4.4-2.7-7-8.4-8.3-12.7
			c0.5,0.3,1,0.6,1.5,0.9c1.6,0.8,3.4,1.4,5.1,1.7c2.9,0.6,5.4,0.3,7.3-0.8c1.8-1.1,3.1-2.8,3.8-5.2c0,1.3,0.2,2.5,0.5,3.7
			C58.5,143.2,60,146.5,62.1,149.2z"/>
		<path fill="#BFCAD5" d="M145.4,82.4c-2.7,0.4-5.3,1-7.8,2.1c-0.2,0.1-0.4,0.2-0.6,0.3c1.4-1.8,2.8-3.6,4-5.6
			c0.2-0.3,0.3-0.5,0.4-0.8l1.6,0.4C143.4,79.6,144.1,81,145.4,82.4z"/>
		<path fill="#70CDDD" d="M120.2,88.2c-0.8,0.9-1.6,1.6-2.3,2.4c-0.3-0.7-0.7-1.4-1.1-1.9c0-0.1-0.1-0.1-0.1-0.2
			c-0.8-1.1-1.7-1.9-2.5-2.5c-0.3-0.3-0.7-0.5-1-0.7c1-0.7,1.9-1.5,2.8-2.2c0.3,0.2,0.5,0.4,0.8,0.6c0.7,0.6,1.6,1.5,2.3,2.7
			c0.1,0.1,0.1,0.2,0.2,0.3C119.6,87.1,119.9,87.6,120.2,88.2z"/>
		<path fill="#70CDDD" d="M128.4,115.3c-2.2-1.3-4.1-3.1-5.5-5.3c0,0-0.1-0.1-0.1-0.1c-1.7-2.6-2.5-5.7-2.8-8.9
			c1.4-1,2.8-2.1,4.1-3.2c-0.7,2-0.9,4.1-0.7,6.4c0.3,1.9,0.9,3.7,1.7,5.3c0.8,1.6,1.9,3,3.2,4.2
			C128.3,114.2,128.3,114.7,128.4,115.3z"/>
		<path fill="#70CDDD" d="M150.3,86.6c-1.9,0-3.8,0.3-5.6,0.7c-0.4,0.1-0.8,0.2-1.2,0.3c-5.8,1.4-10.7,5.4-13.7,10.5
			c-1,1.7-1.8,3.5-2.4,5.5c-0.1,0.3-0.1,0.4-0.2,0.7l0.3,1.6l-0.1-0.1l0,0l0,0.1c0.5,1.7,0.6,3.4,0.7,5.1c-1.5-2.1-2.5-4.6-2.7-7.1
			c-0.4-2.9,0.6-5.7,2.2-8.1c0.5-0.8,1-1.5,1.6-2.1c3.7-4.2,8.9-6.7,14.4-7.6c2-0.3,4-0.4,5.9-0.4c0.1,0,0.1,0.1,0.2,0.1L150.3,86.6
			z"/>
		<path fill="#C8B299" d="M36.4,107c-0.2,0.3-0.4,0.7-0.5,1.1c-0.3,0.7-0.5,1.4-0.6,2.1c-4.6-1.7-8.7-3.4-12.2-5
			c0.1-0.8,0.4-2.1,1.4-3.1L36.4,107z"/>
		<path fill="#C8B299" d="M76.7,122.4c-0.3,0.4-0.5,0.8-0.7,1.2c-3.2-1-11.1-3.3-20.7-6.5c-0.3-0.3-0.6-0.6-0.9-0.9
			c1.8,0.3,4.1,0.9,7.2,1.7c1,0.3,1.7,0.2,2.2,0c2.3,0.6,4.6,1.3,6.8,2.1C72.6,120.8,74.7,121.6,76.7,122.4z"/>
		<path fill="#C8B299" d="M78,119.9c-0.3,0.5-0.5,1-0.8,1.4c-4-1.7-8-3.5-11.8-5.6c0-0.5-0.1-1.1-0.3-1.8c-0.3-0.8-0.8-1.8-1.5-2.7
			C69.9,115.1,75.2,118.2,78,119.9z"/>
		<path fill="#C8B299" d="M53.5,104.7c-0.1,0-0.2,0-0.3,0c-0.8-0.2-3.8-0.9-7.1-1c-7.7-5-15.3-10.1-17.7-11.8
			c0.4-2.4,1.8-3.1,2.7-3.3C37.2,93.7,45.5,99.5,53.5,104.7z"/>
		<path fill="#FFFFFF" d="M110.4,134c-0.2,2.7-0.9,5.3-2.1,7.7c-3-1.3-6.5-1.5-9.6-0.4c-3.4,1.1-7.2,4.2-5.5,8.2
			c1,2.1,3,3.4,5.3,4.2c-0.7,0.2-1.4,0.5-2,0.6c-2.2,0.5-4.3,0.8-6.4,0.2c-2.5-0.8-4.1-3.1-5-5.5c-0.1-0.1-0.1-0.4-0.3-0.4
			c-1.4-1.8-3.4-3-5.8-2.6c-1.8,0.4-3.1,2.1-3.6,3.7c-0.4,1.2-0.4,2.4-0.2,3.6c-1.5-0.4-3-0.9-4.4-1.5c-4-1.9-7-5.5-8.5-9.7
			c-0.3-0.7-0.5-1.4-0.7-2.2c0.9,0.5,1.9,1,2.9,1.3c3,1.1,6.3,1.7,9.5,1.9c7,0.7,14.1,0.1,20.9-1.7
			C99.6,140.1,106.3,137.7,110.4,134z"/>
		<g>
			<path fill="#BFCAD5" d="M108.9,135.2c-4.1,3-9.8,5-13.9,6.2c-1.3,0.4-2.6,0.7-3.9,0.9c-0.7,1.9-2,3.8-4.7,4.7
				c0,0-1.6-3.4-4.5-2.3c-0.7,0.3-1.3,0.6-1.8,1c1.9,0,3.6,1.1,4.8,2.6c0.2,0,0.2,0.3,0.3,0.4c0.6,1.7,1.6,3.3,2.9,4.4
				c4,0.5,6.4,0.1,7.9-1c-0.8-0.6-2.3-2-2.7-3c-1.7-4,2.1-7,5.5-8.2c2.8-1,5.7-0.9,8.5,0C108.2,139.1,108.8,137,108.9,135.2z"/>
			<path fill="#BFCAD5" d="M75.9,148.3c-2.3-0.3-6.5-1-10-2.6c0,0,2.3,4.2,9,6.4c0-0.8,0.1-1.7,0.3-2.5
				C75.5,149.2,75.7,148.8,75.9,148.3z"/>
		</g>
		<path fill="#ED2224" d="M109.9,129.6c0,0.1,0,0.3,0,0.4c-0.1,0.1-0.2,0.3-0.2,0.4c-2.5,3.9-7.4,6.5-11.6,8.2
			c-6.9,2.8-14.6,4.1-22,3.5c-3.7-0.3-7.5-1.1-10.7-2.8c-1.7-1-3.4-2.2-4.3-3.9c0,0,0-0.1-0.1-0.1c-0.1-0.4-0.1-1,0-1.5
			c2.8,3.2,7.9,4,12,4.4c9.3,0.5,24.6-0.6,32-6.4c2.2-1.7,4.2-4.3,4.4-7.1C110,125.8,110.2,127.5,109.9,129.6z"/>
		<path fill="#FAED81" d="M65.2,132.7c0,0-0.1,0-0.1-0.1c-1.2-0.7-2-1.5-2.4-2.6c0.3-0.5,0.8-0.9,1.4-1.4
			C64.2,130.1,64.6,131.5,65.2,132.7z"/>
		<path fill="#FAED81" d="M89.6,134c-5.7,0.8-14.3,1.5-20.4,0.1c-0.2-0.4-0.6-0.9-0.9-1.5c-0.3-0.5-0.6-1.1-0.8-1.8
			c-0.7-1.8-0.7-3.1-0.3-4c0.2-0.1,0.4-0.2,0.6-0.3c0,0,0,0,0,0c0.2,0.8,0.5,1.6,1,2.3c1.2,1.9,3.2,3.2,5.5,3.9
			c2.7,0.8,5.7,0.4,7.9-1.3c0.7-0.1,1.5-0.3,2.1-0.5c0.6-0.2,1.3-0.4,1.9-0.6c0.9,0.5,1.7,1.2,2.3,2C88.9,132.8,89.3,133.4,89.6,134
			z"/>
		<path fill="#FAED81" d="M96.7,132.4c-1.3,0.4-2.5,0.7-3.8,1c-1.2-1.6-2.8-3.1-4.6-3.9c0.5-0.2,1.1-0.4,1.6-0.6
			c0.3-0.1,0.7-0.3,1-0.4c1.1,0.3,2.1,0.7,3.1,1.3c0.4,0.3,0.8,0.5,1.1,0.8c0.1,0.1,0.2,0.2,0.4,0.3c0,0,0,0,0,0
			c0.1,0.1,0.1,0.1,0.2,0.2C96.1,131.6,96.4,132,96.7,132.4z"/>
		<path fill="#FAED81" d="M101.4,130.5c-1.1,0.6-2.2,1.1-3.4,1.5c-0.6-1-1.3-1.9-2.2-2.7c-0.7-0.7-1.6-1.2-2.5-1.7
			c0.2,0,0.4-0.1,0.6-0.1c1.7-0.1,1.8-2.2,0.6-2.7c-0.2-0.1-0.4-0.1-0.6-0.1c-1.9,0.1-3.4,1.1-5,1.8c-1.7,0.9-3.5,1.9-5.2,2.7
			c-2.3,1.3-5.3,1.8-7.1-0.6c0.4,0.9,1,1.6,1.8,2c0.5,0.3,1,0.4,1.5,0.6c-1.7,0.5-3.5,0.4-5-0.3c-2.5-1-4.6-3.1-4.5-5.8
			c0.7,0.2,1.4,0.4,2,0.6c1.7,0.5,2.9,0.9,3.6,1.1l0.1,0c0,0,0,0,0,0c0.2,0.1,0.4,0.1,0.5,0.1c0.4,0,0.7-0.1,1-0.4
			c1.8,1.2,4.2,1.2,6.2,0.7c1.7-0.5,3.1-1.7,4.5-2.7c1.2-0.8,2.6-1.2,4-1.1c0.6,0,1.2,0.1,1.8,0.2c2.7,0.5,4.7,2.5,6.2,4.8
			C100.7,129.1,101.1,129.8,101.4,130.5z"/>
		<path fill="#FAED81" d="M104.4,128.2c-0.5,0.5-1,0.9-1.6,1.3c-0.3-0.7-0.6-1.4-1-2.1c-2-3.5-5.1-6.1-9.3-6.2
			c-1.8-0.1-3.7,0.3-5.3,1.3c-1.7,1-2.7,2.1-4.5,2.3c-1,0.1-2.2,0.1-3.1-0.4c0.4-0.3,0.9-0.6,1.4-0.9c2.5-1.6,6.4-3.7,10.2-4.1
			c3.9-0.4,7.5,0.5,9.8,2.4c1.3,1,2.2,2.4,2.7,4c0.2,0.7,0.4,1.5,0.5,2.4L104.4,128.2z"/>
		<path fill="#FAED81" d="M78.8,108.5c-0.1,0.9,0.2,1.6,0.4,2.3c0.2,0.5,0.3,0.9,0.3,1.3c0,0.6-0.6,1.2-1.1,1.8l-0.2,0.2
			c-0.4,0.4-0.8,1-1.1,1.6c-0.2-0.1-0.4-0.2-0.6-0.4c-0.2-0.1-0.5-0.3-0.7-0.4c0.1-0.3,0.2-0.5,0.4-0.8c0.6-1.1,1.5-2.6,1.6-4
			c0-0.4,0-0.9-0.1-1.3c0-0.2-0.2-0.6-0.2-0.8c-0.3-0.6-0.7-1.3-0.9-2c-0.5-1.3-0.1-2.9-0.4-4.4c-0.2-1-0.9-1.8-1.6-2.4
			c-0.4-0.3-0.8-0.7-1.1-1.1c0.5-0.2,1-0.5,1.5-0.7c0.1,0,0.2-0.1,0.3-0.1c0.6,0.4,1,0.9,1.2,1.4c0.1,0.3,0.1,0.6,0.2,1
			c0,0.4,0.1,0.9,0.2,1.4c0.3,1.1,1,2,1.7,2.7c0.1,0.1,0.2,0.2,0.3,0.4c0.7,0.8,1,1.4,0.9,1.9c0,0.2-0.2,0.6-0.3,0.9
			C79.1,107.4,78.8,107.9,78.8,108.5z"/>
		<path fill="#FAED81" d="M85.9,109.4c0,0.9-0.2,1.8-0.5,2.6c-0.1,0.1-0.1,0.2-0.2,0.3c-0.1,0.1-0.1,0.2-0.2,0.3
			c-0.7,1.1-1.6,2.1-2.7,3c-0.7,0.6-1.4,1.2-2.1,2c-0.3-0.2-0.6-0.4-1-0.6c0.1-0.3,0.3-0.7,0.7-1.1c0,0,0-0.1,0.1-0.1l0.1-0.2
			c0.7-0.8,1.6-1.8,1.7-3.2c0.1-0.9-0.2-1.6-0.4-2.3c-0.2-0.5-0.3-0.9-0.3-1.3c0-0.3,0.2-0.6,0.3-0.9c0.2-0.4,0.4-1,0.5-1.6
			c0.2-1.6-0.8-2.9-1.5-3.8c-0.1-0.1-0.2-0.3-0.3-0.4c-0.5-0.6-1-1.2-1.2-1.8c-0.1-0.3-0.1-0.6-0.1-1c0-0.5-0.1-1-0.3-1.6
			c-0.3-0.9-0.9-1.6-1.5-2.2c0.2-0.2,0.4-0.3,0.5-0.5c0.3-0.3,0.5-0.6,0.8-0.9c0.5,0.3,1,0.7,1.3,1.1c0.5,0.6,0.8,1.8,1,3.1
			c0.2,1.5,0.7,3.3,1.8,4.5c0.2,0.3,0.5,0.6,0.8,0.9C84.6,105.3,85.8,107.2,85.9,109.4z"/>
		<path fill="#D6B13A" d="M78.2,114c-0.4,0.4-0.8,1-1.1,1.6c-0.2-0.1-0.4-0.2-0.6-0.4c0.3-0.7,0.6-1.5,0.9-1.9
			c0.6-0.8,1.4-1.5,0.8-2.7c-0.6-1.2,0.7-4.6-0.2-6.2c-0.9-1.6-1.9-2.9-2.2-4.8c-0.2-1.4-0.5-2.1-1-2.4c0.1,0,0.2-0.1,0.3-0.1
			c0.6,0.4,1,0.9,1.2,1.4c0.1,0.3,0.1,0.6,0.2,1c0,0.4,0.1,0.9,0.2,1.4c0.3,1.1,1,2,1.7,2.7c0.1,0.1,0.2,0.2,0.3,0.4
			c0.7,0.8,1,1.4,0.9,1.9c0,0.2-0.2,0.6-0.3,0.9c-0.2,0.5-0.4,1-0.5,1.6c-0.1,0.9,0.2,1.6,0.4,2.3c0.2,0.5,0.3,0.9,0.3,1.3
			c0,0.6-0.6,1.2-1.1,1.8L78.2,114z"/>
		<path fill="#D6B13A" d="M85.9,109.4c0,0.9-0.2,1.8-0.5,2.6c-0.1,0.1-0.1,0.2-0.2,0.3c-0.1,0.1-0.1,0.2-0.2,0.3
			c-0.7,1.1-1.6,2.1-2.7,3c-0.7,0.6-1.4,1.2-2.1,2c-0.3-0.2-0.6-0.4-1-0.6c0.1-0.3,0.3-0.7,0.7-1.1c0.5,0.2,1,0.3,1.5-0.5
			c1-1.5,2.7-3.1,3.1-4.6c0.4-1.5,0.2-3.1-1-5c-1.2-1.9-2.7-4.1-3.3-5.2c-0.5-1-0.6-3.6-1.2-4.5c-0.2-0.4-0.9-0.8-1.4-1
			c0.3-0.3,0.5-0.6,0.8-0.9c0.5,0.3,1,0.7,1.3,1.1c0.5,0.6,0.8,1.8,1,3.1c0.2,1.5,0.7,3.3,1.8,4.5c0.2,0.3,0.5,0.6,0.8,0.9
			C84.6,105.3,85.8,107.2,85.9,109.4z"/>
		<path fill="#FFFFFF" d="M80,161.4c-3.8-1-8-2.8-10.7-6.3c2.2,1.1,4.6,1.8,7.2,2.1c0.5,0.9,1.1,1.7,1.7,2.5
			C78.8,160.2,79.4,160.8,80,161.4z"/>
		<path fill="#BFCAD5" d="M122,86.3c-0.3-0.5-0.5-0.9-0.8-1.4c-0.1-0.1-0.1-0.2-0.2-0.3c-0.8-1.1-1.6-2-2.4-2.7
			c-0.2-0.2-0.5-0.4-0.7-0.6c6-5.3,10.9-11.7,13.4-18.3c0.4-1,0.7-1.9,1-2.9c0.2-0.4,0.4-0.7,0.6-1.1c0.1,0,0.1,0,0.2-0.1
			c0.3-0.1,0.7-0.1,0.9,0c0.6,0.7,0.6,1.6,0.7,2.6C135,69.3,128.2,79.2,122,86.3z"/>
		<path fill="#BFCAD5" d="M138.5,75.8c-2.8,3.7-5.3,7.6-8.3,11.2c-6,7.3-12.9,13.8-21.1,18.5c-6.5,3.7-13.9,6.3-21.4,6.4
			c0.2-0.7,0.3-1.5,0.3-2.3c0,0,0,0,0,0c0.9-0.3,1.6-0.6,2.4-0.9c3-1.2,6-2.4,8.9-3.7c0.1,0,0.2-0.1,0.3-0.1
			c0.2-0.1,0.4-0.2,0.6-0.3c2.1-1,4.2-1.9,6.3-3c2.9-1.5,6-3.1,8.8-4.9c7.2-4.5,15.4-12.2,20.1-20.8c0.6-1.1,1.2-2.3,1.7-3.4
			C137.6,73.4,138.1,74.6,138.5,75.8z"/>
		<path fill="#BFCAD5" d="M115.9,92.4c-3.2,2.9-6.8,5.4-10.4,7.6c-4.2,2.5-8.7,5-13.3,6.4c-1.5,0.5-3,0.8-4.5,1
			c-0.1-0.9-0.3-1.8-0.6-2.7c0.6-0.1,1.2-0.3,1.7-0.6c1.2-0.7,2.4-1.5,3.5-2.3c0.3-0.2,0.5-0.4,0.8-0.6c1.9-1.5,3.8-3.2,5.6-4.8
			c1.6-1.6,3.8-4,5.4-5.6c2.3-1.2,4.5-2.5,6.7-4c0.4,0.2,0.8,0.4,1.2,0.7c0.9,0.6,1.9,1.4,2.7,2.6c0,0,0,0,0,0.1
			C115.2,90.9,115.6,91.6,115.9,92.4z"/>
		<path fill="#BFCAD5" d="M128.3,119.1c0,0.9-0.1,1.9-0.2,2.8c-1.1-1.8-3-1.3-5.4-1.8c-3.1-0.6-4.7-4.2-8-5.6
			c-0.2-0.1-0.4-0.2-0.6-0.2c-2.9-1-8.7,2.7-14.6,3.4c-2.5-1-5.5-1.4-8.6-1.1c-0.6,0.1-1.2,0.2-1.7,0.3c-2.2,0.5-4.3,1.3-6.2,2.3
			c0.3-0.6,0.9-1.3,1.4-1.8c1-1.1,1.9-2.3,2.5-3.6c1.1-0.1,2.1-0.3,3.2-0.5c4.4-0.7,8.7-1.7,12.9-3.3c4-1.4,8-3.4,11.7-5.6
			c1.2-0.7,2.3-1.4,3.5-2.2c0.3,4.4,1.8,8.7,4.4,12C124,116.2,126,117.9,128.3,119.1z"/>
		<path fill="#BFCAD5" d="M159.5,96.9c-0.4-1.2-0.8-2.7-1.4-3.9l0,0l0-0.1l-0.1-0.2c-2.4-3.4-7.7-3-11.4-2.3
			c-7.6,1.3-13.2,6.6-15.3,14c0.9,2.2,1.2,4.6,1.4,7c0.5,4.9,0.3,9.8-0.4,14.6c-0.1,0.4-0.1,0.7-0.2,1.1c1.8-1.1,3.8-1.8,5.9-2.1
			c2.7-0.2,5.6,0.6,7.8,2.3c0.6,0.5,1.2,1.1,1.7,1.8c0.1,0.1,0.2,0.3,0.3,0.4c-1.9-0.5-3.5-0.8-5.2-0.9c-1.4-0.1-2.7-0.1-4.1,0.1
			c-3,0.6-5.7,2.8-7.7,5c7.3-2.1,11.8,1.6,13.4,6.4c-2.3-2.2-5.2-3.8-8.4-4.3c-4.3-0.6-8.6,0.4-12.5,2.1c2.1,2.3,3.3,5.4,3.8,8.4
			c0.3,2.4,0.2,4.8-0.2,7.1c-0.2,1.4-0.6,2.8-0.9,4.2c0.1,0,0.2,0,0.3,0c2.7-0.1,5.3-0.6,7.9-1.3c2.1-0.6,4.3-1.3,6.3-2.3
			c3.6-1.8,6.7-4.4,9.4-7.4C161.7,133.4,164.5,113.7,159.5,96.9z M154,111c-0.3,0.1-0.7,0.1-1,0.1c-1.4,0-2.9-0.6-4.1-1.7
			c-1.4-1.2-2.4-3-2.8-5.1c-0.4-2-0.2-4.1,0.6-5.7c0.9-1.8,2.4-3.1,4.2-3.4c0.3-0.1,0.7-0.1,1-0.1c3.1,0,6.1,2.8,6.9,6.7
			C159.7,106.2,157.5,110.3,154,111z"/>
		<g>
			<path fill="#FFFFFF" d="M153.6,122.4c0.1-0.1-0.3,0-1,0.1C153.2,122.5,153.5,122.5,153.6,122.4z"/>
		</g>
		<path fill="#8E8FA9" d="M144.2,140.1c2.6,5.8-8.2,12.5-10.1,8.4c-1.9-4.1-5.9-5.6-5.9-5.6s1,2,1.1,6c0.1,2.9-0.9,5-2.8,6.3
			c-0.2,0.8-0.4,1.6-0.6,2.4c0.1,0,0.2,0,0.3,0c2.7-0.1,5.3-0.6,7.9-1.3c2.1-0.6,4.3-1.3,6.3-2.3c3.6-1.8,6.7-4.4,9.4-7.4
			c11.8-13.3,14.6-33,9.6-49.8c-0.4-1.2-0.8-2.7-1.4-3.9l0,0l0-0.1l-0.1-0.2c-2.2-3.2-7.1-3.1-10.7-2.4c1.9,1.8,1.5,3.6,1.5,3.6
			c4.4-0.1,8.8,2.9,9.8,6.9c0.1,0.3,0.2,0.6,0.2,0.9c0.9,4.4-1.3,8.5-4.8,9.2c-0.3,0.1-0.7,0.1-1,0.1c-0.4,0-0.8,0-1.1-0.1
			c-1.9,2.7-5.2,0-5.2,0c1,5.1,5.7,4.6,5.7,4.6s2.1,9.3-6.6,6.7c-8.6-2.6-13.7,4.9-13.7,4.9c1.8-1.1,3.8-1.8,5.9-2.1
			c2.7-0.2,5.6,0.6,7.8,2.3c0.8,0.6,1.5,1.3,1.9,2.2c4.1,4.1,2.6,7.4-4.1,3.8c-6.7-3.6-12.8,0.4-12.8,0.4
			C138.1,131.7,142.6,135.4,144.2,140.1z"/>
		<path fill="#70CDDD" d="M153.3,107.5c-0.9,0.2-1.7-0.4-2.1-0.7c-0.8-0.7-1.4-1.8-1.7-3.1c-0.3-1.2-0.1-2.5,0.3-3.5
			c0.2-0.5,0.7-1.3,1.6-1.5c0.1,0,0.2,0,0.4,0c1.4,0,2.9,1.7,3.4,3.9C155.8,104.9,154.9,107.2,153.3,107.5z"/>
		<path fill="#52A4DB" d="M154.7,104.9c-0.7,0.2-1.3-0.2-1.6-0.4c-0.6-0.5-1.2-1.3-1.4-2.2c-0.2-0.8-0.2-1.6,0-2.4
			c-0.1,0-0.1,0-0.2,0c-0.7,0.2-1.1,0.9-1.2,1.3c-0.3,0.8-0.3,1.9,0,2.9c0.3,1,0.8,1.9,1.5,2.4c0.3,0.3,1,0.7,1.7,0.5
			c0.8-0.2,1.3-1.1,1.4-2.2C154.8,104.9,154.8,104.9,154.7,104.9z"/>
		<path fill="#9279B6" d="M54,120.9c0.5,1.6,0,2.7-0.4,3.3c-2.7-2-8.8-3.1-10-3.3c-0.9-0.1-1.7,0.5-1.8,1.3c-0.1,0.9,1.1,1.1,2,1.2
			c2.9,0.5,6.9,2.3,8.2,3.5c0.4,0.4,0.3,0.9,0.1,1.3c-0.5,1.3-2.2,2.6-4.4,2.7c-1.1,0-1.9,0.2-2.6,0.3c-1.1,0.2-1.4,0.3-2.7-0.4
			c-0.2-0.1-0.3-0.2-0.5-0.3c-1.5-0.8-3.2-1.8-4.2-4.5c0-0.3-0.1-0.6-0.2-0.9c-0.5-2.9,1.9-5.8,1.9-5.8c0.5-0.6,0.5-1.4,0.1-2
			c-0.1-0.1-2.2-3.4-0.5-8.2c1.2-3.3,9.7-2.3,13.7-1.3c0.1,0,0.1,0,0.2,0c4.7,0.6,8.4,4.9,9.3,6.9c-9.2-2.6-12.5-2.3-13.1-2.3
			c-1.5-0.8-2.9-1.2-3.5-1.3c-1.1-0.2-1.9-0.3-1.9,0.4c0,0.9,1.6,1.8,2.5,2.2C49.6,115.5,53.4,118.7,54,120.9z"/>
		<path fill="#F8C9D5" d="M40.4,129.7c-1.5-2.1-2.8-5.1-1.2-7.4c1.8-2.6,2.9-2.6,2.6-4.1c-0.3-1.5-2.2-3.1-1.3-7.1
			c0.6-3,3.2-3.9,5.3-4.2c-3.2-0.1-6.2,0.4-6.9,2.3c-1.8,4.8,0.4,8.1,0.5,8.2c0.4,0.6,0.4,1.4-0.1,2c0,0-2.4,2.9-1.9,5.8
			c0.2,0.2,0.3,0.5,0.2,0.9C38.3,127.9,39.3,129,40.4,129.7z"/>
		<g>
			<path fill="#88449A" d="M53,119.2c-1.6,1.8-4.8,0.1-8.9,0c-4.1-0.1-2.4,3.1-2.4,3.1c0.1-0.9,1-1.5,1.8-1.3
				c1.3,0.2,7.3,1.2,10,3.3c0.4-0.6,0.9-1.7,0.4-3.3C53.8,120.4,53.5,119.8,53,119.2z"/>
			<path fill="#88449A" d="M52,128.3c0.2-0.4,0.3-1-0.1-1.3c-0.4-0.4-1.1-0.8-1.9-1.3c-0.2,1.4-1.5,2.7-4.2,3.2
				c-3.7,0.7-6.6-0.8-8.1-3c0,0,0,0.1,0,0.1c1,2.7,2.7,3.7,4.2,4.5c0.2,0.1,0.3,0.2,0.5,0.3c1.3,0.7,1.6,0.6,2.7,0.4
				c0.6-0.1,1.4-0.3,2.6-0.3C49.8,130.9,51.5,129.6,52,128.3z"/>
			<path fill="#88449A" d="M55.2,108.5c-0.5,1-2.8,1.2-7.5,0.8c-5.6-0.4-4.2,1.9-4.2,1.9s0,0,0.2,0.1c0.2-0.4,0.9-0.3,1.8-0.1
				c0.6,0.1,2,0.5,3.5,1.3c0.6-0.1,3.8-0.3,13.1,2.3C61.3,113.1,58.7,109.9,55.2,108.5z"/>
		</g>
		<path fill="#9279B6" d="M118.4,151.4c-0.3,4.4-2.5,6.2-3.3,6.7c-0.7,0-1.4,0.2-1.9,0.4c-1.8,0.7-3.3,1.6-4.9,2.4
			c-3.9,2-8.2,2.9-12.5,2.5c-2-0.2-4-0.6-5.8-1.5c-0.4-0.2-0.9-0.3-1.3-0.4c-2.8-0.8-5.4-2.3-7.3-4.4c-1.7-1.9-3.5-4.8-2-7.1
			c0,0,0.1-0.1,0.1-0.1c0.1-0.1,0.2-0.2,0.2-0.3c0.1-0.1,0.1-0.1,0.2-0.2c1.2-0.4,2.6,0,4.1,0.1c-0.1,2,0.5,3.9,1.6,5.5
			c4,5.5,12.4,4,17.4,0.7c0.3-0.2,0.5-0.5,0.7-0.8c0.8,0.1,1.5,0.2,2.2,0.3c0.7,0.1,1.5,0.1,2.2,0.1c1,0,2,0,3-0.1
			c-3.2-1.1-6.3-2.4-9.3-3.8c-1.3-0.6-2.8-1.4-3.8-2.3c-0.5-0.4-0.8-0.9-0.9-1.2c0-0.1,0-0.2,0-0.2c0,0,0,0,0,0
			c0.5-0.9,2.1-1.6,3.1-2c4.4-1.5,9.2-0.5,13.8,0.2c-0.8-0.9-1.6-1.6-2.6-2.3c0.2-0.4,0.4-0.7,0.5-1.1c0.1,0.1,0.2,0.1,0.3,0.2
			c0.2,0.1,3.7,1.3,5.3,4.6C118.2,148.2,118.5,149.7,118.4,151.4z"/>
		<path fill="#9279B6" d="M134.9,34.3l0-0.1l0-0.1c0-0.1-0.1-0.1-0.1-0.2c0-0.1-0.1-0.1-0.1-0.1c-0.2-0.1-0.5-0.1-0.8-0.1
			c-1.6,0.2-3.3,1-4.7,1.8c-0.4,0.2-0.7,0.4-1,0.6c-0.1,0-0.2,0.1-0.2,0.1c-1.2,0.9-2.4,1.8-3.4,2.9c-1.2,1.2-2.2,2.6-3.1,4
			c-1.9,3.1-3.1,6.5-3.7,10.1c-1-5.7,0.3-12,3.8-16.7c0.8-1.1,1.8-2.1,2.9-3c-0.3-0.7-0.7-1.3-1-2C114.7,16.2,99.4,4.8,81,7.3
			c-13.2,1.9-26.4,8.1-34.5,19C39.8,35,37.3,45.8,35,56.5l-0.3,0.7c0,0,0,0,0,0l0,0.1c-0.1,0.4-0.3,0.7-0.4,1.1
			c-0.7,2.9,0,6.2,1.4,8.9c0.7-1.8,2.5-3.5,6.6-2.1c9.4,3.2,12,17.3,11,22.5c-0.4,2.1-2,3.5-4.2,3.4c0.3,0.2,0.6,0.4,0.9,0.6
			c0.4,0.3,0.7,0.7,0.8,1.2c0.6,2.1,1.8,4,3.3,5.5c5,5,12.6,6.5,19.4,6.3c-0.1-0.3-0.1-0.7-0.1-1c-0.1-0.6,0-1.4-0.3-1.8
			c-0.1-0.1-0.2-0.1-0.3-0.2c-1.2-0.8-2.2-1.8-3.1-2.9c-3.2,0.3-6.5-1-8.2-3.8c2.1,0.7,4.2,1.1,6.3,1c0.1,0,0.4,0,0.5-0.1
			c0.7-0.1,1.4-0.3,2-0.5c0.5-0.2,1-0.4,1.4-0.7c1.6-0.9,3.2-2,4.3-3.4c0.1-0.3,0.3-0.6,0.6-0.9c-0.9,0-1.8,0-2.7,0.2
			c3.1-1.5,7-1.7,9.9,0.2c1.4,0.9,0.2,3-1.3,2.2c-0.2-0.1-0.3-0.3-0.5-0.4c0.7,0.9,1.3,1.9,1.5,2.9c0.3,0.9,0.3,1.9,0.5,2.8
			c1.3-0.2,2.5-0.8,3.5-1.6c0.5-0.4,1-0.9,1.4-1.4c-0.1,0.3-0.2,0.7-0.3,1c-0.4,1.2-1.1,2.3-1.9,3.2c0.5-0.2,0.9-0.5,1.3-0.8
			c1.7-0.9,3.3-2,4.8-3.1c2.5-2,4.9-4.3,7.2-6.6c0.5-0.5,1.1-1.1,1.6-1.6c0.3-0.3,0.4-0.3,0.7-0.4c10.4-5.5,20-13.9,24.7-24.8
			c-1.7,0.8-3.4,1.3-5.3,1.4c2.3-1,4.3-2.7,5.9-4.5c0.4-0.4,0.7-0.9,1-1.4C132.4,51.3,136.4,41.9,134.9,34.3z M46.2,53.8
			c-0.2,1-1.1,1.6-2.1,1.4c0,0,0,0,0,0c-0.4-0.2-0.9-0.3-1.3-0.3c-1.5-0.1-3,0.6-4.1,1.5c-0.3,0.2-0.5,0.5-0.7,0.7
			c0.2-0.6,0.5-1.3,0.9-1.9c1.2-2,3.4-3.4,5.8-3.5C45.6,51.7,46.4,52.8,46.2,53.8z M76.4,41.8c3.1-3.6,8.4-4.6,13-4.5
			c1.8,0.1,3.1,2,2.6,3.7c-0.4,1.6-2,2.6-3.7,2.2c-1.1-0.5-2.3-0.9-3.5-1.1c-3.9-0.8-8.1,0-10.4,3.7C74.7,44.4,75.4,42.9,76.4,41.8z
			 M95.8,89.8c-0.7,0.2-1.5,0.5-2.2,0.8c-0.7,0.3-1.5,0.7-2,1.4c0.1-0.9,0.7-1.6,1.2-2.3c0.6-0.7,1.2-1.4,1.8-2
			c0.5-0.5,1.4-0.5,1.8,0.1C97.1,88.4,96.7,89.6,95.8,89.8z M100.1,83c-3.8-1.1-7.9-1.6-11.8-1.1c-2,0.3-3.9,0.9-5.7,1.8
			c-1.9,0.9-3.6,2.1-5.3,3.4c0.3-0.7,0.7-1.4,1.1-2c-2-0.3-9-1.9-8.4-12.1c0.7-11.9,11.4-21.3,24.7-16.8c12.5,4.3,5,18.5,0.8,22.1
			c1.4,0.1,2.8,0.3,4.2,0.7c0.6,0.2,1.1,0.3,1.7,0.5C103.7,80.3,102.5,83.7,100.1,83z M129.5,48.1c-3.9,0.9-5.2,5.9-5.6,9.4
			l-0.1,1.9l-0.3-1.9c-0.4-3.3-0.2-6.7,1.7-9.6c0.9-1.3,2.1-2.4,3.6-2.9C130.9,44.6,131.6,47.6,129.5,48.1z"/>
		<path fill="#F8C9D5" d="M62.9,15.8C73.6,10.2,82.3,7.9,88.6,7c-2.5-0.2-5-0.1-7.6,0.3c-13.2,1.9-26.4,8.1-34.5,19
			C39.8,35,37.3,45.8,35,56.5l-0.3,0.7c0,0,0,0,0,0l0,0.1c-0.1,0.4-0.3,0.7-0.4,1.1c-0.7,2.9,0,6.2,1.4,8.9c0.7-1.8,2.5-3.5,6.6-2.1
			c1.1,0.4,2.1,0.9,3.1,1.6c-2.2-2.2-6.1-4.3-7.3-4.5c-1.8-0.4-0.7-4.5,0-5.2c0,0,0.7-9.1,5.3-19.2c-0.4,2.1-0.1,3.8,1,4.5
			c2.1,1.4,6.4-1.4,9.5-6.3s4-9.9,1.9-11.2c-1.3-0.9-3.5-0.1-5.7,1.8C53.2,22.5,57.5,18.7,62.9,15.8z"/>
		<path fill="#88449A" d="M99.5,57.1c-3.5-4.6-7.7-4.7-8-6.4c-0.3-1.7,1.6-6.8-6.8-8.6c-8.4-1.8,5.5-4.6,5.5-4.6s7-0.7,8.9,9.8
			C99.2,47.3,103.4,54,99.5,57.1z"/>
		<g>
			<path fill="#88449A" d="M84.5,92.1C84.5,92.1,84.5,92.1,84.5,92.1c0,0.8-0.9,1.7-1.9,1.1c-0.2-0.1-0.3-0.3-0.5-0.4
				c0.7,0.9,1.3,1.9,1.5,2.9c0,0,0,0.1,0,0.1C85.2,95,85.5,93.3,84.5,92.1z"/>
			<path fill="#88449A" d="M76.1,91.5c0.1-0.3,0.3-0.6,0.6-0.9c-0.9,0-1.8,0-2.7,0.2c0.1,0,0.1-0.1,0.2-0.1
				c-0.9,0.2-1.4,0.4-1.3,0.5c0.3,0.1,1.4,0.7,1.6,1.9C75.1,92.6,75.7,92.1,76.1,91.5z"/>
		</g>
		<g>
			<path fill="#88449A" d="M121.9,63.9c2.3-1,4.3-2.7,5.9-4.5c0.4-0.4,0.7-0.9,1-1.4c3.6-6.6,7.6-16.1,6.1-23.6l0-0.1l0-0.1
				c0-0.1-0.1-0.1-0.1-0.2c0-0.1-0.1-0.1-0.1-0.1c-0.2-0.1-0.5-0.1-0.8-0.1c-0.2,0-0.4,0.1-0.6,0.1c1.1,1,0.6,2.3-0.8,4
				c-1.6,2.1-6.8,1.9-9.8,9.4c-2.9,7.5,1.1,12,1.1,12l-0.3-1.9c-0.4-3.3-0.2-6.7,1.7-9.6c0.9-1.3,2.1-2.4,3.6-2.9
				c2.1-0.4,2.8,2.6,0.7,3.1c-0.1,0-0.2,0.1-0.4,0.1c0.7,2.1-1.4,7.7-3.8,11.9c-2.9,5.1-9.9,5.8-9.9,5.8s5.7,0.8-4.4,7.7
				c-8.1,5.6-10.2,2.9-13.3,2c-0.8,1.1-1.6,2.1-2.3,2.7c1.4,0.1,2.8,0.3,4.2,0.7c0.6,0.2,1.1,0.3,1.7,0.5c1,0.4,1.4,1.3,1.2,2.1
				c2.3,1.3,2.5,2.9,0.4,3.2c-3.3,0.3-5.5,7.1-7.2,5.1c-0.7,0.2-1.5,0.5-2.2,0.8c-0.7,0.3-1.5,0.7-2,1.4c0,0-0.5,1.7-2.7,3.8
				c-0.1,0.2-0.1,0.4-0.2,0.7c-0.4,1.2-1.1,2.3-1.9,3.2c0.5-0.2,0.9-0.5,1.3-0.8c1.7-0.9,3.3-2,4.8-3.1c2.5-2,4.9-4.3,7.2-6.6
				c0.5-0.5,1.1-1.1,1.6-1.6c0.3-0.3,0.4-0.3,0.7-0.4c10.4-5.5,20-13.9,24.7-24.8C125.5,63.2,123.8,63.7,121.9,63.9z"/>
			<path fill="#88449A" d="M73.5,104.9c-0.1-0.3-0.1-0.7-0.1-1c0-0.3,0-0.7-0.1-1c-16,3.2-22.5-9.8-22.5-9.8c0.6,2.1,1.8,4,3.3,5.5
				C59,103.6,66.6,105.1,73.5,104.9z"/>
			<path fill="#88449A" d="M117.4,48.7c0.2-4.3,1.5-8.5,4.1-12c0.8-1.1,1.8-2.1,2.9-3c-0.3-0.7-0.7-1.3-1-2
				c-5.1-9.2-12.6-17-21.8-21.3c5.9,6,11.3,15.8,11.6,24.7C113.5,45,116.2,48,117.4,48.7z"/>
		</g>
		<path fill="#88449A" d="M49.7,66.1c1.9,3.7,4.1-8.6-2.1-11.7s-9.7,2.7-9.7,2.7S44.1,55.2,49.7,66.1z"/>
		
			<linearGradient id="SVGID_00000052794565096375739550000017218901621921859500_" gradientUnits="userSpaceOnUse" x1="25.4605" y1="156.612" x2="36.6731" y2="156.612">
			<stop  offset="0" style="stop-color:#B9539F"/>
			<stop  offset="1" style="stop-color:#5E4EA1"/>
		</linearGradient>
		<path fill="url(#SVGID_00000052794565096375739550000017218901621921859500_)" d="M36.4,158.2c-1.1,4.9-7.2,8.2-10,2.8
			c-0.9-1.7-1.1-3.8-0.7-5.8c0.5-2.4,2-4.6,4.2-5.5c2.6-1.1,5.4,0.5,6.3,3.1c0.3,0.7,0.4,1.4,0.5,2.1
			C36.7,156.1,36.6,157.2,36.4,158.2z"/>
		<path fill="#6153A3" d="M35.1,154.9c-1.3,3.5-5.7,5.6-7.9,1.6c-0.1-0.2-0.2-0.3-0.2-0.5c-0.7,1.8-0.6,4,0.2,5.6
			c2.3,4.3,7.2,1.6,8.1-2.3c0.3-1.4,0.3-2.9-0.2-4.2C35.2,155,35.1,154.9,35.1,154.9z"/>
		<path fill="#D99DC7" d="M62.3,187.8c-1.3-6,5.5-8.6,10.5-7.3c2,0.5,4,1.6,5.4,3.1c1.1,1.1,1.8,2.6,1.9,4.1c0.1-2-0.7-4-2.1-5.5
			c-1.6-1.8-3.8-3-6.2-3.5c-5.6-1.6-13.4,1.4-11.9,8.3c1.3,4.9,6.7,7.8,11.7,7.6C67.5,194.2,63.4,191.8,62.3,187.8z"/>
		<path fill="#6153A3" d="M77.6,184c-0.7-0.8-1.5-1.4-2.4-1.9c0.6,1,0.8,2.2,0.4,3.3c-1.6,5-9.3,6.7-12.8,2.7
			c-0.3-0.4-0.5-0.7-0.7-1.1c0,0.3,0.1,0.6,0.1,1c1.7,6.3,11.3,8.7,15.8,3.9C80.2,189.6,79.7,186.2,77.6,184z"/>
		<path fill="#D99DC7" d="M168,175.3c-0.4,2.3-1.9,4.4-3.7,5.9c-2.8,2.3-6.5,3.8-10.1,3.4c-2.3-0.3-4.5-1.5-5.1-3.4
			c-1.4-4.4,3-8.6,6.7-10.4c2.1-1,4.4-1.6,6.7-1.5C166,169.5,168.6,171.8,168,175.3z"/>
		
			<linearGradient id="SVGID_00000136383967377017716180000018429473367458314393_" gradientUnits="userSpaceOnUse" x1="150.6738" y1="177.0173" x2="166.2123" y2="177.0173">
			<stop  offset="0" style="stop-color:#B9539F"/>
			<stop  offset="1" style="stop-color:#5E4EA1"/>
		</linearGradient>
		<path fill="url(#SVGID_00000136383967377017716180000018429473367458314393_)" d="M166.1,175.7c-0.3,1.8-1.5,3.5-3,4.8
			c-2.2,1.9-5.2,3-8.2,2.7c-1.9-0.2-3.6-1.2-4.1-2.7c-1.1-3.6,2.4-6.9,5.4-8.4c1.7-0.8,3.6-1.3,5.4-1.2
			C164.5,171,166.6,172.8,166.1,175.7z"/>
		<path fill="#6153A3" d="M162.9,170.7c-0.8-0.1-1.6,0-2.3,0.1c1.6,0.6,2.6,2.1,2.2,4c-0.3,1.7-1.4,3.2-2.7,4.3
			c-2,1.7-4.8,2.8-7.4,2.5c-0.5-0.1-0.9-0.2-1.3-0.3c0.7,1.5,2.4,2.4,4.3,2.7c3.1,0.3,6.4-0.9,8.8-2.9c1.5-1.3,2.9-3.1,3.2-5.1
			C168.3,172.8,166,170.8,162.9,170.7z"/>
		<path fill="#D99DC7" d="M196.4,127.1c-1.6,1.4-4.4,0.4-6.1-0.6c-2.3-1.3-4.3-3.4-5.3-5.9c-1-2.4-0.6-5.4,2.5-5.5
			c2.7,0,5.1,1.8,6.8,3.7C196,120.7,198.2,124.9,196.4,127.1z"/>
		
			<linearGradient id="SVGID_00000026124510626520797070000017536783543587449788_" gradientUnits="userSpaceOnUse" x1="186.3821" y1="122.3927" x2="196.7355" y2="122.3927">
			<stop  offset="0" style="stop-color:#B9539F"/>
			<stop  offset="1" style="stop-color:#5E4EA1"/>
		</linearGradient>
		<path fill="url(#SVGID_00000026124510626520797070000017536783543587449788_)" d="M196.2,127c-1.3,1.2-3.6,0.3-5-0.5
			c-1.9-1.1-3.6-2.8-4.4-4.8c-0.8-1.9-0.5-4.4,2-4.5c2.2,0,4.2,1.5,5.6,3C195.9,121.7,197.6,125.2,196.2,127z"/>
		<ellipse fill="#D99DC7" cx="188.4" cy="118" rx="2.1" ry="1"/>
		<path fill="#6153A3" d="M195.5,121.5c0,0.6-0.2,1.1-0.5,1.6c-1.4,1.2-3.7,0.3-5.1-0.5c-1.3-0.8-2.5-1.8-3.4-3
			c-0.1,0.7,0.1,1.6,0.4,2.3c0.8,2.1,2.5,3.8,4.4,4.9c1.5,0.8,3.7,1.7,5.1,0.5C197.5,125.7,196.6,123.2,195.5,121.5z"/>
		<path fill="#FFFFFF" d="M75.3,74.9c2.9-3.2,7-2.3,7-2.3s2,1.6,5.1,1.1c3.2-0.5,3.8-3.6,2.8-5.2c0,0,3.4-4.8,5.6-2.6
			c2.2,2.3,0.9,10.6-7.4,12.9C81.2,80.7,75.4,78.6,75.3,74.9z"/>
		<path fill="#FFFFFF" d="M39.1,79.4c3.4,2.4,5.8,2.7,6.8,2c1-0.6-1.3-2,1.2-2s4.1,5.9,2.7,8.8C48.3,91,40.2,86.7,39.1,79.4z"/>
		<path fill="#FFFFFF" d="M207.9,126.9c-10.4-14.6-31.7-20.7-43.7-23c-0.1-0.7-0.2-1.5-0.3-2.2c0-0.1,0-0.2-0.1-0.3
			c2.9,0.2,5.7,0.9,8.5,1.6c9.8,2.5,19.7,6.4,27.4,13.1c0,0,0.3,0.4,0.6,0.5c0.2,0.2,0.4,0.4,0.6,0.6
			C204,120.1,206.4,123.4,207.9,126.9z"/>
		
			<ellipse transform="matrix(0.992 -0.1264 0.1264 0.992 -22.5284 9.9671)" fill="#D99DC7" cx="67.3" cy="182.5" rx="4.3" ry="2.6"/>
		
			<ellipse transform="matrix(0.8742 -0.4857 0.4857 0.8742 -65.6374 97.4245)" fill="#D99DC7" cx="155.2" cy="175.4" rx="4.1" ry="2.3"/>
		<path fill="#FFFFFF" d="M46.3,72.6c0.9,1.1,1.1,2.4,0.4,3c-0.7,0.6-2,0.2-2.9-0.9c-0.9-1.1-1.1-2.4-0.4-3S45.4,71.5,46.3,72.6z
			 M85.1,64.2c1.1,0.9,3.1,0.3,4.5-1.4c1.4-1.7,1.6-3.8,0.6-4.7c-1.1-0.9-3.1-0.3-4.5,1.4C84.3,61.2,84,63.3,85.1,64.2z"/>
		<path fill="#F8C9D5" d="M69.5,60.6c0.3-4,2-13.5,7.1-14c5.1-0.6,3.5,4.4,1.6,6.6c-1.9,2.3-5.4,5.5-7.3,10.2
			C70.9,63.4,69.2,64.6,69.5,60.6z M83,44.8c-1.9-0.2-3.1,1.6-0.9,3.5s4.3,1.8,4.9,0.7C87.4,48.3,86.8,45.3,83,44.8z"/>
		<path fill="#8E8FA9" d="M114.8,90.2c-7.8,6.7-16.5,12.4-21.6,11c-0.3,0.2-0.5,0.4-0.8,0.6c-1.1,0.9-2.3,1.6-3.5,2.3
			c-0.5,0.3-1.1,0.5-1.7,0.6c0.3,0.9,0.5,1.8,0.6,2.7c1.5-0.2,3-0.6,4.5-1c4.6-1.5,9.1-3.9,13.3-6.4c3.7-2.3,7.2-4.8,10.4-7.6
			C115.6,91.6,115.2,90.9,114.8,90.2z M134.7,61.6c-0.1-1-0.1-1.9-0.7-2.6c-0.2-0.1-0.6-0.1-0.9,0c-0.1,0-0.1,0-0.2,0.1
			c-0.2,0.4-0.4,0.8-0.6,1.1c-0.3,1-0.6,1.9-1,2.9c3.5,3.7,0.7,10.8-9.6,20.8c-0.2,0.2-0.5,0.5-0.7,0.7c0.3,0.5,0.7,1,1,1.7
			C128.2,79.2,135,69.3,134.7,61.6z M136.8,72.4c-0.5,1.1-1,2.3-1.7,3.4c0.1,0.5,0.2,1.1,0.1,1.7C135,80,127.8,87.8,122,94
			c-5.9,6.2-12.6,9.6-18.1,11.9c-5.4,2.2-8.6,0.8-4.7-1c-3,1.3-6,2.6-8.9,3.7c-0.8,0.3-1.6,0.6-2.4,0.9c0,0,0,0,0,0
			c0,0.8-0.1,1.6-0.3,2.3c7.5-0.1,14.9-2.6,21.4-6.4c8.2-4.7,15.2-11.2,21.1-18.5c3-3.5,5.5-7.5,8.3-11.2
			C138.1,74.6,137.6,73.4,136.8,72.4z"/>
		<path fill="#8E8FA9" d="M122.5,114.3c-0.7-0.1-1.6-0.2-2.6-0.5c-6.2-1.7-5.1-6.9-5.9-2.8c-0.3,1.6,0.2,2.6,0.8,3.6
			c3.2,1.4,4.9,5,8,5.6c2.3,0.5,4.2,0,5.4,1.8c0.1-0.9,0.1-1.9,0.2-2.8C126,117.9,124,116.2,122.5,114.3z M86.8,113.8
			c-0.7,1.3-1.6,2.5-2.5,3.6c-0.4,0.6-1,1.2-1.4,1.8c1.9-0.9,4-1.8,6.2-2.3c-0.4-1.2-0.2-2.6,0.8-3.6
			C89,113.5,87.9,113.6,86.8,113.8z"/>
		<path fill="#8E8FA9" d="M62.1,149.2c-3.3,2.9-6.5,4.3-9.3,4.2c-1.8-0.1-3.5-0.6-4.9-1.5c3.2,0.8,6,0.5,6.8-0.6
			c1.7-2.3-3.3-2.4-5.7-4.8c-2.4-2.4,0,0.6,3.6-1c1.5-0.7,1.3-2.8,0.9-4.5c1.8-1.1,3.1-2.8,3.8-5.2c0,1.3,0.2,2.5,0.5,3.7
			C58.5,143.2,60,146.5,62.1,149.2z"/>
		<path fill="#52A4DB" d="M56.6,133.9c-0.9,3.8-3.3,6.7-7.5,6.3c-0.7-0.1-1.5-0.2-2.2-0.4c0.7-0.3,1.2-0.8,1.4-1.4
			c0.5-1.3,3.4,0.2,5.6-2.7c0.6-0.3,1.1-0.6,1.6-0.9C55.8,134.6,56.2,134.3,56.6,133.9z"/>
		<path fill="#D6B13A" d="M104.2,128.3c-0.1-0.9-0.2-1.6-0.5-2.4c-0.3,0.4-0.6,0.6-1.2,0.4c-1.6-0.5-1.4-3.7-7.5-5.5
			c-6.1-1.8-8.6,2-10.9,2.8c-1.3,0.4-2.2,0.3-3.1,0c-0.5,0.3-1,0.7-1.4,0.9c0.9,0.5,2.1,0.4,3.1,0.4c1.8-0.2,2.7-1.2,4.5-2.3
			c1.6-1,3.5-1.4,5.3-1.3c4.2,0.1,7.3,2.6,9.3,6.2c0.4,0.7,0.7,1.4,1,2.1c0.6-0.4,1.1-0.8,1.6-1.3L104.2,128.3z M95.8,129.3
			c0.9,0.8,1.6,1.7,2.2,2.7c1.2-0.4,2.3-0.9,3.4-1.5c-0.3-0.7-0.7-1.4-1.1-2.1C99.6,129.2,97.6,129.6,95.8,129.3z M92.3,131.4
			c-1-0.6-2.1-1.8-2.4-2.5c-0.5,0.2-1.1,0.4-1.6,0.6c1.8,0.9,3.4,2.3,4.6,3.9c1.2-0.3,2.5-0.6,3.8-1c-0.3-0.4-0.7-0.9-1.1-1.3
			C94.7,131.4,93.3,132.1,92.3,131.4z M83.7,129.3c1.8-0.9,3.5-1.8,5.2-2.7c1.6-0.8,3.1-1.8,5-1.8c0.2,0,0.4,0.1,0.6,0.1
			c-0.2-0.3-0.5-0.5-1-0.7c-1.9-0.6-5,1.7-7.6,3c-2.6,1.3-4.1,2-5.9,2.1c-1.8,0.2-4-1.5-3.6-0.7C78.4,131.1,81.4,130.6,83.7,129.3z
			 M86.2,130.3c-0.6,0.2-1.3,0.4-1.9,0.6c-0.7,0.2-1.4,0.4-2.1,0.5c-2.2,1.6-5.3,2.1-7.9,1.3c-2.3-0.7-4.3-2-5.5-3.9
			c0,0.9,0.3,2.2,1.6,3.2c2.4,2,8.2,1.2,6.1,2c-1.7,0.6-5.2,0.4-8.2-1.5c0.3,0.6,0.6,1.2,0.9,1.5c6.1,1.4,14.7,0.7,20.4-0.1
			c-0.3-0.6-0.7-1.2-1.1-1.7C87.8,131.5,87.1,130.8,86.2,130.3z M74.8,131c1.6,0.7,3.4,0.8,5,0.3c-0.5-0.1-1.1-0.3-1.5-0.6
			c0.2,0.4-0.1,0.5-1.5,0.1c-2.8-0.8-4-3.5-4.5-5.1c-0.6-0.2-1.3-0.4-2-0.6C70.2,127.9,72.3,130,74.8,131z"/>
		<path fill="#52A4DB" d="M149.8,85.7c-0.1,0-0.1-0.1-0.2-0.1c-2-0.1-4,0-5.9,0.4c-0.1,0.6,0.4,0.9,1,1.3c1.8-0.4,3.7-0.7,5.6-0.7
			L149.8,85.7z M125.1,109.4c-0.2,0.1-1.2,0.4-2.4,0.4c0,0.1,0.1,0.1,0.1,0.1c1.4,2.2,3.3,4,5.5,5.3c0-0.5,0-1.1,0-1.6
			C127,112.4,125.9,111,125.1,109.4z M127.6,95.8c-1.6,2.4-2.6,5.2-2.2,8.1c0.2,2.5,1.2,5,2.7,7.1c-0.1-1.7-0.3-3.4-0.7-5.1l0-0.1
			l0,0l0.1,0.1l-0.3-1.6c0.1-0.3,0.1-0.4,0.2-0.7c0.6-1.9,1.4-3.7,2.4-5.5C129.3,96.8,129.1,95.4,127.6,95.8z M116.7,88.5
			c0.5,0.6,0.9,1.3,1.2,2.1c0.7-0.7,1.5-1.5,2.3-2.4c-0.3-0.7-0.7-1.4-1-1.9C118.5,87,117.7,87.7,116.7,88.5z"/>
		<path fill="#88449A" d="M117.6,147.1c-0.6,1.6-1.8,3.3-4.4,4.2c-5.8,2.2-16.2-3.8-16.2-3.8s0,0,0,0c0,0,0,0.1,0,0.2
			c0.1,0.3,0.4,0.8,0.9,1.2c1,1,2.5,1.8,3.8,2.3c3,1.4,6.1,2.7,9.3,3.8c-1,0.1-2,0.2-3,0.1c1,1.6-3.3,4.7-9.8,5.3
			c-7.4,0.7-12-0.7-15.3-5.5c-2-2.9-2.7-4.4-3.7-5.1c-1.4,2.4,0.4,5.3,2,7.1c1.9,2.1,4.6,3.6,7.3,4.4c0.5,0.1,0.9,0.2,1.3,0.4
			c1.8,0.9,3.8,1.3,5.8,1.5c4.3,0.4,8.7-0.6,12.5-2.5c1.6-0.8,3.2-1.7,4.9-2.4c0.5-0.2,1.2-0.4,1.9-0.4c0.8-0.5,3-2.3,3.3-6.7
			C118.5,149.7,118.2,148.2,117.6,147.1z"/>
		<path fill="#D99DC7" d="M36.6,155c-0.1-0.7-0.2-1.4-0.5-2.1c-0.9-2.6-3.6-4.2-6.3-3.1c-2.3,0.9-3.7,3.1-4.2,5.5
			c0.7-1,1.7-2,3.1-2.5c-0.1,0.2-0.2,0.4-0.2,0.6c0,0.8,1.1,1.5,2.5,1.5s2.5-0.7,2.5-1.5c0-0.3-0.2-0.6-0.5-0.9
			C34.7,152.8,35.9,153.9,36.6,155z"/>
		<path fill="#6153A3" d="M178.3,211.3c0.4,1.1,0.7,2.3,0.9,3.5c1.4-1.9,2.3-4.1,3-6.4C180.9,209.4,179.6,210.4,178.3,211.3z
			 M163.3,220.6c2.2,0.4,4.4,0.3,6.6-0.2c-0.9-0.6-1.8-1.3-2.5-2C166,219.1,164.7,219.9,163.3,220.6z M124.6,236.8
			c2.6-0.9,4.9-2.5,7-4.4c-2,0.5-3.9,0.9-5.9,1.2C125.5,234.9,125.2,235.9,124.6,236.8z M108,235.5c1.8,0.8,3.8,1.4,5.8,1.8
			c-0.5-0.6-0.9-1.3-1.3-2C111,235.4,109.5,235.5,108,235.5z"/>
		<path fill="#6153A3" d="M60.8,231.6c-0.1-0.1-0.2-0.2-0.3-0.3c-1.5-1.2-2.7-2.9-3.5-4.7l0.2-0.1c1.1,0.5,2.2,0.9,3.2,1.3
			C60.4,229,60.4,230.3,60.8,231.6z"/>
		<path fill="#6153A3" d="M75.3,232.5c-2.4,1.4-5.2,2-8,1.6c1.1-0.8,2.1-1.9,2.9-2.9C71.9,231.7,73.6,232.1,75.3,232.5z"/>
		
			<linearGradient id="SVGID_00000160181378862952692170000003078837402725763989_" gradientUnits="userSpaceOnUse" x1="127.841" y1="214.826" x2="132.7333" y2="236.1567">
			<stop  offset="0" style="stop-color:#00A6B8"/>
			<stop  offset="1" style="stop-color:#632A80"/>
		</linearGradient>
		<path fill="url(#SVGID_00000160181378862952692170000003078837402725763989_)" d="M199.3,186.8c-2.7,3.5-5.7,6.7-8.9,9.7
			c-19,17.8-43.9,28.9-69.5,32.8c-1.9,0.2-4.5,0.6-6.4,0.8c-2.2,0.1-4.9,0.4-7.1,0.5c-3.3,0.2-8,0.2-11.4,0.1l-5.7-0.4l-5.7-0.6
			c-1.9-0.3-3.8-0.6-5.6-0.9c-3.3-0.6-8-1.7-11.1-2.6c-1.2-0.4-3.6-1.1-4.8-1.5c-4.1-1.4-8.1-3-12-4.9c1.7,0.4,3.4,0.7,5.1,1
			c9.3,1.5,18.9,2.3,28.6,2.2c0,0,0,0,0,0c7.2,1.8,18.2,3.6,33.7,3.4c19.6-0.2,35.2-10.9,44.5-19.2c7.1-2.9,13.9-6.2,20.4-9.9
			C188.6,194.5,194.1,190.9,199.3,186.8z"/>
		
			<ellipse transform="matrix(0.217 -0.9762 0.9762 0.217 -144.6408 175.0194)" fill="#48C2C9" cx="36.8" cy="177.7" rx="7" ry="2.8"/>
		<path fill="#FFFFFF" d="M114.8,90.2c-3,2.1-5.8,3.9-8,4.9c-6.4,3.1-0.5-3.6-0.5-3.6s2.4-1.4,5.8-4C113,88.1,114,89,114.8,90.2z"/>
		<path fill="#FFFFFF" d="M119.2,86.3c0.1,0.1,0.1,0.2,0.2,0.3c-0.8,0.7-1.7,1.4-2.5,2.1c0-0.1-0.1-0.1-0.1-0.2
			c-0.8-1.1-1.7-1.9-2.5-2.5c0.9-0.7,1.8-1.5,2.7-2.3C117.5,84.2,118.4,85.1,119.2,86.3z"/>
		<path fill="#FFFFFF" d="M128.9,75.2c-1.5,3.2-4.4,6.6-7.7,9.7c-0.1-0.1-0.1-0.2-0.2-0.3c-0.8-1.1-1.6-2-2.4-2.7
			c1.6-1.5,3.2-3.2,4.7-5c7.5-9,7.9-11.7,7.9-11.7S132.5,67.2,128.9,75.2z"/>
		<path fill="#FFFFFF" d="M141.4,139.2c0,0-1.4-2.2-6.9-2.4s-9.4,1.1-9.2,1.4c0.2,0.4,3.7,1.6,5.7,3.9c2,2.3,2.2,2.9,2.6,2.6
			s-1.3-3.4-0.7-4.4s3.1-2.3,6.4-1C142.6,140.7,143.5,141.4,141.4,139.2z"/>
		<path fill="#FFFFFF" d="M133.7,131.8c0,0,4.3-3,8.2-2.5c4,0.5,6.8,2.6,6.8,3.7c0,1.1-3-0.6-7.3-1.6
			C137.2,130.4,134.5,131.9,133.7,131.8z"/>
		<path fill="#FFFFFF" d="M145,92.3c0,0-4.1,0.6-7.8,4.3c-3.7,3.6-4.8,7.6-4.8,7.6s1.2,2.3,1.6,7.3c0.4,5-0.1,10.5-0.1,10.9
			c0,0.4,2.7-1.6,6.1-1.6c3.4,0,7.1,0.5,7.2,0.4c0.1-0.1-2.7-2.2-6.2-2.5c-3.5-0.2-4.8-1.6-4.8-4.1c0-2.7,1.8-4.1,3.8-6
			c2.1-1.9,3.2-3.6,3.1-3.5c-0.1,0.1-3.2,1.8-5.6,1.3c-2.3-0.4-1.1-4.6,1.6-8.2C141.8,94.7,145,92.3,145,92.3z"/>
		<path fill="#FFFFFF" d="M105.6,104.7c3.5-0.9,8.5-4.1,11.9-7.2c3.4-3,4-4.3,2.7-3.5c-1.3,0.8-4.9,3.6-10.3,6.4
			c-5.4,2.8-9.3,4.2-8.4,4.9C102.4,105.9,103.4,105.2,105.6,104.7z"/>
		<path fill="#FFFFFF" d="M111.6,107.5c0,0-10.6,5.2-15,5.8c-4.4,0.7-2.9,1.6,1.5,2.3c4.4,0.6,13.3-2.6,13.5-2.9
			S110.7,110.1,111.6,107.5z"/>
		
			<ellipse transform="matrix(0.9316 -0.3634 0.3634 0.9316 -26.336 62.7297)" fill="#FFFFFF" cx="153.6" cy="101.4" rx="1.1" ry="1.8"/>
		<path fill="#F8C9D5" d="M119.4,52.7c2.2,0,0.6-5.8,6-10.5s8.1-6,7.2-6.7c-1-0.7-7.2,2.2-11,8.5C117.8,50.4,119.4,52.7,119.4,52.7z
			"/>
		<path fill="#E875AD" d="M87.7,82.7c-3.2,0.5-7.3,2.2-6,3.8c1.3,1.6,9.8,0,11.5-1.6C95,83.3,91.3,82.2,87.7,82.7z"/>
		<ellipse transform="matrix(0.9778 -0.2096 0.2096 0.9778 -17.8903 13.43)" fill="#E875AD" cx="54.4" cy="91.1" rx="2.2" ry="1"/>
		<path fill="#D99DC7" d="M66.1,233.7c0,0-3.7-1-4.4-1.8c-0.7-0.9-0.4-2.1,0-1.9c0.4,0.2,5.9,1.6,6.1,2.3
			C68,232.9,66.5,233.8,66.1,233.7z M114.5,237c0.2,0,2.1,0.6,5.3,0.5c3.2-0.2,4.5-0.9,4.5-0.9s0.7-0.8,0.4-1.3s-2.2,0.4-5.1,0.8
			s-5.8,0.2-5.9,0.3S114,236.9,114.5,237z M169.9,219.9c0.2,0,3.3-0.4,6-2.2c2.7-1.9,2.9-2.9,2.9-2.9s0.2-1.4-0.5-1.5
			c-0.7-0.1-2.8,3.5-5.7,4.6c-2.9,1.1-3.9,0.9-3.9,1.2C168.7,219.4,169.9,219.9,169.9,219.9z"/>
		<path fill="#FFFFFF" d="M218.6,148.4c-1.3-5.4-3.4-8.7-5.3-10.6c0-0.9,0-1.8-0.1-2.7c-0.2-3-1-6-2.2-8.7c3.1,3.3,5.6,7.2,6.8,11.6
			C218.8,141.5,219,145,218.6,148.4z"/>
		<path fill="#F8C9D5" d="M99.9,146.6c-1.3,0.7,3.7,0.8,8.5,1.3s5.2-0.8,3.7-1.2C110.5,146.2,103.9,144.4,99.9,146.6z"/>
	</g>
</g>
</svg>
