<svg width="309" height="332" viewBox="0 0 309 332" fill="none" xmlns="http://www.w3.org/2000/svg">
<g clip-path="url(#clip0_12_511)">
<path d="M117.167 0C103.549 0 87.366 4.79223 73.869 12.8378C57.2812 22.6112 45.6603 39.8767 40.2615 62.7444C39.6137 65.2958 39.0333 67.8606 38.4664 70.331C38.318 70.9654 38.1695 71.6134 38.0345 72.2479C34.2824 77.6611 33.675 85.2071 36.5094 92.2807C37.1302 93.8061 37.8321 95.1426 38.6554 96.317C38.8309 100.961 39.9511 105.591 41.9757 110.032C40.7609 110.14 38.4664 110.532 36.064 111.949C33.1216 113.69 29.5179 117.268 29.0455 124.436C28.9511 125.88 29.302 127.311 30.0173 128.526C29.5449 128.715 29.086 128.958 28.6676 129.255C21.4062 134.25 21.8112 142.727 21.8786 143.686V143.713C22.0811 146.291 23.6737 148.572 26.0087 149.652C30.7327 151.839 36.3609 154.188 42.7585 156.632C42.9204 157.428 43.1229 158.17 43.3388 158.845C41.8542 161.721 40.491 165.825 41.3143 170.401C41.0983 172.048 41.0174 173.533 41.1523 175.125C34.4038 181.119 29.0185 187.059 24.767 193.214C23.9437 193.957 23.0934 194.969 22.0136 196.252C20.6504 197.858 19.0173 199.87 17.8295 201.341L17.3976 201.867C16.6688 202.677 15.5351 204.054 14.9007 204.864C5.14238 216.906 -0.0134706 229.919 2.64314e-05 242.527C0.0135234 256.283 6.23563 268.905 17.978 279.056H17.9915L18.005 279.083C27.3719 287.048 38.8309 293.109 52.9892 297.604C57.3352 300.803 62.0862 303.76 67.1745 306.419C68.2273 312.953 72.0334 318.892 77.5267 322.402C80.6715 324.44 84.3157 325.79 88.6617 326.519H88.7157L88.7697 326.533C90.1869 326.735 91.6041 326.843 92.9943 326.843C95.7746 326.843 98.447 326.425 100.957 325.615H100.998L101.038 325.588C104.318 324.467 107.301 322.713 109.785 320.418C117.626 321.768 125.643 322.578 133.688 322.807C134.889 323.833 136.225 324.818 137.669 325.75H137.683L137.696 325.777C144.094 329.854 151.612 332 159.426 332C160.115 332 160.803 331.987 161.491 331.946C170.399 331.528 179.173 326.735 184.922 319.122C185.692 318.109 186.38 317.124 186.987 316.138C196.584 313.425 205.978 309.942 214.98 305.758C218.53 307.445 222.552 308.336 226.763 308.336C230.488 308.336 234.321 307.634 237.83 306.311C247.589 302.828 254.364 293.635 255.08 282.89C255.161 281.81 255.188 280.784 255.161 279.785C265.742 270.39 274.286 260.009 280.589 248.872C297.501 233.645 306.989 217.378 308.811 200.504V200.477V200.45C309.837 189.786 306.706 178.554 300.24 169.631C297.379 165.717 293.937 162.058 290.266 159.048C285.326 154.89 279.847 151.664 274.556 148.559L274.029 148.249C272.734 147.425 258.103 138.246 249.546 135.006C244.997 133.278 240.111 131.766 234.591 130.403C232.661 129.917 230.717 129.498 228.828 129.093C227.222 128.756 225.67 128.418 224.144 128.054C223.956 127.406 223.767 126.758 223.578 126.137L223.551 126.042L223.524 125.948C223.375 125.529 223.24 125.097 223.105 124.679C222.538 122.937 221.89 120.953 220.352 118.942L220.325 118.901L220.298 118.861C218.152 116.188 215.358 114.244 211.97 113.083L210.31 110.086C209.554 108.709 208.326 107.589 206.882 106.941C206.774 106.887 206.652 106.833 206.517 106.765C206.288 106.617 206.045 106.495 205.802 106.374C202.873 104.619 201.888 101.987 201.793 101.73C201.024 99.2463 198.986 97.3429 196.462 96.7355L195.288 96.452C194.451 94.4406 193.331 92.5777 191.981 90.9038C192.278 89.4729 192.481 88.0555 192.589 86.6785V86.53L192.602 86.3816C192.683 82.0888 192.481 77.1616 188.958 73.0443C188.755 72.8148 188.553 72.5988 188.337 72.3829C190.51 67.0642 191.981 61.9345 192.818 56.7913V56.7643V56.7373C193.52 52.053 193.466 47.7468 192.669 43.913C192.508 43.157 192.251 42.1176 191.698 40.9837L191.657 40.9027L191.617 40.8217C189.484 36.7989 185.773 34.585 181.143 34.585C179.2 34.585 177.107 34.963 174.853 35.746C168.915 26.256 161.356 18.062 152.934 12.0008C142.812 4.67073 131.96 0.688461 120.663 0.107994C119.529 0.0404977 118.342 0 117.167 0Z" fill="#333333"/>
<path d="M174.8 64.9313C168.672 66.4567 167.309 74.6912 167.147 80.1584C165.73 73.2873 166.283 63.7569 173.814 60.6925C176.622 60.1391 177.566 64.1888 174.8 64.9178V64.9313Z" fill="#18003B"/>
<path d="M129.261 121.277C127.29 121.898 124.941 122.478 123.592 124.179C124.024 121.79 126.008 119.981 127.641 118.294C129.868 116.39 132.054 120.467 129.247 121.291L129.261 121.277Z" fill="#18003B"/>
<path d="M214.359 137.436C210.985 123.072 194.586 127.149 197.191 140.878C199.917 154.431 216.816 152.042 214.359 137.436ZM206.963 145.09C201.631 145.387 199.553 135.019 204.587 133.224C209.716 132.346 211.903 144.037 206.963 145.09Z" fill="#18003B"/>
<path d="M296.218 172.75C289.969 163.921 280.683 157.954 271.451 152.69C271.451 152.69 256.186 143.038 247.791 139.852C238.829 136.275 229.395 134.695 220.082 132.333C218.435 124.962 216.384 118.874 208.178 117.403C208.367 116.485 206.301 113.529 205.951 112.705C205.451 111.76 204.331 111.504 203.481 110.991C196.381 106.752 198.622 103.269 195.274 101.771L191.455 100.866C190.591 97.7074 188.877 94.7781 186.488 92.5372C188.013 86.6515 189.201 77.0401 181.993 74.5697C187.73 63.7973 196.152 30.4273 172.775 42.1986C153.771 5.2242 111.013 -5.14321 76.4065 17.333C55.6346 29.3068 46.9426 52.1745 42.637 74.5967C38.1155 80.3474 39.1008 89.3109 43.6088 94.7916C43.3794 108.601 52.8812 120.508 64.3537 127.325C65.015 129.296 65.9868 131.131 67.188 132.805C57.8076 127.001 50.2223 119.792 42.7585 115.189C42.6775 115.189 34.6468 115.297 33.999 124.989C33.945 125.745 34.3094 126.488 34.9302 126.92C35.0382 127.001 44.4726 133.48 55.2837 140.581C54.4874 140.77 53.718 141.026 53.0027 141.337C51.9364 141.283 31.9474 131.671 31.475 133.588C26.0897 137.733 25.8738 144.428 28.0738 145.36C33.3916 147.83 39.8566 150.476 47.28 153.27C47.415 156.051 48.1978 158.224 48.8186 159.534C47.4554 161.572 45.188 165.852 46.3487 170.455C45.9573 173.047 45.8763 174.774 46.4972 177.218C39.8566 183.077 33.3916 189.475 28.4247 196.9C6.15467 218.256 -7.00488 252.301 21.2173 275.519C31.0971 283.916 42.907 289.491 55.2702 293.338C60.453 297.24 66.0273 300.587 71.8445 303.449C71.8715 321.133 97.3268 328.585 108.016 315.274C117.113 317.002 126.359 317.934 135.618 318.096C149.236 331.501 174.908 330.38 183.667 312.116C194.276 309.24 204.898 305.326 215.115 300.398C230.987 310.131 253.15 296.862 250.005 277.882C260.775 268.662 269.953 257.97 276.634 245.929C297.69 228.056 314.331 197.494 296.205 172.763L296.218 172.75Z" fill="#18003B"/>
<path d="M227.816 182.51C225.4 206.039 182.641 227.098 136.657 225.964C143.621 225.208 149.25 221.279 155.242 218.377C158.131 220.712 163.529 219.335 166.256 217.135C173.99 215.367 181.966 215.353 189.363 211.87C209.986 202.178 220.703 178.946 222.174 157.037C227.721 163.017 230.043 172.871 227.829 182.523L227.816 182.51Z" fill="url(#paint0_linear_12_511)"/>
<path d="M124.996 225.68C110.203 225.289 88.1218 219.538 78.8088 210.331C81.2788 209.265 83.7892 207.659 86.3267 205.526C88.9316 218.215 108.691 224.803 118.814 224.02V223.574C120.811 224.425 122.836 225.262 124.996 225.68Z" fill="url(#paint1_linear_12_511)"/>
<path d="M39.6272 199.991C25.9952 203.906 28.4652 229.973 44.3242 225.343C56.9843 220.996 54.6763 196.36 39.6272 199.991ZM49.0886 213.544C41.1119 233.172 25.6308 209.98 40.383 202.178C47.118 199.627 50.9242 208.037 49.0886 213.544Z" fill="#18003B"/>
<path d="M108.543 242.959C103.144 236.412 93.3992 233.996 85.5709 237.262C79.2544 239.814 75.3267 246.509 77.6347 253.178C84.5992 273.845 123.632 265.192 108.543 242.959ZM105.803 258.47C85.9759 275.006 65.231 237.532 96.8139 241.096C104.318 242.473 111.971 251.626 105.803 258.47Z" fill="#18003B"/>
<path d="M219.69 224.087C209.838 223.196 198.946 229.703 196.854 239.76C195.247 260.657 227.843 252.773 230.299 237.411C231.973 230.189 226.655 224.762 219.704 224.087H219.69ZM226.722 236.695C225.211 246.685 206.855 254.96 201.213 244.66C197.056 232.038 227.249 220.064 226.722 236.695Z" fill="#18003B"/>
<path d="M264.716 157.86C243.999 142.12 240.111 168.43 258.616 176.259C272.828 180.768 273.678 164.934 264.716 157.86ZM265.108 171.562C259.615 174.95 251.678 167.917 249.667 162.841C248.318 159.642 248.898 155.565 252.988 155.39C259.696 155.444 268.657 165.069 265.108 171.562Z" fill="#18003B"/>
<path d="M124.118 55.3063C122.256 60.5845 118.193 57.5337 114.468 56.8182C109.15 55.6843 103.508 56.8182 100.445 61.759C100.876 59.8826 101.713 57.9792 103.09 56.3728C105.992 51.7155 125.428 45.5599 124.118 55.3063Z" fill="#18003B"/>
<path d="M62.3292 72.5988C62.0727 73.9083 60.804 74.7587 59.4948 74.5022C56.7414 73.0848 53.1647 74.8397 51.1807 77.0401C52.004 71.8294 62.3562 66.1462 62.3292 72.5988Z" fill="#18003B"/>
<path d="M135.172 111.976C124.577 108.628 112.835 110.005 104.264 117.538C104.683 116.593 105.209 115.702 105.789 114.851C103.103 114.487 93.6556 112.233 94.4789 98.4904C96.6789 60.1661 159.359 71.5459 128.842 105.658C131.582 105.888 134.227 106.32 136.832 107.224C139.923 108.426 138.331 112.975 135.159 111.963L135.172 111.976Z" fill="#18003B"/>
<path d="M90.2948 168.052C84.5991 172.318 79.4567 180.39 78.8089 178.19C78.161 175.989 73.7745 164.488 76.3524 163.098C78.9303 161.707 90.2948 168.052 90.2948 168.052Z" fill="#00D5D6"/>
<path d="M105.803 258.483C98.6899 266.07 83.4923 262.303 80.7524 252.274C78.7009 243.013 89.2555 239.004 96.8139 241.11C99.9587 241.893 102.941 243.513 105.114 245.888C108.475 249.385 109.204 254.838 105.803 258.483Z" fill="url(#paint2_linear_12_511)"/>
<path d="M234.389 195.739C225.764 212.721 207.962 222.778 190.2 227.907C185.503 229.352 180.603 230.405 175.771 231.336C175.258 231.444 174.206 231.633 173.679 231.714C171.25 232.065 167.687 232.713 165.257 232.929C135.645 236.331 98.3796 235.724 73.4372 217.594C70.8863 215.691 68.4433 213.585 66.2163 211.29C66.5537 211.398 66.8912 211.492 67.2286 211.573C68.4838 211.897 69.7795 212.086 71.1157 212.127C71.3047 212.127 71.4801 212.127 71.6691 212.127C72.263 212.127 72.8568 212.086 73.4507 212.019C75.5562 214.368 81.2115 219.7 92.36 224.114C104.021 228.744 118.031 231.053 134.214 231.053C144.269 231.053 155.148 230.162 166.836 228.366C203.373 222.778 227.303 206.525 232.513 183.778C234.578 174.788 233.161 165.541 229.071 158.562C227.37 155.201 225.089 152.285 222.309 150.057C222.309 149.234 222.268 148.424 222.228 147.601C226.021 149.679 229.449 152.622 232.229 155.903C233.552 157.468 234.726 159.129 235.738 160.87C238.073 164.893 239.477 169.334 239.491 174.019C239.653 181.524 237.736 189.03 234.375 195.725L234.389 195.739Z" fill="#596979"/>
<path d="M143.675 168.835C143.19 167.309 142.501 165.892 141.637 164.637C141.691 164.637 141.732 164.65 141.786 164.664C142.758 165.177 143.541 165.743 143.918 166.405C144.04 167.228 143.918 168.052 143.675 168.848V168.835Z" fill="#FCEE81"/>
<path d="M168.969 199.735C168.969 201.975 168.523 204.243 167.781 206.363C167.147 208.145 166.364 209.927 165.365 211.546C164.717 212.181 163.084 213.679 161.222 214.381C162.814 212.302 164.326 209.171 164.636 204.635C165.311 194.618 157.375 189.205 153.083 187.734C152.934 187.68 152.786 187.653 152.637 187.626C152.664 187.518 152.691 187.41 152.718 187.302C153.204 187.032 153.717 186.856 154.257 186.735C156.876 186.168 159.98 187.18 161.181 187.747C161.249 187.788 161.316 187.801 161.384 187.828C161.626 187.923 161.883 187.963 162.139 187.977C164.056 188.652 165.595 190.11 166.728 191.797C168.294 194.186 168.969 196.927 168.955 199.708L168.969 199.735Z" fill="#00FFFF"/>
<path d="M168.969 199.735C168.969 201.975 168.523 204.243 167.781 206.363C167.147 208.145 166.364 209.926 165.365 211.546C164.717 212.181 163.084 213.679 161.222 214.381C162.814 212.302 164.326 209.171 164.636 204.635C165.311 194.618 157.375 189.205 153.083 187.734C152.934 187.68 152.786 187.653 152.637 187.626C152.664 187.518 152.691 187.41 152.718 187.302C153.204 187.032 153.717 186.856 154.257 186.735C157.618 187.788 162.396 190.326 164.447 196.454C165.662 200.059 167.322 200.558 168.955 199.735H168.969Z" fill="#29ABFF"/>
<path d="M94.7353 312.156C93.1427 311.711 91.577 311.252 90.0114 310.752C88.5807 310.293 87.1635 309.807 85.7463 309.294C84.3426 308.795 82.9524 308.282 81.5757 307.728C80.1046 307.148 78.6469 306.54 77.2027 305.919C77.0543 305.865 76.9058 305.798 76.7573 305.73C76.7978 305.838 76.8518 305.933 76.8923 306.041C78.0125 308.525 79.5917 310.698 81.6567 312.372C81.7917 312.494 81.9402 312.602 82.0886 312.71C83.7353 313.965 85.6653 314.923 87.8788 315.463C88.8371 315.747 89.8089 315.949 90.7807 316.071C94.6003 316.57 98.393 315.855 101.565 313.911C99.2703 313.371 97.0028 312.791 94.7353 312.156ZM169.549 315.315C168.105 315.585 166.661 315.828 165.23 316.044C164.15 316.26 162.369 316.449 161.262 316.584C158.994 316.854 155.553 317.34 153.299 317.461C152.786 317.502 152.286 317.542 151.774 317.583C149.776 317.745 147.792 317.866 145.781 317.947C148.264 319.027 150.883 319.837 153.542 320.35C154.675 320.566 155.823 320.728 156.983 320.836C160.979 321.349 164.69 320.89 168.091 319.635C171.56 318.366 174.705 316.3 177.499 313.641C174.826 314.262 172.181 314.802 169.536 315.288L169.549 315.315ZM240.584 285.293C235.873 288.708 230.947 291.867 225.859 294.756C224.05 295.782 222.228 296.78 220.392 297.752C223.321 298.225 226.331 298.13 229.246 297.523C231.716 297.01 234.119 296.133 236.319 294.931C238.546 293.703 240.354 291.988 241.812 289.977C243.661 287.439 244.943 284.429 245.807 281.337C244.106 282.687 242.365 284.01 240.584 285.293Z" fill="url(#paint3_linear_12_511)"/>
<path d="M234.389 195.509C225.764 212.491 207.962 222.548 190.2 227.678C185.503 229.122 180.603 230.175 175.771 231.107C175.258 231.215 174.206 231.404 173.679 231.485C171.25 231.836 167.687 232.484 165.257 232.7C135.645 236.101 98.3796 235.494 73.4372 217.365C71.5611 215.974 69.7525 214.462 68.0519 212.856C67.431 212.262 66.8237 211.668 66.2163 211.06C67.782 211.56 69.4286 211.843 71.1157 211.911C71.3047 211.911 71.4801 211.911 71.6691 211.911C72.263 211.911 72.8568 211.87 73.4507 211.803C75.5562 214.152 81.2115 219.484 92.36 223.898C104.021 228.528 118.031 230.837 134.214 230.837C144.269 230.837 155.148 229.946 166.836 228.15C203.373 222.562 227.303 206.309 232.513 183.562C234.429 175.206 233.336 166.634 229.894 159.858C228.194 156.497 225.913 153.581 223.132 151.353C222.862 151.137 222.606 150.935 222.322 150.732C222.322 149.612 222.282 148.505 222.228 147.385C226.021 149.463 229.449 152.406 232.229 155.687C233.93 157.698 235.401 159.871 236.562 162.166C238.397 165.784 239.477 169.699 239.491 173.789C239.653 181.295 237.736 188.8 234.375 195.496L234.389 195.509Z" fill="white"/>
<path d="M72.6138 216.082C97.5563 234.212 134.821 234.819 164.434 231.417C166.85 231.215 170.413 230.553 172.856 230.202C173.369 230.121 174.435 229.946 174.948 229.824C179.78 228.893 184.679 227.84 189.376 226.396C207.138 221.266 224.941 211.209 233.565 194.227C236.913 187.518 238.843 180.026 238.681 172.52C238.681 167.566 237.088 162.868 234.51 158.67C233.808 157.644 233.053 156.645 232.256 155.7C229.476 152.42 226.048 149.477 222.255 147.398C222.295 148.289 222.322 149.193 222.336 150.084C224.563 151.88 226.466 154.121 228.018 156.659C232.918 163.8 234.753 173.816 232.526 183.562C227.316 206.309 203.386 222.562 166.85 228.15C155.161 229.946 144.269 230.837 134.228 230.837C118.045 230.837 104.035 228.528 92.3734 223.898C81.2249 219.484 75.5697 214.152 73.4641 211.803C72.8703 211.87 72.2629 211.911 71.6825 211.911C71.4936 211.911 71.3046 211.911 71.1292 211.911C69.6715 211.857 68.2543 211.627 66.8911 211.249C68.7132 212.991 70.6298 214.611 72.6408 216.096L72.6138 216.082Z" fill="#778FB3"/>
<path d="M232.242 155.687C229.462 152.406 225.237 148.748 221.445 146.669C221.485 147.56 221.499 148.559 221.512 149.463C221.58 149.517 222.444 150.192 222.511 150.246C222.619 150.341 222.727 150.422 222.835 150.516C223.078 150.719 223.307 150.935 223.537 151.137C223.631 151.232 223.726 151.313 223.82 151.407C224.131 151.704 224.428 152.001 224.711 152.312C224.779 152.393 224.846 152.474 224.927 152.541C225.143 152.784 225.372 153.027 225.575 153.284C225.683 153.405 225.791 153.54 225.899 153.675C226.074 153.891 226.25 154.121 226.425 154.35C226.52 154.485 226.628 154.607 226.722 154.742C226.965 155.079 227.195 155.417 227.424 155.754C227.505 155.889 227.599 156.024 227.68 156.159C227.788 156.335 227.896 156.497 228.004 156.672C228.396 157.239 228.76 157.846 229.111 158.454H234.321C233.673 157.509 232.971 156.591 232.229 155.714L232.242 155.687Z" fill="#596979"/>
<path d="M134.619 230.837C134.214 231.539 133.809 232.254 133.391 232.997C136.549 233.064 139.694 233.051 142.812 232.97C143.162 232.146 143.486 231.35 143.797 230.567C140.665 230.729 137.602 230.823 134.619 230.823V230.837Z" fill="#596979"/>
<path d="M238.627 171.035C238.6 170.684 238.573 170.347 238.532 169.996C238.532 169.955 238.532 169.901 238.519 169.861C238.478 169.456 238.411 169.064 238.343 168.659C238.343 168.605 238.33 168.551 238.316 168.497C238.249 168.119 238.181 167.755 238.1 167.377C238.1 167.35 238.1 167.323 238.087 167.282C237.898 166.445 237.668 165.622 237.398 164.812C237.128 163.989 236.818 163.179 236.467 162.382L231.041 162.355C232.931 167.08 233.768 172.466 233.363 177.96L238.303 179.04C238.37 178.527 238.424 178.014 238.478 177.488C238.478 177.434 238.478 177.38 238.492 177.339C238.532 176.88 238.573 176.421 238.6 175.962C238.6 175.868 238.6 175.773 238.613 175.679C238.64 175.26 238.654 174.842 238.667 174.41C238.667 174.302 238.667 174.181 238.667 174.073C238.667 173.56 238.667 173.033 238.667 172.52C238.667 172.129 238.654 171.724 238.627 171.332C238.627 171.238 238.627 171.13 238.613 171.035H238.627Z" fill="#596979"/>
<path d="M125.211 230.58C118.206 230.175 111.674 229.284 105.614 227.921C104.736 228.393 103.859 228.879 102.968 229.365C107.989 230.553 113.145 231.417 118.355 231.998C118.436 231.998 118.53 232.011 118.611 232.025C119.408 232.119 120.217 232.2 121.014 232.268C121.108 232.268 121.203 232.281 121.297 232.295C122.12 232.376 122.944 232.443 123.767 232.511C124.253 231.836 124.739 231.188 125.198 230.58H125.211Z" fill="#596979"/>
<path d="M75.1241 217.81C75.745 218.215 76.3793 218.62 77.0002 218.998C77.2701 219.16 77.5266 219.322 77.7965 219.484C78.3229 219.794 78.8493 220.105 79.3757 220.402C79.7806 220.631 80.199 220.861 80.6039 221.077C80.6714 221.117 80.7523 221.158 80.8198 221.198C81.6836 221.657 82.5609 222.116 83.4517 222.548C84.2346 222.035 85.0714 221.522 85.9622 220.996C78.9572 217.351 75.0971 213.652 73.4505 211.803C72.8566 211.87 72.2492 211.911 71.6689 211.911C71.4799 211.911 71.291 211.911 71.1155 211.911C69.6578 211.857 68.2406 211.627 66.8774 211.249C67.1879 211.546 67.5118 211.83 67.8222 212.127C68.0382 212.329 68.2541 212.532 68.4836 212.721C68.767 212.977 69.0505 213.22 69.3474 213.463C69.6443 213.72 69.9548 213.976 70.2652 214.233C70.4946 214.422 70.7241 214.611 70.9535 214.786C71.5069 215.232 72.0738 215.664 72.6407 216.082C73.3425 216.595 74.0578 217.081 74.7732 217.567C74.8947 217.648 75.0161 217.729 75.1376 217.81H75.1241Z" fill="#596979"/>
<path d="M234.469 192.31C234.672 191.865 234.861 191.406 235.05 190.947C235.077 190.866 235.117 190.798 235.144 190.717C235.603 189.583 236.035 188.422 236.413 187.261L232.053 185.358C228.693 197.521 219.839 207.74 206.504 215.34C207.448 216.298 208.407 217.243 209.338 218.188C209.945 217.851 210.553 217.5 211.147 217.135C211.187 217.108 211.228 217.081 211.282 217.054C211.875 216.69 212.483 216.325 213.063 215.947C214.278 215.178 215.466 214.368 216.626 213.517C216.653 213.504 216.667 213.49 216.694 213.477C217.22 213.099 217.733 212.707 218.246 212.302C218.341 212.235 218.422 212.167 218.502 212.1C218.961 211.735 219.42 211.371 219.879 210.993C219.96 210.925 220.041 210.858 220.122 210.79C221.188 209.899 222.214 208.982 223.213 208.023C223.267 207.969 223.307 207.929 223.361 207.875C223.78 207.47 224.198 207.051 224.617 206.619C224.738 206.498 224.86 206.363 224.981 206.241C225.332 205.877 225.669 205.512 226.007 205.134C226.128 204.999 226.263 204.851 226.385 204.716C226.736 204.324 227.087 203.919 227.424 203.501C227.518 203.393 227.599 203.285 227.694 203.177C228.126 202.65 228.531 202.124 228.936 201.597C228.99 201.53 229.044 201.449 229.098 201.381C229.435 200.922 229.772 200.464 230.096 199.991C230.218 199.816 230.339 199.64 230.461 199.465C230.717 199.087 230.974 198.709 231.217 198.317C231.338 198.115 231.46 197.926 231.595 197.723C231.838 197.332 232.08 196.927 232.31 196.522C232.418 196.346 232.526 196.157 232.62 195.982C232.944 195.401 233.268 194.807 233.579 194.213C233.835 193.7 234.078 193.187 234.321 192.661C234.375 192.539 234.429 192.418 234.483 192.296L234.469 192.31Z" fill="#596979"/>
<path d="M269.062 252.22C265.418 256.904 261.369 261.264 257.05 265.327C231.392 289.369 197.852 304.286 163.259 309.645C160.722 309.969 157.199 310.401 154.648 310.725C151.679 310.914 147.994 311.292 145.039 311.373C140.544 311.589 134.187 311.589 129.612 311.441L121.918 310.928L114.252 310.104C111.701 309.726 109.164 309.308 106.626 308.916C102.213 308.079 95.8286 306.648 91.5905 305.474C89.9574 304.975 86.7181 303.989 85.1389 303.503C79.6187 301.64 74.1929 299.453 68.9561 296.902C71.2505 297.388 73.545 297.847 75.8395 298.265C88.3782 300.331 101.308 301.303 114.373 301.289C150.127 301.222 186.947 293.622 219.866 280.001C229.422 276.046 238.654 271.591 247.427 266.65C254.486 262.56 261.936 257.741 269.049 252.233L269.062 252.22Z" fill="#00D5D6"/>
<path d="M268.077 245.038C224.131 278.705 160.29 294.445 105.479 294.148C73.8015 293.905 17.9375 285.617 9.17795 249.182C6.04665 235.076 12.3767 220.834 20.9608 209.845L22.0541 208.415C22.0541 208.415 22.189 208.266 22.3645 208.064C21.4872 210.196 20.7314 212.37 20.124 214.624C20.0295 214.989 19.935 215.353 19.8541 215.718C13.1596 244.228 35.713 263.91 60.507 272.671C121.149 294.027 210.674 275.533 259.695 234.495C274.853 221.549 289.294 203.42 287.688 182.334C287.364 178.244 286.339 174.289 284.732 170.563C283.747 168.254 282.546 166.027 281.169 163.908C281.291 163.989 281.412 164.083 281.52 164.164C288.835 169.726 295.098 177.218 297.649 186.168C304.263 209.953 285.556 231.228 268.091 245.024L268.077 245.038Z" fill="#479BB1"/>
<path d="M295.004 200.369C292.831 217.729 278.618 232.916 265.162 243.54C222.349 276.343 160.128 291.678 106.734 291.394C75.8666 291.165 21.4332 283.079 12.8896 247.589C10.4197 236.479 13.9829 225.275 19.8676 215.731C13.1731 244.242 35.7265 263.923 60.5205 272.684C121.162 294.04 210.688 275.546 259.709 234.509C273.989 222.305 287.621 205.526 287.823 185.992C287.837 184.791 287.796 183.576 287.702 182.348C287.378 178.257 286.352 174.302 284.746 170.576C288.943 175.031 292.291 180.296 293.978 186.195C295.328 191.041 295.597 195.779 295.017 200.369H295.004Z" fill="#006987"/>
<path d="M19.5572 234.023C18.3154 228.407 18.3019 222.305 19.8541 215.731C13.9694 225.275 10.4197 236.479 12.8762 247.589C13.9289 251.95 15.67 255.905 17.978 259.469C14.7117 248.548 17.2222 239.355 19.5572 234.023Z" fill="white"/>
<path d="M161.329 277.585C126.21 284.024 89.9438 283.052 60.4934 272.684C52.6516 269.917 45.0258 266.043 38.4798 261.156L27.1423 269.674C47.5633 286.697 83.6947 291.232 106.707 291.408C123.97 291.502 142.15 289.963 160.29 286.724C160.628 283.659 160.978 280.595 161.316 277.585H161.329Z" fill="#004D77"/>
<path d="M277.35 215.502C272.356 222.656 266.093 229.041 259.682 234.522C250.68 242.055 240.314 248.818 229.017 254.73L237.115 261.278C247.089 256.067 256.51 250.168 265.148 243.553C273.246 237.154 281.615 229.109 287.472 219.929L277.336 215.502H277.35Z" fill="#004D77"/>
<path d="M196.57 268.486C186.771 271.793 176.649 274.507 166.404 276.613C166.364 279.569 166.31 282.579 166.256 285.617C177.985 283.281 189.646 280.244 200.997 276.464L196.557 268.486H196.57Z" fill="#004D77"/>
<path d="M210.539 263.289C207.206 264.652 203.818 265.948 200.376 267.163C202.104 269.701 203.858 272.279 205.613 274.871C209.149 273.629 212.631 272.306 216.087 270.916C214.224 268.351 212.362 265.8 210.526 263.275L210.539 263.289Z" fill="#004D77"/>
<path d="M280.575 171.251C278.524 166.607 275.379 162.193 271.074 158.157C270.804 157.9 270.52 157.671 270.25 157.414C269.94 157.28 269.454 156.753 269.467 156.726C259.061 147.655 245.807 142.417 232.54 139.002C228.774 138.07 224.954 137.152 221.054 136.842C221.067 136.963 221.108 137.085 221.121 137.193C221.297 138.192 221.445 139.191 221.58 140.189C221.648 140.729 221.729 141.269 221.783 141.823C234.065 147.358 244.174 159.831 244.35 173.695C244.633 197.656 228.882 216.217 208.056 226.112C198.851 230.607 188.836 233.577 178.808 235.548C178.066 235.71 176.284 236.034 175.582 236.196C174.935 236.277 170.939 236.938 170.184 237.046C167.741 237.465 164.002 237.829 161.519 238.126C137.035 240.394 111.242 239.935 88.0545 230.877C72.5734 224.776 58.0102 213.639 51.7476 197.777C51.3966 196.778 50.9917 195.698 50.7353 194.618C48.6972 189.853 47.631 185.398 47.1721 183.171C44.3377 185.803 41.6383 188.557 39.1144 191.446C32.8923 198.574 27.6824 206.862 25.3475 216.015C18.8689 242.284 40.1132 259.199 62.4912 267.15C114.212 285.266 184.909 272.954 232.324 247.063C249.141 237.681 265.324 225.829 275.825 209.454C283.842 196.927 285.866 183.333 280.535 171.278L280.575 171.251ZM52.5169 214.219C51.8015 218.768 49.0077 223.628 44.3377 225.343C41.0175 226.639 36.9279 225.775 34.4039 223.304C27.3585 216.555 30.5708 203.069 39.6408 199.991C48.1439 197.386 53.9206 206.619 52.5169 214.233V214.219ZM108.124 260.738C99.068 269.148 81.7109 264.841 77.6483 253.178C75.3403 246.523 79.2679 239.814 85.5845 237.262C89.4986 235.602 93.8986 235.454 97.9882 236.412C102.064 237.465 105.87 239.652 108.556 242.946C112.943 248.156 113.28 255.905 108.138 260.724L108.124 260.738ZM230.299 237.411C227.681 248.264 212.078 256.175 201.996 250.897C197.96 248.791 196.017 244.174 196.854 239.76C197.96 233.645 202.806 228.96 208.07 226.301C211.673 224.6 215.655 223.642 219.691 224.087C226.642 224.776 231.959 230.189 230.286 237.424L230.299 237.411ZM258.629 176.246C253.082 174.005 248.925 169.267 247.13 163.692C246.253 160.83 246.226 157.266 248.547 154.958C253.244 150.773 260.802 154.202 264.743 157.846C267.942 160.884 270.898 165.015 270.736 169.82C270.345 176.313 264.042 178.46 258.643 176.246H258.629Z" fill="#00D5D6"/>
<path d="M249.141 175.611C249.613 189.597 244.08 207.902 219.313 224.047C219.448 224.047 219.569 224.06 219.704 224.074C226.655 224.762 231.973 230.175 230.299 237.411C227.681 248.264 212.078 256.175 201.996 250.897C197.96 248.791 196.017 244.174 196.854 239.76C197.164 238.018 197.798 236.412 198.635 234.914C164.083 249.614 131.771 247.94 108.327 242.703C108.394 242.784 108.475 242.865 108.556 242.959C112.943 248.17 113.28 255.918 108.138 260.738C99.0814 269.148 81.7243 264.841 77.6617 253.178C75.3537 246.523 79.2813 239.814 85.5979 237.262C86.2323 236.992 86.8801 236.763 87.5415 236.574C81.4813 234.86 75.9071 232.457 71.1426 229.19C71.1426 229.19 60.9119 243.31 60.5205 266.367C61.1954 266.623 61.8837 266.88 62.5586 267.123C114.279 285.239 184.976 272.927 232.391 247.036C249.208 237.654 265.391 225.802 275.892 209.427C278.146 205.904 279.914 202.299 281.196 198.668C268.023 184.912 253.878 177.758 249.181 175.611H249.141Z" fill="url(#paint4_linear_12_511)"/>
<path d="M64.691 225.937C64.691 225.937 60.8444 224.114 56.7818 217.81C56.7818 217.81 45.9572 232.875 45.1609 258.713C48.3732 260.792 51.8014 262.627 55.3376 264.234C55.1217 245.375 64.691 225.95 64.691 225.95V225.937Z" fill="url(#paint5_linear_12_511)"/>
<path d="M31.9608 219.983C28.4111 212.856 31.8798 202.623 39.6271 199.978C39.87 199.91 40.0995 199.843 40.3289 199.789C42.8259 196.252 45.7952 193.16 49.2369 190.636C48.1572 187.464 47.5093 184.737 47.1854 183.144C44.351 185.776 41.6516 188.53 39.1277 191.419C32.9056 198.547 27.6957 206.835 25.3608 215.988C22.2969 228.407 25.4417 238.734 31.9608 247.009C30.2062 237.991 30.2062 228.636 31.9473 219.97L31.9608 219.983Z" fill="white"/>
<path d="M73.0997 179.769C69.2125 182.847 64.2321 184.264 60.1965 181.659C60.6824 181.605 61.1548 181.511 61.6137 181.416C62.3696 181.268 63.1659 181.106 64.2591 181.079C69.4015 180.998 73.0052 177.731 74.1929 174.72C74.6113 173.627 74.7598 172.547 74.6518 171.535C74.9892 171.238 75.3806 170.833 75.7856 170.306C76.2984 173.749 76.231 177.731 73.1131 179.756L73.0997 179.769Z" fill="#9279B6"/>
<path d="M76.3391 180.768C75.0973 185.844 71.912 189.813 66.1623 189.286C65.1771 189.192 64.1918 189.03 63.193 188.8C61.02 188.301 58.8875 187.477 57.0384 186.424C54.5144 185.02 52.6923 182.955 51.5721 180.552C51.5316 180.431 51.4776 180.323 51.4236 180.215C51.0457 179.337 50.7488 178.419 50.5598 177.474C51.9095 178.689 53.2997 179.445 54.3525 180.026C54.5684 180.147 54.7709 180.255 54.9598 180.363C56.0261 180.971 56.9439 181.322 57.7537 181.511C59.7243 183.792 62.6801 185.142 65.7169 185.142C68.0789 185.128 70.4139 184.399 72.5194 183.32C73.2752 182.928 73.9906 182.496 74.6789 182.037C75.2998 181.659 75.8397 181.227 76.3121 180.755L76.3391 180.768Z" fill="#00FFFF"/>
<path d="M83.7759 201.341C79.2679 205.283 75.0703 207.213 71.2912 207.065C68.8077 206.97 66.6212 206.241 64.6912 205.067C58.739 201.462 55.2838 193.714 53.4617 187.963C54.1095 188.409 54.8114 188.827 55.5537 189.178C57.7672 190.312 60.1157 191.001 62.4507 191.433C66.4053 192.256 69.712 191.838 72.2765 190.312C74.6789 188.895 76.42 186.505 77.4188 183.306C77.4728 185.007 77.7023 186.654 78.0262 188.314C78.998 193.322 80.982 197.71 83.7759 201.327V201.341Z" fill="#BFCAD6"/>
<path d="M196.206 111.193C192.602 111.666 189.039 112.584 185.678 113.987C185.408 114.109 185.125 114.23 184.855 114.338C186.812 111.922 188.634 109.425 190.213 106.752C190.415 106.387 190.618 106.023 190.807 105.658L192.953 106.171C193.493 107.4 194.505 109.276 196.219 111.193H196.206Z" fill="#BFCAD6"/>
<path d="M162.234 119.117C161.154 120.265 160.101 121.331 159.102 122.303C158.671 121.345 158.171 120.467 157.631 119.684C157.577 119.603 157.51 119.509 157.456 119.428C156.403 117.983 155.215 116.863 154.055 115.999C153.609 115.661 153.164 115.364 152.745 115.108C154.041 114.149 155.323 113.137 156.579 112.111C156.916 112.327 157.294 112.597 157.685 112.921C158.657 113.717 159.777 114.878 160.83 116.512C160.911 116.633 160.992 116.768 161.073 116.89C161.478 117.551 161.869 118.294 162.247 119.117H162.234Z" fill="#00FFFF"/>
<path d="M173.234 155.579C170.238 153.837 167.687 151.34 165.797 148.424C165.757 148.356 165.716 148.289 165.676 148.222C163.422 144.658 162.247 140.486 161.856 136.261C163.759 134.898 165.608 133.467 167.417 131.982C166.499 134.695 166.148 137.584 166.539 140.567C166.89 143.065 167.687 145.495 168.861 147.722C169.981 149.828 171.425 151.772 173.166 153.419C173.193 154.134 173.22 154.863 173.234 155.579Z" fill="#00FFFF"/>
<path d="M202.806 116.957C200.214 117.011 197.623 117.403 195.234 117.902C194.681 118.024 194.141 118.145 193.614 118.28C185.759 120.184 179.173 125.583 175.096 132.454C173.733 134.763 172.64 137.247 171.884 139.811C171.776 140.216 171.709 140.351 171.614 140.81L172.06 142.97L171.938 142.795V142.822L171.979 142.957C172.586 145.184 172.788 147.506 172.964 149.828C170.926 147.02 169.603 143.672 169.279 140.243C168.807 136.396 170.143 132.616 172.289 129.323C172.95 128.31 173.693 127.338 174.489 126.42C179.456 120.71 186.488 117.308 193.898 116.093C196.557 115.648 199.256 115.499 201.928 115.607C201.996 115.648 202.063 115.688 202.131 115.715L202.819 116.944L202.806 116.957Z" fill="#00FFFF"/>
<path d="M49.1829 144.442C48.8995 144.887 48.6565 145.36 48.4676 145.873C48.1032 146.858 47.8467 147.817 47.6578 148.734C41.4222 146.372 35.9019 144.118 31.2319 141.998C31.3804 140.864 31.8123 139.164 33.0945 137.854L49.1829 144.442Z" fill="#C7B299"/>
<path d="M103.454 165.204C103.103 165.798 102.793 166.337 102.523 166.769C98.177 165.474 87.5549 162.261 74.5168 158.062C74.1389 157.671 73.7475 157.279 73.3291 156.902C75.7586 157.36 78.9303 158.089 83.0334 159.237C84.3291 159.601 85.3144 159.547 86.0433 159.291C89.1341 160.087 92.2654 161.1 95.2482 162.126C98.0016 163.084 100.741 164.124 103.441 165.204H103.454Z" fill="#C7B299"/>
<path d="M105.331 161.842C104.993 162.477 104.629 163.125 104.278 163.759C98.852 161.491 93.4532 159.048 88.3243 156.146C88.3513 155.471 88.2299 154.661 87.8789 153.689C87.474 152.568 86.7587 151.326 85.8274 150.057C94.3305 155.363 101.538 159.628 105.331 161.856V161.842Z" fill="#C7B299"/>
<path d="M72.2359 141.377C72.1144 141.364 72.0064 141.337 71.8984 141.323C70.7647 141.053 66.7831 140.149 62.3696 139.987C51.9634 133.251 41.7597 126.312 38.4934 124.071C39.0738 120.778 40.9904 119.873 42.0836 119.617C50.1818 126.447 61.3708 134.263 72.2494 141.377H72.2359Z" fill="#C7B299"/>
<path d="M148.939 180.917C148.602 184.521 147.711 188.058 146.118 191.284C142.015 189.597 137.386 189.205 133.121 190.677C128.586 192.188 123.349 196.333 125.697 201.678C127.047 204.5 129.747 206.228 132.824 207.362C131.906 207.672 130.988 207.969 130.057 208.212C127.101 208.955 124.267 209.279 121.446 208.496C118.045 207.47 115.885 204.257 114.697 201.03C114.616 200.868 114.562 200.518 114.346 200.464C112.511 198.088 109.744 196.441 106.532 197.008C104.156 197.494 102.415 199.829 101.7 202.029C101.2 203.663 101.146 205.296 101.403 206.903C99.3243 206.43 97.3133 205.755 95.4237 204.837C89.9979 202.218 86.0028 197.426 83.9648 191.77C83.6139 190.812 83.3169 189.826 83.074 188.841C84.3427 189.543 85.6789 190.137 87.0016 190.636C91.1047 192.08 95.5317 192.863 99.8507 193.255C109.312 194.254 118.935 193.403 128.113 190.893C134.43 189.151 143.392 185.952 148.926 180.917H148.939Z" fill="white"/>
<path d="M146.942 182.55C141.408 186.654 133.742 189.34 128.127 190.879C126.372 191.365 124.591 191.784 122.809 192.135C121.918 194.726 120.096 197.305 116.466 198.547C116.466 198.547 114.252 193.984 110.392 195.496C109.434 195.874 108.61 196.36 107.908 196.9C110.527 196.94 112.767 198.439 114.347 200.464C114.549 200.518 114.616 200.869 114.697 201.03C115.521 203.258 116.803 205.485 118.652 206.984C123.983 207.618 127.304 207.146 129.369 205.674C128.329 204.81 126.318 202.934 125.711 201.692C123.362 196.346 128.599 192.202 133.134 190.69C136.859 189.394 140.868 189.529 144.553 190.717C146.037 187.801 146.82 184.953 146.942 182.564V182.55Z" fill="#BFCAD6"/>
<path d="M102.51 200.261C99.3783 199.883 93.696 198.938 89.0801 196.765C89.0801 196.765 92.1304 202.434 101.281 205.431C101.241 204.311 101.376 203.163 101.713 202.029C101.902 201.435 102.172 200.828 102.51 200.261Z" fill="#BFCAD6"/>
<path d="M148.291 174.936C148.264 175.125 148.264 175.301 148.278 175.49C148.183 175.692 148.075 175.881 147.954 176.084C144.593 181.389 138.007 184.804 132.297 187.207C122.944 190.987 112.646 192.782 102.577 191.905C97.6236 191.5 92.4948 190.42 88.1218 188.139C85.7733 186.816 83.5058 185.236 82.2911 182.807C82.2641 182.753 82.2371 182.699 82.2101 182.631C82.1426 182.051 82.1291 181.308 82.1561 180.566C85.9488 184.872 92.8187 186.033 98.339 186.465C110.864 187.167 131.582 185.682 141.597 177.785C144.512 175.53 147.239 172.007 147.563 168.16C148.521 169.834 148.777 172.102 148.305 174.936H148.291Z" fill="#FF0000"/>
<path d="M87.9464 179.121C87.9464 179.121 87.8519 179.081 87.8114 179.054C86.2458 178.136 85.1795 177.015 84.6396 175.53C85.112 174.869 85.7464 174.262 86.4752 173.708C86.6237 175.571 87.2311 177.461 87.9464 179.121Z" fill="#FCEE81"/>
<path d="M120.906 180.876C113.213 181.902 101.592 182.834 93.3182 180.998C92.9943 180.485 92.5624 179.769 92.117 178.919C91.739 178.203 91.3746 177.393 91.0507 176.556C90.1599 174.181 90.0519 172.372 90.6998 171.13C90.9697 170.995 91.2397 170.846 91.4961 170.711C91.4961 170.711 91.5096 170.711 91.5231 170.698C91.7795 171.818 92.2249 172.858 92.8323 173.803C94.4249 176.313 97.0974 178.149 100.229 179.04C103.805 180.134 107.881 179.526 110.891 177.299C111.877 177.191 112.848 176.961 113.753 176.637C114.603 176.394 115.453 176.124 116.29 175.827C117.491 176.502 118.531 177.42 119.394 178.514C119.961 179.243 120.474 180.026 120.92 180.849L120.906 180.876Z" fill="#FCEE81"/>
<path d="M130.556 178.784C128.856 179.324 127.115 179.742 125.454 180.107C123.821 177.893 121.675 175.962 119.192 174.801C119.907 174.532 120.623 174.248 121.324 173.978C121.77 173.803 122.202 173.641 122.647 173.465C124.118 173.816 125.549 174.383 126.818 175.22C127.344 175.557 127.843 175.935 128.329 176.354C128.491 176.489 128.653 176.637 128.815 176.799C128.829 176.813 128.856 176.826 128.869 176.84C128.964 176.921 129.045 177.015 129.139 177.11C129.666 177.636 130.151 178.203 130.57 178.811L130.556 178.784Z" fill="#FCEE81"/>
<path d="M136.886 176.111C135.456 176.934 133.903 177.609 132.311 178.19C131.515 176.853 130.516 175.652 129.369 174.613C128.37 173.708 127.249 172.939 126.048 172.318C126.318 172.264 126.588 172.237 126.831 172.25C129.058 172.142 129.288 169.307 127.614 168.565C127.371 168.457 127.088 168.389 126.764 168.389C124.199 168.511 122.175 169.82 120.002 170.873C117.64 172.129 115.318 173.398 112.943 174.558C109.798 176.246 105.762 176.934 103.306 173.722C103.859 174.99 104.71 175.881 105.749 176.475C106.383 176.826 107.071 177.083 107.814 177.218C105.573 177.839 103.13 177.717 100.998 176.799C97.6236 175.463 94.7892 172.628 94.9512 169.01C95.923 169.307 96.8138 169.577 97.6371 169.82C99.9046 170.509 101.592 171.008 102.537 171.292L102.658 171.332C102.658 171.332 102.698 171.332 102.712 171.346C102.968 171.413 103.198 171.454 103.427 171.454C103.94 171.454 104.386 171.265 104.817 170.887C107.274 172.52 110.5 172.453 113.253 171.805C115.588 171.197 117.478 169.483 119.34 168.214C120.96 167.093 122.782 166.648 124.712 166.675C125.468 166.675 126.332 166.756 127.088 166.877C130.718 167.566 133.499 170.198 135.442 173.33C135.996 174.221 136.495 175.166 136.913 176.097L136.886 176.111Z" fill="#FCEE81"/>
<path d="M140.882 173.128C140.234 173.776 139.518 174.37 138.763 174.923C138.358 173.951 137.899 173.02 137.372 172.088C134.673 167.336 130.475 163.908 124.78 163.773C122.31 163.597 119.732 164.191 117.626 165.514C115.278 166.931 113.982 168.308 111.593 168.592C110.243 168.7 108.624 168.74 107.423 168.106C107.949 167.728 108.597 167.309 109.326 166.85C112.713 164.718 118.018 161.896 123.106 161.356C128.356 160.803 133.188 161.964 136.333 164.556C138.061 165.973 139.275 167.782 139.964 169.969C140.288 170.968 140.49 172.034 140.598 173.182L140.868 173.155L140.882 173.128Z" fill="#FCEE81"/>
<path d="M106.329 146.48C106.221 147.655 106.559 148.68 106.856 149.571C107.071 150.206 107.26 150.813 107.233 151.272C107.166 152.028 106.478 152.825 105.749 153.675L105.546 153.905C105.06 154.485 104.494 155.201 104.089 156.038C103.819 155.876 103.549 155.714 103.265 155.552C102.941 155.363 102.604 155.16 102.267 154.958C102.388 154.62 102.55 154.256 102.752 153.878C103.549 152.379 104.75 150.422 104.871 148.505C104.925 147.952 104.871 147.317 104.79 146.764C104.737 146.426 104.548 145.967 104.467 145.643C104.102 144.779 103.508 143.848 103.252 142.957C102.631 141.148 103.157 139.002 102.725 137.017C102.456 135.735 101.565 134.601 100.539 133.804C100.013 133.332 99.4997 132.819 99.0408 132.265C99.7156 131.968 100.377 131.644 101.025 131.253C101.146 131.199 101.254 131.131 101.362 131.064C102.118 131.671 102.698 132.279 102.928 132.994C103.049 133.372 103.09 133.858 103.144 134.371C103.198 134.965 103.252 135.627 103.454 136.302C103.9 137.827 104.871 138.975 105.735 139.987C105.884 140.149 106.019 140.324 106.154 140.486C107.058 141.58 107.449 142.43 107.382 143.105C107.355 143.443 107.179 143.848 106.99 144.293C106.734 144.914 106.437 145.63 106.356 146.467L106.329 146.48Z" fill="#FCEE81"/>
<path d="M115.953 147.628C115.953 148.815 115.723 150.03 115.224 151.11C115.156 151.245 115.089 151.38 115.008 151.502C114.927 151.61 114.859 151.731 114.805 151.866C113.888 153.419 112.632 154.674 111.175 155.93C110.27 156.726 109.231 157.576 108.367 158.589C107.962 158.346 107.517 158.089 107.004 157.792C107.153 157.374 107.477 156.848 107.976 156.254C108.016 156.213 108.043 156.186 108.07 156.146L108.273 155.916C109.231 154.809 110.432 153.432 110.581 151.569C110.675 150.422 110.338 149.423 110.054 148.532C109.839 147.884 109.636 147.277 109.677 146.818C109.717 146.48 109.879 146.062 110.068 145.603C110.324 144.995 110.608 144.32 110.689 143.51C110.932 141.337 109.677 139.528 108.705 138.354C108.556 138.178 108.394 138.003 108.246 137.814C107.544 136.99 106.883 136.207 106.64 135.384C106.532 135.019 106.491 134.56 106.451 134.088C106.397 133.44 106.329 132.711 106.086 131.968C105.695 130.754 104.926 129.809 104.102 129.026C104.345 128.81 104.575 128.58 104.818 128.351C105.182 127.986 105.533 127.595 105.843 127.19C106.532 127.595 107.153 128.108 107.598 128.702C108.313 129.566 108.705 131.104 109.015 132.873C109.326 134.83 110.027 137.26 111.391 138.894C111.674 139.272 112.093 139.69 112.403 140.041C114.212 142.147 115.818 144.793 115.926 147.641L115.953 147.628Z" fill="#FCEE81"/>
<path d="M105.533 153.932C105.047 154.512 104.48 155.228 104.075 156.065C103.805 155.903 103.535 155.741 103.252 155.579C103.589 154.674 104.048 153.581 104.467 152.987C105.263 151.893 106.41 150.989 105.587 149.342C104.764 147.682 106.545 143.159 105.317 140.999C104.089 138.84 102.698 137.031 102.375 134.533C102.132 132.67 101.673 131.671 100.984 131.28C101.106 131.226 101.214 131.158 101.322 131.091C102.078 131.698 102.658 132.306 102.887 133.021C103.009 133.399 103.049 133.885 103.103 134.398C103.157 134.992 103.211 135.654 103.414 136.329C103.859 137.854 104.831 139.002 105.695 140.014C105.843 140.176 105.978 140.351 106.113 140.513C107.018 141.607 107.409 142.457 107.341 143.132C107.314 143.47 107.139 143.875 106.95 144.32C106.694 144.941 106.397 145.657 106.316 146.494C106.208 147.668 106.545 148.694 106.842 149.585C107.058 150.219 107.247 150.827 107.22 151.286C107.153 152.042 106.464 152.838 105.735 153.689L105.533 153.918V153.932Z" fill="#D5B03B"/>
<path d="M115.953 147.628C115.953 148.815 115.723 150.03 115.224 151.11C115.156 151.245 115.089 151.38 115.008 151.502C114.927 151.61 114.859 151.731 114.805 151.866C113.888 153.419 112.632 154.674 111.175 155.93C110.27 156.726 109.231 157.576 108.367 158.589C107.962 158.346 107.517 158.089 107.004 157.792C107.153 157.374 107.477 156.848 107.976 156.254C108.637 156.497 109.326 156.605 110.028 155.592C111.418 153.581 113.658 151.353 114.144 149.342C114.63 147.331 114.455 145.171 112.835 142.646C111.229 140.122 109.123 137.044 108.408 135.681C107.693 134.317 107.544 130.862 106.748 129.647C106.41 129.134 105.574 128.621 104.804 128.351C105.169 127.986 105.52 127.595 105.83 127.19C106.518 127.595 107.139 128.108 107.585 128.702C108.3 129.566 108.691 131.104 109.002 132.873C109.312 134.83 110.014 137.26 111.377 138.894C111.661 139.272 112.079 139.69 112.389 140.041C114.198 142.147 115.804 144.793 115.912 147.641L115.953 147.628Z" fill="#D5B03B"/>
<path d="M108.016 217.81C102.928 216.528 97.1918 214.057 93.5881 209.279C96.5305 210.709 99.7968 211.695 103.346 212.154C104.035 213.355 104.831 214.462 105.695 215.475C106.41 216.312 107.193 217.081 108.016 217.81Z" fill="white"/>
<path d="M164.69 116.431C164.339 115.769 163.988 115.162 163.624 114.608C163.543 114.473 163.449 114.338 163.354 114.203C162.301 112.665 161.195 111.49 160.169 110.599C159.831 110.316 159.521 110.059 159.21 109.83C167.268 102.608 173.882 94.0086 177.283 85.1531C177.782 83.8572 178.214 82.5613 178.565 81.2653C178.849 80.7659 179.119 80.2529 179.402 79.7399C179.483 79.7129 179.55 79.6859 179.618 79.6589C179.982 79.5644 180.576 79.5104 180.833 79.7129C181.588 80.6039 181.642 81.8188 181.723 83.1552C182.142 93.4956 173.072 106.927 164.663 116.444L164.69 116.431Z" fill="#BFCAD6"/>
<path d="M186.866 102.311C183.06 107.251 179.726 112.611 175.677 117.376C167.633 127.176 158.212 136.032 147.158 142.363C138.371 147.385 128.383 150.813 118.234 150.962C118.49 149.963 118.625 148.923 118.598 147.83C118.598 147.83 118.612 147.83 118.625 147.83C119.786 147.412 120.798 147.007 121.878 146.588C125.873 144.982 129.936 143.308 133.944 141.539C134.052 141.485 134.16 141.431 134.282 141.391C134.538 141.269 134.808 141.161 135.064 141.04C137.926 139.757 140.76 138.421 143.514 137.031C147.428 134.992 151.679 132.805 155.377 130.403C165.082 124.328 176.136 113.906 182.479 102.338C183.316 100.826 184.058 99.2868 184.72 97.7479C185.732 99.1113 186.474 100.677 186.893 102.324L186.866 102.311Z" fill="#BFCAD6"/>
<path d="M156.457 124.773C152.138 128.648 147.333 132.022 142.407 135.073C136.792 138.475 130.718 141.769 124.442 143.726C122.485 144.347 120.447 144.806 118.422 145.117C118.274 143.888 118.031 142.673 117.64 141.499C118.503 141.364 119.273 141.053 120.002 140.648C121.662 139.704 123.268 138.678 124.766 137.503C125.103 137.247 125.441 136.977 125.778 136.707C128.37 134.641 130.84 132.414 133.283 130.2C135.442 128.094 138.439 124.8 140.625 122.64C143.689 121.075 146.726 119.279 149.681 117.281C150.154 117.511 150.707 117.808 151.274 118.186C152.475 118.982 153.812 120.116 154.918 121.723C154.945 121.75 154.959 121.777 154.986 121.804C155.566 122.654 156.066 123.639 156.457 124.773Z" fill="#BFCAD6"/>
<path d="M173.153 160.776C173.099 162.031 173.018 163.3 172.91 164.556C171.358 162.126 168.807 162.76 165.649 162.139C161.451 161.316 159.237 156.524 154.878 154.62C154.621 154.499 154.352 154.404 154.082 154.31C150.114 152.987 142.312 157.981 134.336 158.94C130.948 157.576 126.912 157.05 122.701 157.495C121.918 157.576 121.135 157.698 120.366 157.873C117.397 158.494 114.495 159.642 111.958 160.911C112.416 160.06 113.186 159.223 113.78 158.467C115.075 156.956 116.304 155.349 117.194 153.594C118.639 153.405 120.069 153.203 121.5 152.973C127.466 152.015 133.31 150.624 138.951 148.545C144.404 146.602 149.709 143.956 154.675 140.999C156.255 140.041 157.807 139.042 159.332 138.003C159.683 143.996 161.694 149.693 165.298 154.229C167.376 156.861 169.995 159.102 173.139 160.762L173.153 160.776Z" fill="#BFCAD6"/>
<path d="M215.344 130.835C214.818 129.174 214.197 127.19 213.509 125.624L213.455 125.516L213.32 125.286C210.081 120.643 202.927 121.183 197.947 122.168C187.635 123.923 180.117 131.118 177.323 141.107C178.538 144.077 178.889 147.371 179.226 150.489C179.915 157.064 179.631 163.746 178.633 170.252C178.565 170.752 178.471 171.238 178.39 171.724C180.806 170.266 183.465 169.24 186.38 168.916C190.078 168.659 193.938 169.672 196.867 171.953C197.731 172.628 198.527 173.411 199.108 174.343C199.229 174.531 199.35 174.72 199.445 174.923C196.935 174.248 194.708 173.911 192.494 173.735C190.645 173.627 188.796 173.56 186.96 173.803C182.952 174.599 179.334 177.542 176.554 180.606C186.366 177.771 192.454 182.78 194.667 189.178C191.617 186.154 187.581 184.102 183.37 183.4C177.607 182.604 171.763 183.981 166.445 186.249C169.225 189.394 170.885 193.511 171.614 197.602C172.073 200.801 171.83 204.081 171.29 207.254C170.953 209.157 170.521 211.02 170.022 212.883C170.156 212.883 170.291 212.896 170.426 212.896C174.057 212.748 177.634 212.046 181.157 211.114C184.018 210.331 187.001 209.413 189.633 208.05C194.451 205.58 198.743 202.056 202.333 198.02C218.206 180.039 221.985 153.486 215.331 130.848L215.344 130.835ZM207.908 149.814C207.449 149.909 206.976 149.949 206.504 149.949C204.547 149.949 202.59 149.166 200.943 147.695C199.067 146.021 197.731 143.591 197.191 140.864C196.638 138.138 196.935 135.384 198.028 133.116C199.202 130.646 201.254 128.958 203.643 128.486C204.115 128.391 204.574 128.351 205.033 128.351C209.284 128.351 213.293 132.13 214.359 137.436C215.533 143.308 212.645 148.869 207.908 149.814Z" fill="#BFCAD6"/>
<path d="M207.327 165.217C207.422 165.136 206.909 165.177 205.978 165.298C206.747 165.339 207.233 165.298 207.327 165.217Z" fill="white"/>
<path d="M194.68 189.178C198.244 197.075 183.586 206.012 181.076 200.477C178.565 194.942 173.166 192.958 173.166 192.958C173.166 192.958 174.556 195.725 174.678 200.99C174.772 204.905 173.477 207.699 170.831 209.562C170.588 210.669 170.318 211.762 170.021 212.856C170.156 212.856 170.291 212.869 170.426 212.869C174.057 212.721 177.634 212.019 181.156 211.087C184.018 210.304 187.001 209.387 189.633 208.023C194.451 205.553 198.743 202.029 202.333 197.993C218.206 180.012 221.985 153.459 215.331 130.821C214.804 129.161 214.184 127.176 213.495 125.61L213.441 125.502L213.306 125.273C210.269 120.913 203.791 121.129 198.878 121.979C201.483 124.409 200.835 126.825 200.835 126.825C206.76 126.677 212.699 130.767 214.035 136.207C214.157 136.612 214.265 137.017 214.346 137.436C215.52 143.308 212.631 148.869 207.894 149.814C207.435 149.909 206.963 149.949 206.49 149.949C205.977 149.949 205.465 149.895 204.952 149.787C202.347 153.459 198.001 149.828 198.001 149.828C199.377 156.659 205.761 156.051 205.761 156.051C205.761 156.051 208.542 168.605 196.907 165.055C185.273 161.518 178.376 171.71 178.376 171.71C180.792 170.252 183.451 169.226 186.366 168.902C190.065 168.646 193.925 169.658 196.854 171.94C197.879 172.763 198.838 173.722 199.431 174.909C205.006 180.471 202.887 184.926 193.857 180.093C184.814 175.26 176.541 180.606 176.541 180.606C186.353 177.771 192.44 182.78 194.653 189.178H194.68Z" fill="#8D8FA9"/>
<path d="M206.963 145.09C205.748 145.333 204.682 144.577 204.155 144.104C203.076 143.132 202.252 141.607 201.915 139.933C201.578 138.259 201.74 136.531 202.374 135.222C202.684 134.587 203.373 133.48 204.587 133.237C204.749 133.197 204.911 133.183 205.073 133.183C207.017 133.183 209.028 135.424 209.635 138.394C210.283 141.607 209.055 144.685 206.963 145.103V145.09Z" fill="#00FFFF"/>
<path d="M208.798 141.674C207.907 141.931 207.071 141.431 206.652 141.107C205.788 140.446 205.087 139.366 204.749 138.138C204.439 137.044 204.425 135.91 204.695 134.965C204.614 134.965 204.533 134.979 204.466 135.006C203.494 135.276 203.008 136.221 202.806 136.761C202.387 137.868 202.36 139.272 202.738 140.621C203.116 141.971 203.885 143.146 204.817 143.861C205.276 144.212 206.18 144.752 207.152 144.482C208.218 144.185 208.92 143.024 209.095 141.566C209.001 141.62 208.893 141.661 208.798 141.688V141.674Z" fill="#29ABFF"/>
<path d="M72.8701 163.26C73.5045 165.433 72.9241 166.864 72.3302 167.687C68.6321 164.934 60.4664 163.53 58.7793 163.26C57.5915 163.071 56.4848 163.881 56.2958 165.069C56.1069 166.256 57.7805 166.513 58.9547 166.702C62.8689 167.323 68.2946 169.78 69.9818 171.386C70.4947 171.872 70.3462 172.615 70.1302 173.168C69.4419 174.923 67.1744 176.718 64.1646 176.772C62.6664 176.799 61.5866 177.015 60.7228 177.191C59.2922 177.488 58.8063 177.582 57.1056 176.61C56.9032 176.489 56.6737 176.367 56.4443 176.232C54.3927 175.098 52.0713 173.83 50.7891 170.131C50.7891 169.672 50.6676 169.267 50.4651 168.943C49.7903 165.042 53.0161 161.154 53.043 161.113C53.6774 160.371 53.7314 159.291 53.1915 158.481C53.07 158.292 50.1682 153.837 52.5302 147.385C54.1498 142.97 65.6492 144.253 70.9671 145.576C71.048 145.603 71.1425 145.616 71.237 145.63C77.5671 146.386 82.534 152.244 83.7217 154.944C71.237 151.475 66.8235 151.772 66.0676 151.866C64.0701 150.732 62.14 150.273 61.3572 150.111C59.8455 149.787 58.8063 149.706 58.7793 150.665C58.7388 151.866 61.0063 153.135 62.086 153.635C66.9719 155.889 71.9928 160.317 72.8566 163.287L72.8701 163.26Z" fill="#9279B6"/>
<path d="M54.5683 175.098C52.5033 172.223 50.7487 168.227 52.8812 165.136C55.3106 161.613 56.7953 161.613 56.4444 159.655C56.08 157.698 53.4615 155.498 54.6358 150.044C55.4861 146.035 59.0088 144.725 61.8567 144.334C57.5376 144.212 53.475 144.887 52.5572 147.371C50.1953 153.824 53.0836 158.278 53.2186 158.467C53.7585 159.277 53.7045 160.357 53.0701 161.1C53.0431 161.14 49.8039 165.015 50.4922 168.929C50.7082 169.253 50.8296 169.658 50.8161 170.117C51.7204 172.709 53.1241 174.113 54.5818 175.098H54.5683Z" fill="#F7C8D4"/>
<path d="M71.5341 160.843C69.4421 163.219 65.0556 161.046 59.5758 160.843C54.0825 160.641 56.3095 165.055 56.3095 165.055C56.4985 163.867 57.6052 163.071 58.793 163.246C60.4801 163.516 68.6458 164.92 72.3439 167.674C72.9378 166.864 73.5182 165.433 72.8838 163.246C72.6679 162.517 72.209 161.694 71.5476 160.843H71.5341Z" fill="#8E39AB"/>
<path d="M70.1439 173.155C70.3599 172.615 70.5083 171.859 69.9955 171.373C69.4556 170.86 68.5378 170.252 67.404 169.658C67.1071 171.494 65.3525 173.371 61.6948 174.046C56.6469 174.977 52.8273 172.966 50.8027 170.023C50.8027 170.063 50.8027 170.09 50.8027 170.131C52.0849 173.83 54.4064 175.112 56.458 176.232C56.6874 176.354 56.9169 176.489 57.1193 176.61C58.8199 177.569 59.3058 177.474 60.7365 177.191C61.6003 177.015 62.6936 176.799 64.1782 176.772C67.1881 176.718 69.4556 174.923 70.1439 173.168V173.155Z" fill="#8E39AB"/>
<path d="M74.5574 146.48C73.8285 147.898 70.7377 148.033 64.3807 147.614C56.8358 147.115 58.6849 150.165 58.6849 150.165C58.6849 150.165 58.7524 150.206 58.8874 150.273C59.1708 149.733 60.1021 149.828 61.3708 150.098C62.1537 150.26 64.0837 150.719 66.0813 151.853C66.8371 151.758 71.2506 151.461 83.7353 154.931C82.7636 152.73 79.2678 148.41 74.5574 146.494V146.48Z" fill="#8E39AB"/>
<path d="M159.831 204.311C159.426 210.304 156.417 212.721 155.391 213.369C154.486 213.409 153.542 213.652 152.826 213.922C150.464 214.813 148.332 216.136 146.186 217.162C140.989 219.808 135.105 221.036 129.301 220.564C126.575 220.348 123.875 219.767 121.446 218.539C120.906 218.215 120.245 218.121 119.637 217.932C115.926 216.811 112.335 214.827 109.744 211.924C107.503 209.427 105.06 205.499 106.977 202.326C107.018 202.272 107.045 202.205 107.085 202.151C107.166 202.002 107.301 201.894 107.422 201.773C107.53 201.665 107.544 201.624 107.733 201.53C109.353 201.003 111.229 201.503 113.213 201.665C113.118 204.324 113.834 206.889 115.372 209.13C120.825 216.595 132.135 214.503 138.924 210.075C139.356 209.764 139.64 209.4 139.802 209.009C140.854 209.171 141.867 209.306 142.798 209.427C143.81 209.522 144.823 209.603 145.835 209.616C147.171 209.656 148.494 209.616 149.816 209.441C145.484 207.942 141.354 206.187 137.251 204.27C135.483 203.474 133.539 202.394 132.149 201.111C131.515 200.518 131.069 199.856 130.988 199.492C130.934 199.303 130.961 199.222 130.988 199.168C131.636 197.926 133.823 196.954 135.24 196.427C141.151 194.362 147.643 195.806 153.852 196.697C152.826 195.536 151.652 194.483 150.37 193.579C150.626 193.079 150.856 192.566 151.085 192.054C151.22 192.135 151.369 192.202 151.531 192.269C151.801 192.364 156.538 194.078 158.751 198.52C159.534 200.086 160.007 201.989 159.845 204.284L159.831 204.311Z" fill="#9279B6"/>
<path d="M182.074 46.3563L182.034 46.1944L182.007 46.1134C181.966 46.0054 181.939 45.9109 181.912 45.8569C181.845 45.7354 181.845 45.7489 181.845 45.7489C181.507 45.6139 181.21 45.6409 180.725 45.6814C178.592 45.9514 176.325 47.0583 174.394 48.1382C173.895 48.4082 173.463 48.6917 173.031 48.9482C172.923 49.0022 172.815 49.0562 172.707 49.0967C171.074 50.3116 169.495 51.5805 168.078 53.052C166.472 54.6989 165.055 56.4943 163.84 58.4651C161.329 62.5824 159.656 67.2666 158.873 72.1129C157.483 64.3778 159.264 55.9813 163.961 49.5692C165.082 48.0707 166.377 46.6803 167.821 45.4654C167.376 44.5609 166.917 43.643 166.431 42.7925C154.824 21.8552 134.16 6.38513 109.312 9.82743C91.469 12.3788 73.6799 20.7753 62.7879 35.4625C53.7719 47.2608 50.3167 61.759 47.1854 76.1626L46.7265 77.0941C46.7265 77.0941 46.74 77.1076 46.7265 77.1346L46.6995 77.2156C46.524 77.7015 46.3216 78.228 46.2136 78.741C45.2148 82.7098 46.2136 87.178 48.0627 90.7958C49.0614 88.4064 51.4099 86.1116 56.9707 87.988C69.6443 92.2807 73.221 111.355 71.8848 118.415C71.345 121.237 69.1315 123.126 66.1621 123.072C66.5805 123.356 66.9989 123.626 67.4308 123.896C68.0247 124.287 68.3756 124.895 68.4971 125.543C69.2664 128.378 70.9266 130.902 72.9511 133.021C79.6456 139.798 89.9033 141.796 99.1758 141.539C99.0948 141.08 99.0543 140.621 99.0273 140.189C98.9193 139.339 98.9868 138.313 98.5954 137.773C98.5009 137.638 98.3794 137.598 98.2445 137.476C96.6923 136.383 95.2616 135.073 94.1144 133.534C89.8223 133.885 85.3548 132.117 83.0469 128.405C85.8812 129.323 88.6886 129.903 91.6039 129.687C91.7794 129.687 92.1438 129.647 92.3193 129.62C93.2371 129.512 94.1954 129.269 95.0592 128.945C95.6935 128.729 96.4089 128.364 97.0027 128.054C99.1758 126.866 101.308 125.394 102.806 123.423C102.941 122.978 103.211 122.559 103.562 122.249C102.334 122.195 101.106 122.303 99.9181 122.532C104.048 120.508 109.325 120.197 113.28 122.843C115.197 124.031 113.537 126.879 111.566 125.799C111.35 125.678 111.107 125.435 110.878 125.192C111.863 126.339 112.592 127.689 112.902 129.147C113.24 130.335 113.361 131.671 113.55 132.927C115.251 132.684 116.884 131.874 118.247 130.767C118.962 130.2 119.57 129.512 120.177 128.81C120.042 129.255 119.921 129.714 119.759 130.16C119.205 131.725 118.314 133.224 117.181 134.479C117.788 134.155 118.409 133.858 119.003 133.467C121.243 132.238 123.389 130.835 125.468 129.323C128.856 126.596 132.081 123.504 135.172 120.44C135.874 119.752 136.603 119.023 137.386 118.334C137.845 117.983 137.953 117.983 138.371 117.74C152.435 110.329 165.351 98.9358 171.722 84.2487C169.468 85.2611 167.093 85.9496 164.609 86.1656C167.754 84.8831 170.399 82.5883 172.559 80.0504C173.058 79.4564 173.517 78.849 173.949 78.228C178.821 69.251 184.166 56.4943 182.142 46.3023L182.074 46.3563ZM62.329 72.5988C62.0725 73.9083 60.8038 74.7587 59.4946 74.5022C59.5486 74.5022 59.5081 74.4887 59.4946 74.4617C58.9547 74.1782 58.3204 74.0703 57.6995 74.0163C55.702 73.8543 53.6639 74.7992 52.1658 76.0951C51.8283 76.3921 51.5179 76.7161 51.1805 77.0266C51.4909 76.1761 51.8418 75.2582 52.3277 74.4752C53.9204 71.7619 56.9032 69.8855 60.102 69.737C61.5327 69.737 62.6259 71.1949 62.329 72.5853V72.5988ZM103.076 56.3728C107.301 51.486 114.373 50.0956 120.595 50.2981C123.025 50.4331 124.712 52.971 124.118 55.3063C123.578 57.5067 121.365 58.8566 119.165 58.3167C117.721 57.6012 116.06 57.1692 114.468 56.8317C109.15 55.6978 103.508 56.8317 100.444 61.7725C100.876 59.8961 101.713 57.9927 103.09 56.3863L103.076 56.3728ZM129.261 121.277C128.262 121.534 127.195 121.925 126.224 122.343C125.252 122.802 124.213 123.261 123.592 124.179C123.7 123.005 124.483 121.966 125.157 121.021C125.927 120.035 126.71 119.158 127.641 118.28C128.356 117.619 129.463 117.659 130.124 118.375C131.042 119.306 130.516 120.994 129.247 121.277H129.261ZM135.159 111.976C130.016 110.491 124.496 109.803 119.178 110.559C116.492 110.91 113.901 111.747 111.431 112.921C108.934 114.082 106.613 115.702 104.251 117.538C104.669 116.593 105.195 115.702 105.776 114.851C103.09 114.487 93.642 112.233 94.4653 98.4904C95.4236 82.4938 109.852 69.7505 127.776 75.8792C144.58 81.6298 134.511 100.826 128.842 105.672C130.745 105.82 132.648 106.117 134.497 106.549C135.321 106.752 135.996 106.941 136.832 107.238C139.923 108.439 138.331 112.989 135.159 111.976ZM174.799 64.9313C169.59 66.0922 167.713 72.8688 167.295 77.634L167.16 80.1584L166.755 77.634C166.256 73.1928 166.431 68.5626 168.996 64.6613C170.183 62.9604 171.79 61.3945 173.828 60.6925C176.635 60.139 177.58 64.1888 174.813 64.9178L174.799 64.9313Z" fill="#9279B6"/>
<path d="M84.9229 21.3558C99.3917 13.7152 111.148 10.6239 119.529 9.48994C116.209 9.26046 112.808 9.36845 109.312 9.85442C91.469 12.4058 73.6799 20.8023 62.7879 35.4895C53.7719 47.2878 50.3167 61.786 47.1854 76.1896L46.7265 77.1211C46.7265 77.1211 46.74 77.1346 46.7265 77.1616L46.6995 77.2426C46.524 77.7285 46.3216 78.255 46.2136 78.768C45.2148 82.7368 46.2136 87.205 48.0627 90.8228C49.0614 88.4334 51.4099 86.1386 56.9707 88.015C58.4688 88.5279 59.832 89.2434 61.0873 90.1208C58.0774 87.1645 52.8676 84.3567 51.194 83.9787C48.751 83.4252 50.2087 77.958 51.194 77.0131C51.194 77.0131 52.1792 64.7693 58.3069 51.1351C57.767 54.0239 58.1584 56.3188 59.6431 57.2772C62.4909 59.1266 68.2407 55.3468 72.4922 48.8132C76.7438 42.2931 77.8775 35.4895 75.0296 33.6401C73.248 32.4791 70.3462 33.5321 67.3768 36.0699C71.8848 30.3867 77.6211 25.1895 84.9364 21.3288L84.9229 21.3558Z" fill="#F7C8D4"/>
<path d="M134.363 77.0401C129.598 70.8304 123.997 70.7089 123.605 68.4546C123.214 66.2002 125.751 59.2076 114.468 56.8182C103.184 54.4289 121.864 50.6086 121.864 50.6086C121.864 50.6086 131.353 49.6771 133.863 63.8243C133.863 63.8243 139.626 72.8553 134.363 77.0401Z" fill="#8E39AB"/>
<path d="M114.104 124.341C114.077 125.489 112.889 126.582 111.539 125.84C111.323 125.718 111.08 125.475 110.851 125.232C111.836 126.38 112.565 127.73 112.875 129.188C112.875 129.228 112.889 129.282 112.902 129.323C115.048 128.189 115.44 125.921 114.104 124.355V124.341Z" fill="#8E39AB"/>
<path d="M102.766 123.464C102.901 123.018 103.171 122.6 103.522 122.289C102.294 122.235 101.065 122.344 99.8778 122.573C99.9587 122.532 100.053 122.492 100.134 122.451C98.933 122.762 98.2041 123.032 98.4201 123.113C98.8115 123.248 100.337 124.112 100.566 125.691C101.376 125.016 102.132 124.287 102.766 123.45V123.464Z" fill="#8E39AB"/>
<path d="M164.542 86.2196C167.687 84.9371 170.332 82.6423 172.492 80.1044C172.991 79.5104 173.45 78.903 173.882 78.282C178.754 69.305 184.099 56.5483 182.074 46.3563L182.034 46.1943L182.007 46.1133C181.966 46.0054 181.939 45.9109 181.912 45.8569C181.845 45.7354 181.845 45.7489 181.845 45.7489C181.507 45.6139 181.211 45.6409 180.725 45.6814C180.455 45.7084 180.185 45.7624 179.915 45.8164C181.359 47.1528 180.725 48.8942 178.889 51.2701C176.703 54.0914 169.644 53.8349 165.676 63.9458C161.694 74.0433 167.16 80.1719 167.16 80.1719L166.755 77.6475C166.256 73.2063 166.431 68.5761 168.996 64.6748C170.184 62.9739 171.79 61.408 173.828 60.706C176.635 60.1525 177.58 64.2023 174.813 64.9313C174.651 64.9718 174.489 65.0123 174.341 65.0528C175.272 67.8606 172.451 75.4202 169.185 81.1573C165.244 88.0689 155.809 89.0004 155.809 89.0004C155.809 89.0004 163.503 90.0263 149.911 99.4083C139.005 106.927 136.104 103.377 132.001 102.068C130.934 103.593 129.828 104.848 128.856 105.672C130.759 105.82 132.662 106.117 134.511 106.549C135.334 106.752 136.009 106.941 136.846 107.238C138.25 107.778 138.682 109.006 138.452 110.086C141.597 111.801 141.799 114.068 138.992 114.338C134.498 114.784 131.596 123.909 129.274 121.264C128.275 121.52 127.209 121.912 126.237 122.33C125.266 122.789 124.226 123.248 123.605 124.166C123.605 124.166 122.931 126.434 120.002 129.296C119.921 129.593 119.826 129.903 119.718 130.2C119.165 131.766 118.274 133.264 117.14 134.52C117.748 134.196 118.369 133.899 118.962 133.507C121.203 132.279 123.349 130.875 125.428 129.363C128.815 126.636 132.041 123.545 135.132 120.481C135.834 119.792 136.563 119.063 137.345 118.375C137.804 118.024 137.912 118.024 138.331 117.781C152.395 110.37 165.311 98.9763 171.682 84.2892C169.428 85.3016 167.052 85.9901 164.569 86.2061L164.542 86.2196Z" fill="#8E39AB"/>
<path d="M99.1489 141.593C99.0679 141.134 99.0274 140.675 99.0004 140.243C98.9464 139.811 98.9329 139.326 98.8924 138.88C77.2702 143.186 68.4702 125.597 68.4702 125.597C69.2395 128.432 70.8997 130.956 72.9242 133.075C79.6187 139.852 89.8764 141.85 99.1489 141.593Z" fill="#8E39AB"/>
<path d="M158.441 65.8087C158.657 60.031 160.52 54.2804 163.948 49.5961C165.068 48.0977 166.364 46.7073 167.808 45.4924C167.363 44.5879 166.904 43.67 166.418 42.8195C159.494 30.3462 149.358 19.8033 137.035 14.0527C145.052 22.1792 152.273 35.341 152.745 47.4093C153.258 60.6925 156.848 64.8098 158.441 65.7952V65.8087Z" fill="#8E39AB"/>
<path d="M67.0531 89.2164C69.6445 94.2651 72.6408 77.5935 64.2457 73.3953C55.8505 69.197 51.1941 77.0401 51.1941 77.0401C51.1941 77.0401 59.5082 74.4617 67.0665 89.2164H67.0531Z" fill="#8E39AB"/>
<path d="M49.1021 213.544C47.6039 220.118 39.4248 224.681 35.5511 217.392C34.3634 215.11 34.0799 212.248 34.6603 209.589C35.3622 206.363 37.3192 203.433 40.3965 202.191C43.9462 200.733 47.6444 202.934 48.8456 206.43C49.1831 207.348 49.3855 208.307 49.4665 209.278C49.588 210.709 49.4395 212.167 49.1156 213.558L49.1021 213.544Z" fill="url(#paint6_linear_12_511)"/>
<path d="M47.4013 209.076C45.6602 213.801 39.708 216.676 36.7927 211.182C36.6712 210.952 36.5767 210.723 36.4823 210.493C35.5645 212.977 35.6319 215.893 36.7927 218.12C39.9105 223.979 46.4835 220.321 47.6982 215.029C48.1436 213.166 48.1571 211.128 47.4823 209.292C47.4553 209.224 47.4283 209.157 47.4013 209.076Z" fill="#6D00FF"/>
<path d="M84.0322 253.502C82.2236 245.362 91.5095 241.839 98.1636 243.688C100.93 244.377 103.562 245.794 105.465 247.9C106.937 249.439 107.827 251.396 107.989 253.367C108.151 250.708 107.099 247.967 105.114 245.888C102.941 243.513 99.9452 241.879 96.8139 241.11C89.2555 239.004 78.7009 243.013 80.7524 252.274C82.561 258.915 89.8224 262.803 96.5979 262.479C91.0641 262.222 85.5034 258.888 84.0322 253.502Z" fill="#FF95FF"/>
<path d="M104.71 248.359C103.778 247.333 102.658 246.482 101.443 245.794C102.213 247.117 102.469 248.71 101.97 250.316C99.8508 257.12 89.3636 259.334 84.6937 253.974C84.3023 253.488 84.0053 252.989 83.7759 252.49C83.8029 252.908 83.8704 253.34 83.9648 253.785C86.2998 262.33 99.2299 265.53 105.29 259.077C108.178 255.972 107.558 251.342 104.71 248.359Z" fill="#6D00FF"/>
<path d="M226.722 236.695C226.237 239.787 224.185 242.608 221.783 244.646C218.071 247.805 213.01 249.736 208.124 249.209C204.965 248.872 202.104 247.198 201.213 244.646C199.31 238.666 205.249 233.051 210.189 230.621C212.996 229.257 216.168 228.434 219.272 228.636C224.023 228.839 227.573 231.957 226.722 236.682V236.695Z" fill="#FF95FF"/>
<path d="M224.239 237.141C223.848 239.638 222.187 241.906 220.257 243.553C217.261 246.091 213.185 247.657 209.244 247.238C206.706 246.968 204.398 245.618 203.67 243.567C202.131 238.747 206.922 234.212 210.917 232.254C213.185 231.147 215.749 230.486 218.246 230.648C222.079 230.81 224.941 233.334 224.266 237.141H224.239Z" fill="url(#paint7_linear_12_511)"/>
<path d="M219.906 230.405C218.854 230.337 217.787 230.405 216.748 230.58C218.894 231.458 220.23 233.375 219.771 235.966C219.407 238.234 217.909 240.3 216.154 241.785C213.428 244.093 209.73 245.51 206.153 245.119C205.532 245.051 204.925 244.916 204.358 244.714C205.276 246.712 207.638 248.021 210.216 248.305C214.467 248.764 218.867 247.076 222.106 244.336C224.198 242.554 225.98 240.111 226.398 237.411C227.127 233.294 224.037 230.58 219.906 230.405Z" fill="#6D00FF"/>
<path d="M265.121 171.548C262.908 173.479 259.223 172.075 256.848 170.752C253.77 168.956 251.003 166.162 249.681 162.828C248.331 159.628 248.911 155.552 253.001 155.376C256.618 155.336 259.831 157.806 262.233 160.344C264.608 162.868 267.497 168.565 265.121 171.548Z" fill="#FF95FF"/>
<path d="M264.811 171.481C262.989 173.06 259.952 171.913 258.008 170.819C255.471 169.348 253.203 167.039 252.11 164.299C251.003 161.667 251.476 158.319 254.837 158.17C257.819 158.143 260.451 160.168 262.435 162.261C264.392 164.34 266.768 169.024 264.811 171.481Z" fill="url(#paint8_linear_12_511)"/>
<path d="M254.337 160.708C255.873 160.708 257.118 160.098 257.118 159.345C257.118 158.592 255.873 157.981 254.337 157.981C252.802 157.981 251.557 158.592 251.557 159.345C251.557 160.098 252.802 160.708 254.337 160.708Z" fill="#FF95FF"/>
<path d="M263.812 163.962C263.772 164.745 263.556 165.474 263.083 166.067C261.234 167.674 258.157 166.513 256.186 165.393C254.432 164.367 252.812 162.963 251.597 161.289C251.489 162.301 251.678 163.408 252.11 164.434C253.217 167.215 255.525 169.55 258.089 171.049C260.06 172.156 263.151 173.33 264.986 171.724C266.566 169.753 265.364 166.337 263.812 163.975V163.962Z" fill="#6D00FF"/>
<path d="M101.619 101.055C105.587 96.7894 111.094 97.9774 111.094 97.9774C111.094 97.9774 113.739 100.083 118.004 99.4353C122.269 98.7873 123.079 94.5216 121.729 92.3887C121.729 92.3887 126.291 85.8551 129.301 88.9329C132.311 92.0107 130.516 103.296 119.273 106.347C109.649 108.952 101.781 106.077 101.605 101.055H101.619Z" fill="white"/>
<path d="M52.7192 107.238C57.2812 110.464 60.5475 110.815 61.8432 110.005C63.1389 109.195 60.1426 107.305 63.4628 107.238C66.7831 107.17 68.9696 115.202 67.053 119.05C65.1365 122.897 54.2039 116.998 52.7192 107.238Z" fill="white"/>
<path d="M280.575 171.251C266.539 151.475 237.844 143.321 221.58 140.176C221.445 139.177 221.297 138.178 221.121 137.179C221.108 137.058 221.067 136.936 221.054 136.828C224.954 137.139 228.76 138.057 232.54 138.988C245.821 142.403 259.061 147.641 269.467 156.713C269.454 156.753 269.94 157.279 270.25 157.401C270.52 157.657 270.804 157.887 271.074 158.143C275.379 162.18 278.524 166.594 280.575 171.238V171.251Z" fill="white"/>
<path d="M91.2543 249.942C94.4561 249.534 96.8493 247.615 96.5997 245.655C96.35 243.695 93.5521 242.437 90.3503 242.845C87.1485 243.253 84.7553 245.173 85.005 247.133C85.2546 249.092 88.0525 250.35 91.2543 249.942Z" fill="#FF95FF"/>
<path d="M210.958 239.455C213.63 237.971 215.109 235.531 214.262 234.006C213.414 232.481 210.562 232.448 207.89 233.933C205.219 235.418 203.74 237.858 204.587 239.383C205.435 240.907 208.287 240.94 210.958 239.455Z" fill="#FF95FF"/>
<path d="M62.545 97.9639C63.7867 99.4083 64.0432 101.217 63.1119 102.027C62.1806 102.837 60.426 102.311 59.1843 100.88C57.9426 99.4488 57.6861 97.6264 58.6174 96.8164C59.5487 96.0065 61.3033 96.533 62.545 97.9639ZM114.846 86.6515C116.304 87.8665 119.016 87.016 120.892 84.7481C122.769 82.4803 123.106 79.6724 121.635 78.4575C120.164 77.2426 117.464 78.093 115.588 80.3609C113.712 82.6288 113.375 85.4366 114.846 86.6515Z" fill="white"/>
<path d="M93.7905 81.8188C94.2224 76.4461 96.4764 63.6488 103.414 62.8929C110.351 62.1369 108.097 68.8595 105.627 71.8564C103.117 74.8937 98.312 79.2404 95.734 85.5851C95.734 85.5851 93.3721 87.205 93.804 81.8188H93.7905ZM112.011 60.517C109.46 60.2335 107.881 62.7309 110.837 65.2148C113.793 67.7121 116.668 67.6041 117.424 66.1462C117.95 65.1473 117.208 61.084 112.011 60.517Z" fill="#F7C8D4"/>
<path d="M154.972 121.804C144.418 130.808 132.702 138.597 125.765 136.693C125.427 136.963 125.09 137.233 124.753 137.49C123.254 138.664 121.648 139.69 119.988 140.635C119.273 141.04 118.49 141.35 117.626 141.485C118.018 142.646 118.274 143.875 118.409 145.103C120.434 144.793 122.472 144.347 124.429 143.713C130.705 141.755 136.778 138.462 142.393 135.06C147.32 132.022 152.125 128.634 156.444 124.76C156.052 123.626 155.539 122.64 154.972 121.79V121.804ZM181.737 83.1552C181.656 81.8188 181.602 80.6039 180.846 79.7129C180.576 79.5104 179.982 79.5644 179.631 79.6589C179.564 79.6994 179.483 79.7129 179.415 79.7399C179.145 80.2529 178.862 80.7524 178.579 81.2653C178.228 82.5613 177.796 83.8707 177.296 85.1531C182.088 90.2018 178.255 99.7863 164.366 113.232C164.029 113.555 163.691 113.879 163.354 114.203C163.813 114.878 164.258 115.621 164.69 116.431C173.099 106.927 182.155 93.4956 181.75 83.1417L181.737 83.1552ZM184.693 97.7344C184.031 99.2733 183.289 100.812 182.452 102.324C182.641 103.067 182.736 103.836 182.641 104.605C182.25 107.98 172.532 118.496 164.636 126.825C156.74 135.154 147.671 139.852 140.22 142.876C132.918 145.846 128.559 143.969 133.917 141.512C129.908 143.281 125.859 144.955 121.851 146.561C120.771 146.98 119.759 147.385 118.598 147.803C118.598 147.803 118.585 147.803 118.571 147.803C118.611 148.896 118.463 149.936 118.207 150.935C128.356 150.786 138.358 147.371 147.131 142.336C158.185 136.018 167.606 127.163 175.65 117.349C179.699 112.584 183.033 107.224 186.839 102.284C186.42 100.637 185.678 99.0708 184.666 97.7074L184.693 97.7344Z" fill="#8D8FA9"/>
<path d="M165.311 154.242C164.326 154.175 163.179 153.986 161.869 153.608C153.528 151.272 154.999 144.239 153.866 149.828C153.434 151.934 154.19 153.392 154.878 154.62C159.237 156.524 161.451 161.316 165.648 162.139C168.807 162.76 171.371 162.139 172.91 164.556C173.018 163.3 173.085 162.031 173.153 160.776C170.008 159.102 167.39 156.861 165.311 154.242ZM117.208 153.594C116.317 155.349 115.089 156.956 113.793 158.467C113.199 159.21 112.43 160.06 111.971 160.911C114.508 159.642 117.41 158.494 120.38 157.873C119.826 156.213 120.096 154.404 121.513 152.973C120.083 153.203 118.652 153.405 117.208 153.594Z" fill="#8D8FA9"/>
<path d="M83.7759 201.341C79.2679 205.283 75.0703 207.213 71.2912 207.065C68.8077 206.97 66.6212 206.241 64.6912 205.067C69.0237 206.106 72.7354 205.796 73.8691 204.257C76.1231 201.179 69.4421 200.976 66.2163 197.737C62.9905 194.497 66.2163 198.601 71.1022 196.346C73.0593 195.442 72.8298 192.607 72.2765 190.312C74.6789 188.895 76.42 186.505 77.4188 183.306C77.4728 185.007 77.7023 186.654 78.0262 188.314C78.998 193.322 80.982 197.71 83.7759 201.327V201.341Z" fill="#8D8FA9"/>
<path d="M76.3389 180.768C75.0972 185.844 71.9119 189.813 66.1622 189.286C65.1769 189.192 64.1916 189.03 63.1929 188.8C64.1647 188.355 64.7585 187.666 65.0285 186.978C65.7168 185.155 69.5904 187.248 72.5328 183.333C73.2886 182.942 74.004 182.51 74.6923 182.051C75.3132 181.673 75.853 181.241 76.3254 180.768H76.3389Z" fill="#29ABFF"/>
<path d="M140.612 173.155C140.504 172.007 140.301 170.941 139.977 169.942C139.626 170.428 139.113 170.711 138.344 170.495C136.131 169.861 136.454 165.501 128.194 163.03C119.934 160.56 116.573 165.717 113.523 166.769C111.809 167.363 110.527 167.201 109.326 166.823C108.597 167.282 107.949 167.714 107.422 168.079C108.624 168.7 110.243 168.673 111.593 168.565C113.968 168.295 115.278 166.904 117.626 165.487C119.732 164.164 122.31 163.57 124.78 163.746C130.475 163.881 134.659 167.309 137.372 172.061C137.899 172.993 138.358 173.938 138.762 174.896C139.518 174.356 140.234 173.762 140.881 173.101L140.612 173.128V173.155ZM129.355 174.613C130.502 175.652 131.501 176.853 132.297 178.19C133.89 177.609 135.442 176.934 136.873 176.111C136.454 175.166 135.969 174.235 135.402 173.344C134.43 174.383 131.69 174.95 129.342 174.613H129.355ZM124.51 177.366C123.2 176.489 121.635 174.963 121.311 173.951C120.596 174.221 119.894 174.505 119.178 174.774C121.662 175.935 123.794 177.866 125.441 180.08C127.115 179.729 128.842 179.297 130.543 178.757C130.111 178.163 129.625 177.596 129.112 177.056C127.762 177.42 125.873 178.257 124.51 177.339V177.366ZM112.943 174.558C115.318 173.398 117.64 172.129 120.002 170.873C122.161 169.82 124.199 168.497 126.764 168.389C127.088 168.389 127.371 168.457 127.614 168.565C127.411 168.214 126.993 167.903 126.305 167.687C123.727 166.864 119.57 169.982 116.02 171.764C112.457 173.56 110.527 174.451 108.111 174.653C105.695 174.869 102.699 172.655 103.306 173.722C105.762 176.934 109.798 176.246 112.943 174.558ZM116.29 175.854C115.453 176.138 114.603 176.421 113.753 176.664C112.848 176.988 111.876 177.204 110.891 177.326C107.868 179.553 103.805 180.161 100.229 179.067C97.0973 178.19 94.4114 176.34 92.8322 173.83C92.8322 175.085 93.2506 176.772 94.9512 178.203C98.1365 180.903 105.965 179.877 103.198 180.93C100.917 181.808 96.193 181.403 92.1304 178.946C92.5758 179.783 93.0077 180.498 93.3316 181.025C101.605 182.861 113.226 181.929 120.919 180.903C120.474 180.08 119.961 179.283 119.394 178.568C118.53 177.474 117.491 176.556 116.29 175.881V175.854ZM100.998 176.799C103.13 177.717 105.573 177.839 107.814 177.218C107.085 177.069 106.383 176.826 105.749 176.475C105.978 176.961 105.6 177.164 103.778 176.678C99.9586 175.625 98.339 171.98 97.6371 169.834C96.8138 169.591 95.923 169.307 94.9512 169.024C94.7893 172.655 97.6236 175.476 100.998 176.813V176.799Z" fill="#D5B03B"/>
<path d="M202.117 115.715C202.05 115.675 201.982 115.648 201.915 115.607C199.243 115.486 196.543 115.648 193.884 116.093C193.763 116.903 194.424 117.241 195.234 117.902C197.623 117.389 200.214 117.011 202.806 116.957L202.117 115.729V115.715ZM168.874 147.722C168.591 147.884 167.309 148.235 165.689 148.235C165.73 148.303 165.77 148.37 165.811 148.438C167.687 151.353 170.251 153.851 173.247 155.592C173.234 154.863 173.207 154.148 173.18 153.432C171.452 151.785 169.995 149.855 168.874 147.736V147.722ZM172.276 129.323C170.13 132.616 168.793 136.396 169.266 140.243C169.59 143.672 170.912 147.034 172.95 149.828C172.775 147.493 172.573 145.184 171.965 142.957L171.925 142.822V142.795L172.033 142.97L171.587 140.81C171.682 140.351 171.749 140.216 171.857 139.811C172.613 137.247 173.706 134.763 175.069 132.454C174.53 130.686 174.206 128.729 172.262 129.323H172.276ZM157.442 119.428C158.05 120.278 158.617 121.223 159.103 122.303C160.101 121.331 161.154 120.265 162.234 119.117C161.788 118.132 161.316 117.268 160.83 116.498C159.966 117.416 158.86 118.442 157.456 119.428H157.442Z" fill="#29ABFF"/>
<path d="M158.738 198.56C157.928 200.706 156.255 202.961 152.867 204.284C145.066 207.321 130.988 199.195 130.988 199.195C130.988 199.195 130.934 199.343 130.988 199.532C131.083 199.91 131.515 200.572 132.149 201.152C133.539 202.434 135.469 203.514 137.251 204.311C141.354 206.228 145.484 207.983 149.817 209.481C148.494 209.656 147.158 209.697 145.835 209.656C147.239 211.776 141.327 215.974 132.662 216.771C122.607 217.689 116.492 215.853 111.984 209.279C109.312 205.377 108.313 203.379 106.991 202.34C105.061 205.512 107.517 209.427 109.757 211.938C112.349 214.827 115.939 216.825 119.651 217.945C120.258 218.134 120.919 218.228 121.459 218.552C123.889 219.781 126.602 220.361 129.315 220.577C135.105 221.05 140.989 219.821 146.199 217.176C148.345 216.15 150.464 214.827 152.84 213.936C153.569 213.679 154.5 213.423 155.404 213.382C156.43 212.721 159.44 210.318 159.845 204.324C159.993 202.029 159.534 200.126 158.752 198.56H158.738Z" fill="#8E39AB"/>
<path d="M49.4529 209.265C49.3719 208.293 49.183 207.335 48.8321 206.417C47.6308 202.92 43.9327 200.734 40.3829 202.178C37.3056 203.42 35.3486 206.349 34.6467 209.576C35.5915 208.212 36.9412 206.916 38.8443 206.16C38.6823 206.403 38.5878 206.66 38.5878 206.943C38.5878 208.05 40.086 208.941 41.9216 208.941C43.7572 208.941 45.2554 208.05 45.2554 206.943C45.2554 206.498 45.0124 206.093 44.621 205.769C46.848 206.322 48.4002 207.699 49.4529 209.252V209.265Z" fill="#FF95FF"/>
<path d="M240.597 285.293C241.11 286.737 241.569 288.371 241.825 289.99C243.674 287.453 244.957 284.442 245.821 281.351C244.12 282.701 242.379 284.024 240.597 285.306V285.293ZM220.406 297.752C223.335 298.225 226.344 298.13 229.26 297.523C227.991 296.767 226.884 295.795 225.872 294.769C224.063 295.795 222.241 296.794 220.406 297.766V297.752ZM168.118 319.662C171.587 318.393 174.732 316.327 177.526 313.668C174.853 314.289 172.208 314.829 169.563 315.315C169.441 317.056 168.969 318.501 168.118 319.662ZM145.808 317.974C148.291 319.054 150.91 319.864 153.569 320.377C152.84 319.554 152.286 318.582 151.801 317.61C149.803 317.772 147.819 317.893 145.808 317.974Z" fill="#6D00FF"/>
<path d="M82.0887 312.696C81.9402 312.588 81.8052 312.48 81.6568 312.359C79.5917 310.685 78.0126 308.498 76.8923 306.027L77.2028 305.906C78.6469 306.54 80.1046 307.148 81.5758 307.715C81.4948 309.173 81.5758 310.928 82.1022 312.696H82.0887Z" fill="#6D00FF"/>
<path d="M101.565 313.911C98.3931 315.841 94.6004 316.57 90.7808 316.071C92.2654 314.991 93.6691 313.52 94.7354 312.156C97.0029 312.791 99.2704 313.371 101.565 313.911Z" fill="#6D00FF"/>
<path d="M269.062 252.22C265.418 256.904 261.369 261.264 257.05 265.327C231.392 289.369 197.852 304.286 163.259 309.645C160.722 309.969 157.199 310.401 154.648 310.725C151.679 310.914 147.994 311.292 145.039 311.373C140.544 311.589 134.187 311.589 129.612 311.441L121.918 310.928L114.252 310.104C111.701 309.726 109.164 309.308 106.626 308.916C102.213 308.079 95.8286 306.648 91.5905 305.474C89.9574 304.975 86.7181 303.989 85.1389 303.503C79.6187 301.64 74.1929 299.453 68.9561 296.902C71.2505 297.388 73.545 297.847 75.8395 298.265C88.3782 300.331 101.308 301.303 114.373 301.289C124.159 303.787 138.978 306.122 159.845 305.933C186.326 305.69 207.395 291.286 219.852 280.001C229.408 276.046 238.64 271.591 247.413 266.65C254.472 262.56 261.922 257.741 269.035 252.233L269.062 252.22Z" fill="url(#paint9_linear_12_511)"/>
<path d="M53.3647 240.671C54.4984 235.57 53.748 231.063 51.6887 230.605C49.6294 230.147 47.041 233.912 45.9074 239.014C44.7737 244.116 45.5241 248.622 47.5834 249.08C49.6427 249.538 52.2311 245.773 53.3647 240.671Z" fill="#00D5D6"/>
<path d="M154.918 121.709C150.937 124.584 147.077 126.92 144.134 128.351C135.496 132.535 143.486 123.504 143.486 123.504C143.486 123.504 146.753 121.601 151.274 118.172C152.475 118.969 153.812 120.103 154.918 121.709Z" fill="white"/>
<path d="M160.83 116.498C160.911 116.62 160.992 116.755 161.073 116.876C159.939 117.835 158.792 118.78 157.631 119.671C157.577 119.59 157.51 119.495 157.456 119.414C156.403 117.97 155.215 116.849 154.055 115.985C155.215 115.04 156.444 114.014 157.685 112.894C158.657 113.69 159.777 114.851 160.83 116.485V116.498Z" fill="white"/>
<path d="M174.003 101.46C172.033 105.847 168.118 110.437 163.61 114.608C163.53 114.473 163.435 114.338 163.341 114.203C162.288 112.665 161.181 111.49 160.155 110.599C162.274 108.561 164.407 106.32 166.445 103.877C176.514 91.7542 177.161 88.123 177.161 88.123C177.161 88.123 178.849 90.7148 174.003 101.447V101.46Z" fill="white"/>
<path d="M190.861 187.963C190.861 187.963 188.998 184.966 181.602 184.71C174.206 184.453 168.915 186.141 169.185 186.64C169.455 187.14 174.206 188.746 176.851 191.851C179.483 194.956 179.793 195.779 180.374 195.415C180.954 195.05 178.619 190.812 179.496 189.408C180.374 188.004 183.734 186.249 188.134 188.112C192.534 189.975 193.722 190.906 190.874 187.963H190.861Z" fill="white"/>
<path d="M180.509 177.92C180.509 177.92 186.259 173.816 191.644 174.545C197.029 175.274 200.768 178.095 200.808 179.58C200.849 181.065 196.8 178.703 190.982 177.366C185.165 176.03 181.508 178.095 180.509 177.92Z" fill="white"/>
<path d="M195.666 124.611C195.666 124.611 190.065 125.462 185.098 130.376C180.131 135.289 178.66 140.675 178.66 140.675C178.66 140.675 180.293 143.794 180.779 150.557C181.251 157.32 180.671 164.772 180.671 165.325C180.671 165.879 184.369 163.179 188.904 163.179C193.439 163.179 198.514 163.867 198.622 163.705C198.73 163.543 195.032 160.695 190.281 160.371C185.53 160.047 183.843 158.157 183.843 154.823C183.843 151.218 186.218 149.274 189.012 146.683C191.806 144.091 193.344 141.877 193.182 141.985C193.02 142.093 188.796 144.347 185.624 143.78C182.452 143.213 184.193 137.611 187.784 132.697C191.374 127.784 195.652 124.611 195.652 124.611H195.666Z" fill="white"/>
<path d="M142.569 141.283C147.279 140.081 154.028 135.721 158.576 131.604C163.124 127.487 163.948 125.786 162.247 126.825C160.547 127.865 155.674 131.671 148.399 135.465C141.124 139.258 135.834 141.161 137.062 142.039C138.29 142.916 139.572 142.039 142.582 141.283H142.569Z" fill="white"/>
<path d="M150.599 145.103C150.599 145.103 136.239 152.096 130.367 152.987C124.483 153.878 126.44 155.214 132.324 156.065C138.209 156.915 150.221 152.622 150.599 152.109C150.977 151.596 149.466 148.667 150.599 145.103Z" fill="white"/>
<path d="M208.111 139.051C208.874 138.753 209.105 137.515 208.625 136.285C208.146 135.056 207.138 134.301 206.374 134.599C205.61 134.897 205.38 136.135 205.859 137.365C206.339 138.594 207.347 139.349 208.111 139.051Z" fill="white"/>
<path d="M161.208 71.1814C164.218 71.1814 161.964 63.3384 169.252 57.0612C176.54 50.7841 180.225 48.9482 178.929 47.9898C177.634 47.0313 169.171 50.9461 164.069 59.4911C158.967 68.0361 161.208 71.1814 161.208 71.1814Z" fill="#F7C8D4"/>
<path d="M118.382 111.639C114.05 112.287 108.57 114.595 110.324 116.741C112.079 118.888 123.525 116.795 125.914 114.608C128.302 112.422 123.268 110.91 118.396 111.639H118.382Z" fill="#FF6EC5"/>
<path d="M73.744 124.362C75.3475 124.018 76.5169 123.131 76.356 122.38C76.195 121.629 74.7647 121.299 73.1612 121.643C71.5577 121.987 70.3883 122.874 70.5492 123.625C70.7102 124.376 72.1405 124.706 73.744 124.362Z" fill="#FF6EC5"/>
<path d="M89.1611 315.463C89.1611 315.463 84.0997 314.181 83.1954 313.007C82.2911 311.832 82.6015 310.226 83.1954 310.442C83.7893 310.658 91.1721 312.629 91.4826 313.493C91.793 314.356 89.7144 315.585 89.1611 315.477V315.463ZM154.5 319.959C154.756 320.013 157.402 320.796 161.653 320.566C165.918 320.337 167.714 319.311 167.714 319.311C167.714 319.311 168.631 318.271 168.253 317.596C167.876 316.921 165.23 318.136 161.424 318.622C157.631 319.122 153.65 318.906 153.42 318.973C153.191 319.041 153.852 319.81 154.5 319.959ZM229.246 296.875C229.476 296.875 233.646 296.376 237.344 293.851C241.056 291.327 241.326 289.977 241.326 289.977C241.326 289.977 241.569 288.046 240.584 287.966C239.598 287.885 236.818 292.623 232.958 294.162C229.098 295.701 227.762 295.39 227.721 295.809C227.681 296.227 229.246 296.875 229.246 296.875Z" fill="#FF95FF"/>
<path d="M295.004 200.369C293.317 193.079 290.469 188.665 287.796 186.006C287.81 184.804 287.769 183.589 287.675 182.361C287.351 178.271 286.325 174.316 284.719 170.59C288.917 175.044 292.264 180.309 293.951 186.208C295.301 191.055 295.571 195.793 294.99 200.383L295.004 200.369Z" fill="white"/>
<path d="M134.875 197.872C133.107 198.817 139.842 198.965 146.321 199.586C152.799 200.207 153.366 198.493 151.261 197.912C149.155 197.332 140.274 194.969 134.889 197.872H134.875Z" fill="#F7C8D4"/>
</g>
<defs>
<linearGradient id="paint0_linear_12_511" x1="171.425" y1="174.005" x2="186.856" y2="205.74" gradientUnits="userSpaceOnUse">
<stop stop-color="#FF00FF"/>
<stop offset="1" stop-color="#6400EB"/>
</linearGradient>
<linearGradient id="paint1_linear_12_511" x1="97.9071" y1="209.778" x2="113.338" y2="241.513" gradientUnits="userSpaceOnUse">
<stop stop-color="#FF00FF"/>
<stop offset="1" stop-color="#6400EB"/>
</linearGradient>
<linearGradient id="paint2_linear_12_511" x1="80.4825" y1="251.531" x2="108.016" y2="251.531" gradientUnits="userSpaceOnUse">
<stop stop-color="#FF00FF"/>
<stop offset="1" stop-color="#6400EB"/>
</linearGradient>
<linearGradient id="paint3_linear_12_511" x1="163.597" y1="301.1" x2="172.629" y2="330.771" gradientUnits="userSpaceOnUse">
<stop stop-color="#FF00FF"/>
<stop offset="1" stop-color="#6400EB"/>
</linearGradient>
<linearGradient id="paint4_linear_12_511" x1="162.477" y1="198.25" x2="199.47" y2="350.154" gradientUnits="userSpaceOnUse">
<stop stop-color="#00A6B8"/>
<stop offset="1" stop-color="#640085"/>
</linearGradient>
<linearGradient id="paint5_linear_12_511" x1="50.8161" y1="225.451" x2="87.8095" y2="377.341" gradientUnits="userSpaceOnUse">
<stop stop-color="#00A6B8"/>
<stop offset="1" stop-color="#640085"/>
</linearGradient>
<linearGradient id="paint6_linear_12_511" x1="34.3634" y1="211.411" x2="49.4935" y2="211.411" gradientUnits="userSpaceOnUse">
<stop stop-color="#FF00FF"/>
<stop offset="1" stop-color="#6400EB"/>
</linearGradient>
<linearGradient id="paint7_linear_12_511" x1="203.359" y1="238.963" x2="224.333" y2="238.963" gradientUnits="userSpaceOnUse">
<stop stop-color="#FF00FF"/>
<stop offset="1" stop-color="#6400EB"/>
</linearGradient>
<linearGradient id="paint8_linear_12_511" x1="251.557" y1="165.217" x2="265.54" y2="165.217" gradientUnits="userSpaceOnUse">
<stop stop-color="#FF00FF"/>
<stop offset="1" stop-color="#6400EB"/>
</linearGradient>
<linearGradient id="paint9_linear_12_511" x1="172.545" y1="290.004" x2="179.148" y2="318.797" gradientUnits="userSpaceOnUse">
<stop stop-color="#00A6B8"/>
<stop offset="1" stop-color="#640085"/>
</linearGradient>
<clipPath id="clip0_12_511">
<rect width="309" height="332" fill="white"/>
</clipPath>
</defs>
</svg>
