<svg width="307" height="330" viewBox="0 0 307 330" fill="none" xmlns="http://www.w3.org/2000/svg">
<g clip-path="url(#clip0_11_148)">
<path d="M116.409 0C102.879 0 86.8005 4.76336 73.3909 12.7604C56.9105 22.475 45.3648 39.6365 40.0009 62.3664C39.3573 64.9024 38.7807 67.4518 38.2175 69.9073C38.07 70.5379 37.9225 71.182 37.7884 71.8126C34.0605 77.1932 33.457 84.6938 36.2731 91.7248C36.8899 93.241 37.5872 94.5694 38.4052 95.7368C38.5795 100.353 39.6925 104.955 41.704 109.369C40.4971 109.477 38.2175 109.866 35.8305 111.275C32.9072 113.006 29.3269 116.561 28.8575 123.686C28.7637 125.122 29.1123 126.544 29.823 127.752C29.3537 127.94 28.8978 128.181 28.4821 128.476C21.2677 133.441 21.67 141.868 21.737 142.82V142.847C21.9382 145.41 23.5205 147.677 25.8404 148.751C30.5337 150.925 36.1256 153.259 42.4817 155.688C42.6426 156.48 42.8438 157.218 43.0583 157.889C41.5833 160.747 40.2289 164.826 41.0469 169.374C40.8323 171.011 40.7519 172.487 40.886 174.07C34.1812 180.028 28.8307 185.932 24.6067 192.051C23.7887 192.788 22.9439 193.795 21.8711 195.07C20.5168 196.666 18.8942 198.666 17.7141 200.128L17.285 200.651C16.5609 201.456 15.4345 202.825 14.8043 203.63C5.10909 215.599 -0.0133834 228.534 2.62603e-05 241.066C0.0134359 254.739 6.19527 267.285 17.8616 277.375H17.8751L17.8885 277.402C27.1947 285.318 38.5795 291.343 52.6462 295.811C56.9641 298.991 61.6843 301.93 66.7397 304.573C67.7857 311.067 71.5672 316.971 77.0249 320.46C80.1494 322.486 83.77 323.828 88.0879 324.552H88.1415L88.1951 324.566C89.6031 324.767 91.0112 324.874 92.3924 324.874C95.1547 324.874 97.8099 324.458 100.304 323.653H100.344L100.384 323.626C103.643 322.513 106.607 320.768 109.074 318.487C116.865 319.829 124.83 320.634 132.822 320.862C134.016 321.882 135.343 322.862 136.778 323.788H136.792L136.805 323.814C143.161 327.867 150.63 330 158.395 330C159.078 330 159.762 329.987 160.446 329.946C169.297 329.53 178.013 324.767 183.725 317.199C184.49 316.193 185.174 315.213 185.777 314.234C195.311 311.537 204.644 308.075 213.589 303.916C217.115 305.593 221.111 306.478 225.295 306.478C228.996 306.478 232.805 305.781 236.291 304.466C245.986 301.004 252.718 291.866 253.429 281.186C253.509 280.112 253.536 279.092 253.509 278.1C264.022 268.761 272.51 258.442 278.773 247.373C295.575 232.237 305.002 216.069 306.812 199.296V199.269V199.243C307.831 188.642 304.72 177.479 298.297 168.609C295.454 164.718 292.035 161.082 288.387 158.09C283.48 153.957 278.035 150.75 272.779 147.664L272.256 147.355C270.968 146.537 256.432 137.413 247.931 134.192C243.412 132.475 238.557 130.972 233.073 129.617C231.155 129.134 229.224 128.718 227.347 128.315C225.751 127.98 224.209 127.645 222.694 127.282C222.506 126.638 222.318 125.994 222.13 125.377L222.104 125.283L222.077 125.189C221.929 124.773 221.795 124.344 221.661 123.928C221.098 122.197 220.454 120.224 218.926 118.225L218.899 118.185L218.872 118.145C216.74 115.488 213.964 113.556 210.598 112.402L208.949 109.423C208.198 108.054 206.978 106.941 205.543 106.297C205.436 106.243 205.315 106.189 205.181 106.122C204.953 105.975 204.711 105.854 204.47 105.733C201.56 103.989 200.581 101.372 200.487 101.117C199.723 98.6485 197.698 96.7565 195.191 96.1527L194.024 95.8709C193.193 93.8717 192.08 92.02 190.739 90.3562C191.034 88.9339 191.235 87.525 191.342 86.1564V86.0088L191.355 85.8612C191.436 81.5943 191.235 76.6968 187.735 72.6043C187.534 72.3762 187.332 72.1615 187.118 71.9468C189.277 66.6602 190.739 61.5614 191.57 56.4491V56.4223V56.3955C192.267 51.7394 192.214 47.4591 191.422 43.6484C191.262 42.897 191.007 41.8639 190.457 40.7368L190.417 40.6563L190.376 40.5757C188.258 36.5772 184.57 34.3767 179.971 34.3767C178.04 34.3767 175.961 34.7524 173.722 35.5306C167.822 26.0978 160.312 17.9532 151.945 11.9285C141.887 4.6426 131.106 0.684313 119.882 0.107343C118.756 0.0402537 117.576 0 116.409 0Z" fill="white"/>
<path d="M173.668 64.5401C167.58 66.0564 166.226 74.2413 166.065 79.6755C164.657 72.8458 165.207 63.3728 172.689 60.3269C175.478 59.7768 176.417 63.8022 173.668 64.5267V64.5401Z" fill="#18003B"/>
<path d="M128.424 120.546C126.466 121.164 124.133 121.741 122.792 123.431C123.221 121.056 125.192 119.258 126.815 117.581C129.027 115.689 131.2 119.741 128.411 120.56L128.424 120.546Z" fill="#18003B"/>
<path d="M212.972 136.608C209.619 122.331 193.327 126.383 195.915 140.029C198.623 153.501 215.412 151.126 212.972 136.608ZM205.623 144.216C200.326 144.511 198.261 134.206 203.263 132.421C208.359 131.549 210.531 143.169 205.623 144.216Z" fill="#18003B"/>
<path d="M294.301 171.709C288.092 162.934 278.867 157.003 269.694 151.77C269.694 151.77 254.528 142.176 246.187 139.01C237.283 135.454 227.91 133.884 218.657 131.536C217.021 124.21 214.983 118.158 206.83 116.696C207.018 115.783 204.966 112.845 204.617 112.026C204.121 111.087 203.008 110.832 202.163 110.322C195.11 106.109 197.336 102.647 194.01 101.158L190.216 100.259C189.357 97.1188 187.654 94.2071 185.281 91.9798C186.796 86.1296 187.976 76.576 180.815 74.1205C186.514 63.413 194.882 30.244 171.657 41.9444C152.776 5.19274 110.294 -5.11222 75.9119 17.2286C55.2745 29.1303 46.6387 51.8602 42.361 74.1474C37.8688 79.8634 38.8477 88.7729 43.3265 94.2206C43.0985 107.947 52.5389 119.782 63.9371 126.558C64.5941 128.517 65.5596 130.342 66.7531 132.005C57.4334 126.236 49.8972 119.071 42.4817 114.495C42.4012 114.495 34.4225 114.602 33.7788 124.236C33.7252 124.988 34.0872 125.726 34.7041 126.155C34.8114 126.236 44.1847 132.676 54.9258 139.734C54.1346 139.922 53.3703 140.177 52.6596 140.485C51.6002 140.432 31.7406 130.878 31.2712 132.784C25.9208 136.903 25.7062 143.558 27.892 144.484C33.1754 146.939 39.5986 149.569 46.9739 152.347C47.108 155.111 47.8857 157.271 48.5026 158.573C47.1482 160.599 44.8954 164.852 46.0486 169.428C45.6598 172.004 45.5793 173.722 46.1961 176.15C39.5986 181.974 33.1754 188.334 28.2406 195.714C6.11476 216.941 -6.95962 250.781 21.0799 273.859C30.8958 282.205 42.6292 287.747 54.9124 291.571C60.0617 295.449 65.5999 298.777 71.3794 301.621C71.4062 319.199 96.6968 326.605 107.317 313.375C116.355 315.093 125.541 316.019 134.74 316.18C148.27 329.504 173.775 328.39 182.478 310.235C193.018 307.377 203.572 303.486 213.723 298.589C229.492 308.263 251.511 295.073 248.386 276.208C259.087 267.043 268.206 256.416 274.844 244.447C295.763 226.682 312.297 196.304 294.288 171.722L294.301 171.709Z" fill="black"/>
<path d="M226.341 181.41C223.941 204.798 181.459 225.729 135.772 224.602C142.692 223.851 148.284 219.946 154.238 217.061C157.107 219.383 162.471 218.014 165.18 215.827C172.863 214.069 180.789 214.056 188.137 210.594C208.627 200.96 219.274 177.868 220.736 156.091C226.247 162.035 228.554 171.83 226.354 181.424L226.341 181.41Z" fill="url(#paint0_linear_11_148)"/>
<path d="M124.187 224.321C109.49 223.931 87.5515 218.215 78.2988 209.064C80.7528 208.004 83.247 206.408 85.768 204.288C88.356 216.9 107.988 223.448 118.045 222.67V222.227C120.03 223.073 122.041 223.905 124.187 224.321Z" fill="url(#paint1_linear_11_148)"/>
<path d="M39.3707 198.786C25.827 202.677 28.2809 228.587 44.0372 223.985C56.6155 219.665 54.3224 195.177 39.3707 198.786ZM48.7708 212.258C40.8457 231.768 25.4649 208.716 40.1216 200.96C46.813 198.424 50.5945 206.783 48.7708 212.258Z" fill="black"/>
<path d="M107.84 241.495C102.476 234.988 92.7946 232.586 85.017 235.833C78.7413 238.369 74.8391 245.024 77.1322 251.653C84.0515 272.196 122.832 263.595 107.84 241.495ZM105.118 256.913C85.4193 273.35 64.8087 236.101 96.1873 239.644C103.643 241.012 111.246 250.11 105.118 256.913Z" fill="black"/>
<path d="M218.268 222.737C208.479 221.852 197.658 228.319 195.579 238.315C193.984 259.086 226.368 251.25 228.808 235.981C230.471 228.802 225.188 223.408 218.282 222.737H218.268ZM225.255 235.27C223.753 245.199 205.516 253.424 199.911 243.186C195.781 230.64 225.778 218.739 225.255 235.27Z" fill="black"/>
<path d="M263.003 156.909C242.419 141.264 238.557 167.415 256.942 175.198C271.062 179.679 271.907 163.94 263.003 156.909ZM263.392 170.528C257.934 173.896 250.049 166.905 248.051 161.86C246.71 158.68 247.287 154.628 251.35 154.454C258.015 154.507 266.919 164.074 263.392 170.528Z" fill="black"/>
<path d="M123.315 54.9732C121.464 60.2196 117.428 57.1871 113.727 56.476C108.444 55.3489 102.838 56.476 99.7944 61.3869C100.224 59.5218 101.055 57.6299 102.423 56.0332C105.306 51.404 124.616 45.2854 123.315 54.9732Z" fill="black"/>
<path d="M61.9257 72.1615C61.6709 73.463 60.4104 74.3084 59.1096 74.0534C56.3741 72.6446 52.8205 74.3889 50.8493 76.576C51.6673 71.3967 61.9525 65.7478 61.9257 72.1615Z" fill="black"/>
<path d="M134.297 111.302C123.771 107.974 112.104 109.343 103.589 116.83C104.005 115.89 104.528 115.005 105.105 114.16C102.436 113.797 93.0494 111.556 93.8674 97.8971C96.0532 59.8036 158.327 71.1149 128.008 105.022C130.73 105.25 133.359 105.679 135.947 106.578C139.018 107.773 137.435 112.294 134.284 111.288L134.297 111.302Z" fill="black"/>
<path d="M89.7104 167.04C84.0515 171.28 78.9425 179.303 78.2988 177.116C77.6551 174.929 73.297 163.497 75.8583 162.115C78.4195 160.733 89.7104 167.04 89.7104 167.04Z" fill="#E43C37"/>
<path d="M105.118 256.926C98.0512 264.467 82.952 260.723 80.2298 250.754C78.1916 241.549 88.6779 237.564 96.1873 239.657C99.3117 240.435 102.275 242.046 104.434 244.407C107.773 247.882 108.497 253.303 105.118 256.926Z" fill="url(#paint2_linear_11_148)"/>
<path d="M232.872 194.56C224.303 211.439 206.615 221.436 188.968 226.535C184.302 227.97 179.434 229.017 174.634 229.943C174.124 230.05 173.078 230.238 172.555 230.318C170.141 230.667 166.601 231.311 164.187 231.526C134.767 234.907 97.7427 234.303 72.9617 216.283C70.4273 214.391 68.0002 212.298 65.7876 210.017C66.1228 210.124 66.4581 210.218 66.7933 210.299C68.0404 210.621 69.3277 210.809 70.6553 210.849C70.843 210.849 71.0173 210.849 71.2051 210.849C71.7951 210.849 72.3851 210.809 72.9752 210.742C75.0671 213.076 80.6857 218.376 91.762 222.764C103.348 227.366 117.267 229.661 133.345 229.661C143.335 229.661 154.144 228.775 165.756 226.991C202.056 221.436 225.831 205.281 231.008 182.671C233.059 173.735 231.651 164.544 227.588 157.607C225.899 154.266 223.632 151.367 220.87 149.153C220.87 148.335 220.83 147.53 220.789 146.711C224.558 148.778 227.964 151.703 230.726 154.963C232.04 156.52 233.207 158.17 234.213 159.901C236.532 163.9 237.927 168.314 237.94 172.97C238.101 180.431 236.197 187.891 232.858 194.546L232.872 194.56Z" fill="#596979"/>
<path d="M142.745 167.818C142.263 166.302 141.579 164.893 140.721 163.645C140.774 163.645 140.815 163.658 140.868 163.672C141.834 164.181 142.611 164.745 142.987 165.403C143.108 166.221 142.987 167.039 142.745 167.831V167.818Z" fill="#FCEE81"/>
<path d="M167.875 198.531C167.875 200.759 167.433 203.013 166.695 205.12C166.065 206.891 165.287 208.662 164.295 210.272C163.651 210.903 162.029 212.392 160.178 213.09C161.76 211.023 163.262 207.91 163.571 203.402C164.241 193.446 156.356 188.065 152.092 186.603C151.944 186.549 151.797 186.522 151.649 186.495C151.676 186.388 151.703 186.281 151.73 186.173C152.213 185.905 152.722 185.731 153.259 185.61C155.86 185.046 158.944 186.053 160.138 186.616C160.205 186.657 160.272 186.67 160.339 186.697C160.58 186.791 160.835 186.831 161.09 186.844C162.994 187.515 164.523 188.964 165.649 190.642C167.205 193.017 167.875 195.74 167.862 198.505L167.875 198.531Z" fill="#E43C37"/>
<path d="M167.875 198.531C167.875 200.759 167.433 203.013 166.695 205.12C166.065 206.891 165.287 208.662 164.295 210.272C163.651 210.903 162.029 212.392 160.178 213.09C161.76 211.023 163.262 207.91 163.571 203.402C164.241 193.446 156.356 188.065 152.092 186.603C151.944 186.549 151.797 186.522 151.649 186.495C151.676 186.388 151.703 186.281 151.73 186.173C152.213 185.905 152.722 185.731 153.259 185.61C156.598 186.656 161.345 189.179 163.383 195.271C164.59 198.853 166.239 199.35 167.862 198.531H167.875Z" fill="#BE1A0A"/>
<path d="M94.1222 310.276C92.5399 309.833 90.9843 309.377 89.4288 308.88C88.0074 308.424 86.5994 307.941 85.1914 307.431C83.7968 306.935 82.4156 306.425 81.0478 305.875C79.5861 305.298 78.1379 304.694 76.7031 304.077C76.5556 304.023 76.4081 303.956 76.2606 303.889C76.3008 303.996 76.3544 304.09 76.3947 304.197C77.5077 306.666 79.0766 308.827 81.1283 310.49C81.2624 310.611 81.4099 310.718 81.5574 310.826C83.1933 312.074 85.1109 313.026 87.3101 313.563C88.2622 313.845 89.2277 314.046 90.1932 314.167C93.9881 314.663 97.7562 313.952 100.907 312.02C98.6278 311.483 96.375 310.906 94.1222 310.276ZM168.452 313.415C167.017 313.684 165.582 313.925 164.161 314.14C163.088 314.355 161.318 314.543 160.218 314.677C157.965 314.945 154.546 315.428 152.307 315.549C151.797 315.589 151.301 315.629 150.791 315.67C148.807 315.831 146.835 315.951 144.837 316.032C147.305 317.105 149.906 317.91 152.548 318.42C153.674 318.635 154.814 318.796 155.967 318.903C159.937 319.413 163.624 318.957 167.004 317.709C170.45 316.448 173.574 314.395 176.35 311.752C173.695 312.369 171.067 312.906 168.438 313.389L168.452 313.415ZM239.027 283.574C234.347 286.969 229.452 290.109 224.397 292.98C222.6 294 220.79 294.993 218.966 295.959C221.876 296.428 224.866 296.334 227.763 295.731C230.217 295.221 232.603 294.349 234.789 293.154C237.002 291.933 238.799 290.229 240.247 288.23C242.084 285.707 243.358 282.715 244.216 279.643C242.527 280.984 240.797 282.299 239.027 283.574Z" fill="url(#paint3_linear_11_148)"/>
<path d="M232.872 194.332C224.303 211.211 206.615 221.208 188.968 226.306C184.302 227.742 179.434 228.789 174.634 229.715C174.124 229.822 173.078 230.01 172.555 230.09C170.141 230.439 166.601 231.083 164.187 231.298C134.767 234.679 97.7427 234.075 72.9617 216.055C71.0978 214.673 69.3009 213.17 67.6113 211.574C66.9945 210.983 66.391 210.393 65.7876 209.789C67.3431 210.285 68.9791 210.567 70.6553 210.634C70.843 210.634 71.0173 210.634 71.2051 210.634C71.7951 210.634 72.3851 210.594 72.9752 210.527C75.0671 212.862 80.6857 218.162 91.762 222.549C103.348 227.152 117.267 229.446 133.345 229.446C143.335 229.446 154.144 228.561 165.756 226.776C202.056 221.221 225.831 205.066 231.008 182.457C232.912 174.151 231.826 165.631 228.406 158.895C226.717 155.554 224.45 152.656 221.688 150.442C221.42 150.227 221.165 150.026 220.883 149.824C220.883 148.711 220.843 147.61 220.789 146.497C224.558 148.563 227.964 151.488 230.726 154.749C232.416 156.748 233.877 158.908 235.031 161.189C236.854 164.785 237.927 168.676 237.94 172.742C238.101 180.202 236.197 187.663 232.858 194.318L232.872 194.332Z" fill="white"/>
<path d="M72.1438 214.78C96.9248 232.801 133.949 233.404 163.37 230.023C165.77 229.822 169.31 229.164 171.737 228.816C172.247 228.735 173.306 228.561 173.816 228.44C178.616 227.514 183.484 226.467 188.15 225.032C205.798 219.933 223.485 209.937 232.054 193.057C235.379 186.388 237.297 178.941 237.136 171.481C237.136 166.556 235.554 161.887 232.992 157.714C232.295 156.694 231.544 155.701 230.753 154.762C227.99 151.502 224.584 148.576 220.816 146.51C220.857 147.396 220.883 148.295 220.897 149.18C223.109 150.965 225 153.192 226.542 155.715C231.41 162.813 233.234 172.769 231.021 182.457C225.845 205.066 202.07 221.221 165.77 226.776C154.157 228.561 143.336 229.446 133.359 229.446C117.281 229.446 103.361 227.152 91.7755 222.549C80.6992 218.162 75.0805 212.862 72.9886 210.527C72.3986 210.594 71.7952 210.634 71.2185 210.634C71.0308 210.634 70.8431 210.634 70.6688 210.634C69.2205 210.581 67.8125 210.353 66.4581 209.977C68.2684 211.708 70.1726 213.318 72.1706 214.794L72.1438 214.78Z" fill="#778FB3"/>
<path d="M230.739 154.749C227.977 151.488 223.78 147.852 220.012 145.786C220.052 146.671 220.065 147.664 220.079 148.563C220.146 148.617 221.004 149.288 221.071 149.341C221.178 149.435 221.286 149.516 221.393 149.61C221.634 149.811 221.862 150.026 222.09 150.227C222.184 150.321 222.278 150.401 222.372 150.495C222.68 150.79 222.975 151.086 223.257 151.394C223.324 151.475 223.391 151.555 223.471 151.622C223.686 151.864 223.914 152.105 224.115 152.36C224.222 152.481 224.33 152.615 224.437 152.749C224.611 152.964 224.786 153.192 224.96 153.42C225.054 153.554 225.161 153.675 225.255 153.809C225.496 154.145 225.724 154.48 225.952 154.816C226.033 154.95 226.127 155.084 226.207 155.218C226.314 155.393 226.422 155.554 226.529 155.728C226.918 156.292 227.28 156.896 227.628 157.499H232.804C232.161 156.56 231.464 155.648 230.726 154.776L230.739 154.749Z" fill="#596979"/>
<path d="M133.748 229.446C133.345 230.144 132.943 230.855 132.527 231.593C135.665 231.66 138.79 231.647 141.887 231.566C142.236 230.748 142.558 229.956 142.866 229.178C139.755 229.339 136.711 229.433 133.748 229.433V229.446Z" fill="#596979"/>
<path d="M237.082 170.005C237.055 169.656 237.029 169.321 236.988 168.972C236.988 168.931 236.988 168.878 236.975 168.838C236.935 168.435 236.868 168.046 236.801 167.643C236.801 167.59 236.787 167.536 236.774 167.482C236.707 167.107 236.64 166.744 236.559 166.369C236.559 166.342 236.559 166.315 236.546 166.275C236.358 165.443 236.13 164.624 235.862 163.819C235.594 163.001 235.285 162.196 234.937 161.404L229.546 161.377C231.423 166.073 232.255 171.427 231.852 176.888L236.76 177.962C236.827 177.452 236.881 176.942 236.935 176.419C236.935 176.365 236.935 176.311 236.948 176.271C236.988 175.815 237.029 175.359 237.055 174.902C237.055 174.808 237.055 174.715 237.069 174.621C237.096 174.205 237.109 173.789 237.122 173.359C237.122 173.252 237.122 173.131 237.122 173.024C237.122 172.514 237.122 171.991 237.122 171.481C237.122 171.092 237.109 170.689 237.082 170.3C237.082 170.206 237.082 170.099 237.069 170.005H237.082Z" fill="#596979"/>
<path d="M124.401 229.191C117.442 228.789 110.951 227.903 104.93 226.548C104.059 227.018 103.187 227.501 102.302 227.984C107.29 229.164 112.413 230.023 117.589 230.6C117.669 230.6 117.763 230.614 117.844 230.627C118.635 230.721 119.44 230.801 120.231 230.868C120.325 230.868 120.418 230.882 120.512 230.895C121.33 230.976 122.148 231.043 122.966 231.11C123.449 230.439 123.932 229.795 124.388 229.191H124.401Z" fill="#596979"/>
<path d="M74.638 216.498C75.2548 216.9 75.8851 217.303 76.5019 217.679C76.7701 217.84 77.0249 218.001 77.2931 218.162C77.8161 218.47 78.339 218.779 78.862 219.074C79.2643 219.302 79.68 219.53 80.0823 219.745C80.1493 219.785 80.2298 219.826 80.2969 219.866C81.1551 220.322 82.0267 220.778 82.9117 221.208C83.6895 220.698 84.5209 220.188 85.4059 219.665C78.4463 216.042 74.6112 212.365 72.9752 210.527C72.3852 210.594 71.7817 210.634 71.2051 210.634C71.0174 210.634 70.8296 210.634 70.6553 210.634C69.2071 210.581 67.7991 210.353 66.4447 209.977C66.7531 210.272 67.075 210.554 67.3834 210.849C67.5979 211.05 67.8125 211.252 68.0405 211.439C68.3221 211.694 68.6037 211.936 68.8987 212.177C69.1937 212.432 69.5021 212.687 69.8105 212.942C70.0385 213.13 70.2664 213.318 70.4944 213.492C71.0442 213.935 71.6074 214.364 72.1706 214.78C72.8679 215.29 73.5786 215.773 74.2893 216.256C74.41 216.337 74.5307 216.417 74.6514 216.498H74.638Z" fill="#596979"/>
<path d="M232.952 191.151C233.153 190.709 233.341 190.252 233.529 189.796C233.555 189.716 233.596 189.649 233.623 189.568C234.078 188.441 234.508 187.287 234.883 186.133L230.552 184.241C227.213 196.331 218.416 206.488 205.167 214.042C206.106 214.995 207.058 215.934 207.983 216.874C208.587 216.538 209.19 216.189 209.78 215.827C209.82 215.8 209.861 215.773 209.914 215.746C210.504 215.384 211.108 215.022 211.684 214.646C212.891 213.881 214.071 213.076 215.225 212.231C215.251 212.218 215.265 212.204 215.292 212.191C215.815 211.815 216.324 211.426 216.834 211.023C216.928 210.956 217.008 210.889 217.088 210.822C217.544 210.46 218 210.098 218.456 209.722C218.537 209.655 218.617 209.588 218.698 209.521C219.757 208.635 220.776 207.723 221.768 206.77C221.822 206.716 221.862 206.676 221.916 206.622C222.332 206.22 222.747 205.804 223.163 205.374C223.284 205.254 223.404 205.12 223.525 204.999C223.874 204.636 224.209 204.274 224.544 203.899C224.665 203.764 224.799 203.617 224.92 203.483C225.268 203.093 225.617 202.691 225.952 202.275C226.046 202.168 226.127 202.06 226.22 201.953C226.65 201.43 227.052 200.906 227.454 200.383C227.508 200.316 227.561 200.235 227.615 200.168C227.95 199.712 228.285 199.256 228.607 198.786C228.728 198.612 228.849 198.437 228.969 198.263C229.224 197.887 229.479 197.512 229.72 197.122C229.841 196.921 229.962 196.733 230.096 196.532C230.337 196.143 230.579 195.74 230.806 195.338C230.914 195.163 231.021 194.976 231.115 194.801C231.437 194.224 231.759 193.634 232.067 193.043C232.322 192.534 232.563 192.024 232.805 191.5C232.858 191.38 232.912 191.259 232.965 191.138L232.952 191.151Z" fill="#596979"/>
<path d="M267.321 250.7C263.7 255.356 259.677 259.69 255.386 263.729C229.895 287.626 196.572 302.453 162.203 307.78C159.682 308.102 156.182 308.531 153.647 308.853C150.697 309.041 147.037 309.417 144.1 309.497C139.634 309.712 133.318 309.712 128.773 309.565L121.129 309.055L113.512 308.236C110.978 307.86 108.457 307.444 105.936 307.055C101.551 306.223 95.2083 304.801 90.9977 303.634C89.3751 303.137 86.1568 302.158 84.5879 301.675C79.1034 299.823 73.7127 297.649 68.5098 295.113C70.7894 295.596 73.069 296.053 75.3487 296.469C87.8062 298.522 100.653 299.488 113.633 299.474C149.155 299.407 185.737 291.853 218.443 278.314C227.937 274.383 237.109 269.955 245.825 265.044C252.839 260.978 260.241 256.188 267.307 250.714L267.321 250.7Z" fill="#E43C37"/>
<path d="M266.342 243.562C222.68 277.026 159.253 292.671 104.796 292.376C73.3238 292.135 17.8214 283.896 9.11854 247.681C6.00751 233.659 12.2966 219.504 20.8251 208.581L21.9113 207.159C21.9113 207.159 22.0454 207.011 22.2197 206.81C21.3481 208.93 20.5972 211.091 19.9938 213.331C19.8999 213.694 19.806 214.056 19.7256 214.418C13.0744 242.757 35.4819 262.32 60.1154 271.028C120.365 292.255 209.311 273.873 258.015 233.082C273.074 220.215 287.422 202.194 285.826 181.236C285.504 177.17 284.485 173.239 282.889 169.535C281.911 167.241 280.717 165.027 279.349 162.92C279.47 163.001 279.591 163.095 279.698 163.175C286.966 168.703 293.188 176.15 295.723 185.046C302.293 208.689 283.707 229.835 266.355 243.548L266.342 243.562Z" fill="#BE1A0A"/>
<path d="M293.094 199.162C290.935 216.417 276.815 231.513 263.446 242.072C220.91 274.678 159.092 289.921 106.043 289.639C75.3755 289.411 21.2945 281.373 12.8062 246.098C10.3522 235.055 13.8924 223.918 19.739 214.432C13.0878 242.77 35.4953 262.333 60.1287 271.042C120.378 292.269 209.324 273.886 258.028 233.096C272.215 220.966 285.759 204.288 285.96 184.872C285.974 183.678 285.933 182.47 285.84 181.249C285.518 177.183 284.499 173.252 282.903 169.549C287.073 173.977 290.399 179.21 292.075 185.073C293.416 189.89 293.684 194.6 293.108 199.162H293.094Z" fill="#851A0A"/>
<path d="M19.4306 232.613C18.1969 227.031 18.1835 220.966 19.7256 214.432C13.879 223.918 10.3523 235.055 12.7928 246.098C13.8388 250.432 15.5686 254.363 17.8616 257.906C14.6165 247.05 17.1107 237.913 19.4306 232.613Z" fill="white"/>
<path d="M160.285 275.912C125.393 282.313 89.3617 281.347 60.1019 271.042C52.3109 268.291 44.7345 264.44 38.2308 259.583L26.9667 268.05C47.2555 284.969 83.1531 289.478 106.016 289.652C123.167 289.746 141.23 288.217 159.253 284.996C159.588 281.95 159.937 278.905 160.272 275.912H160.285Z" fill="#7B000A"/>
<path d="M275.554 214.203C270.593 221.315 264.371 227.662 258.001 233.109C249.057 240.596 238.758 247.319 227.535 253.196L235.58 259.704C245.49 254.524 254.85 248.661 263.432 242.086C271.478 235.726 279.792 227.729 285.612 218.605L275.541 214.203H275.554Z" fill="#7B000A"/>
<path d="M195.298 266.869C185.562 270.156 175.505 272.853 165.327 274.946C165.287 277.885 165.233 280.877 165.18 283.896C176.833 281.575 188.419 278.556 199.696 274.799L195.284 266.869H195.298Z" fill="#7B000A"/>
<path d="M209.177 261.703C205.865 263.058 202.499 264.346 199.079 265.554C200.796 268.076 202.539 270.639 204.282 273.215C207.796 271.981 211.255 270.666 214.688 269.284C212.838 266.735 210.987 264.199 209.163 261.689L209.177 261.703Z" fill="#7B000A"/>
<path d="M278.759 170.22C276.721 165.604 273.597 161.216 269.319 157.204C269.051 156.949 268.769 156.721 268.501 156.466C268.193 156.332 267.71 155.809 267.723 155.782C257.384 146.765 244.216 141.559 231.034 138.164C227.293 137.238 223.498 136.326 219.623 136.017C219.636 136.138 219.677 136.259 219.69 136.366C219.864 137.359 220.012 138.352 220.146 139.345C220.213 139.882 220.293 140.418 220.347 140.969C232.55 146.47 242.594 158.868 242.768 172.648C243.049 196.465 227.4 214.915 206.709 224.75C197.564 229.218 187.614 232.17 177.651 234.129C176.913 234.29 175.143 234.612 174.446 234.773C173.802 234.854 169.833 235.511 169.082 235.618C166.655 236.034 162.94 236.397 160.473 236.692C136.148 238.946 110.522 238.49 87.4844 229.486C72.1036 223.422 57.6346 212.352 51.4125 196.586C51.0639 195.593 50.6616 194.519 50.4068 193.446C48.382 188.709 47.3226 184.282 46.8667 182.068C44.0507 184.684 41.3687 187.421 38.8611 190.293C32.6793 197.377 27.5032 205.616 25.1833 214.713C18.7467 240.825 39.8534 257.637 62.0866 265.54C113.472 283.547 183.712 271.31 230.82 245.575C247.528 236.249 263.606 224.468 274.039 208.192C282.004 195.74 284.016 182.229 278.719 170.246L278.759 170.22ZM52.1769 212.929C51.4662 217.451 48.6904 222.281 44.0506 223.985C40.7519 225.273 36.6888 224.414 34.1812 221.959C27.1813 215.25 30.3728 201.846 39.3841 198.786C47.8322 196.197 53.5715 205.374 52.1769 212.942V212.929ZM107.425 259.167C98.4267 267.526 81.1819 263.246 77.1456 251.653C74.8526 245.038 78.7548 238.369 85.0305 235.833C88.9193 234.183 93.2908 234.035 97.3539 234.988C101.404 236.034 105.185 238.208 107.854 241.482C112.212 246.661 112.547 254.363 107.438 259.153L107.425 259.167ZM228.808 235.981C226.207 246.769 210.705 254.632 200.688 249.385C196.679 247.292 194.748 242.703 195.579 238.315C196.679 232.237 201.493 227.581 206.723 224.938C210.303 223.247 214.259 222.294 218.269 222.737C225.174 223.422 230.458 228.802 228.795 235.994L228.808 235.981ZM256.955 175.184C251.444 172.957 247.314 168.247 245.53 162.706C244.659 159.861 244.632 156.319 246.938 154.024C251.605 149.865 259.114 153.273 263.03 156.896C266.208 159.915 269.145 164.02 268.984 168.797C268.595 175.251 262.333 177.385 256.969 175.184H256.955Z" fill="#E43C37"/>
<path d="M64.2723 224.575C64.2723 224.575 60.4506 222.764 56.4143 216.498C56.4143 216.498 45.6598 231.472 44.8686 257.154C48.0601 259.221 51.4661 261.045 54.9795 262.642C54.7649 243.897 64.2723 224.589 64.2723 224.589V224.575Z" fill="url(#paint4_linear_11_148)"/>
<path d="M31.754 218.658C28.2273 211.574 31.6735 201.403 39.3707 198.773C39.612 198.706 39.84 198.639 40.068 198.585C42.5487 195.07 45.4989 191.997 48.9183 189.488C47.8455 186.334 47.2019 183.624 46.8801 182.041C44.064 184.657 41.3821 187.394 38.8745 190.266C32.6927 197.351 27.5166 205.589 25.1967 214.686C22.1527 227.031 25.2771 237.296 31.754 245.521C30.0107 236.558 30.0107 227.259 31.7406 218.645L31.754 218.658Z" fill="white"/>
<path d="M72.6266 178.686C68.7646 181.746 63.8164 183.154 59.8069 180.565C60.2897 180.511 60.759 180.417 61.215 180.323C61.9659 180.176 62.7571 180.015 63.8432 179.988C68.9523 179.907 72.5327 176.66 73.7127 173.668C74.1284 172.581 74.2759 171.508 74.1687 170.501C74.5039 170.206 74.8928 169.804 75.2951 169.28C75.8046 172.702 75.7376 176.66 72.64 178.673L72.6266 178.686Z" fill="#FF884B"/>
<path d="M75.8449 179.679C74.6112 184.724 71.4465 188.669 65.734 188.146C64.7551 188.052 63.7762 187.891 62.7839 187.663C60.6249 187.166 58.5062 186.348 56.6691 185.301C54.1615 183.906 52.3512 181.853 51.2382 179.464C51.198 179.344 51.1443 179.236 51.0907 179.129C50.7152 178.257 50.4202 177.344 50.2325 176.405C51.5734 177.613 52.9546 178.364 54.0006 178.941C54.2151 179.062 54.4163 179.169 54.604 179.277C55.6634 179.88 56.5752 180.229 57.3798 180.417C59.3376 182.685 62.2743 184.027 65.2915 184.027C67.6382 184.013 69.958 183.289 72.0499 182.215C72.8009 181.826 73.5116 181.397 74.1955 180.94C74.8123 180.565 75.3487 180.135 75.8181 179.666L75.8449 179.679Z" fill="#E43C37"/>
<path d="M83.2336 200.128C78.7547 204.046 74.5844 205.965 70.8297 205.817C68.3623 205.723 66.1899 204.999 64.2723 203.831C58.3587 200.249 54.9258 192.547 53.1155 186.831C53.7592 187.274 54.4565 187.69 55.194 188.039C57.3932 189.166 59.7265 189.85 62.0464 190.279C65.9754 191.098 69.2607 190.682 71.8086 189.166C74.1955 187.757 75.9253 185.382 76.9176 182.202C76.9713 183.892 77.1992 185.529 77.5211 187.18C78.4866 192.158 80.4578 196.519 83.2336 200.115V200.128Z" fill="#BFCAD6"/>
<path d="M194.936 110.523C191.355 110.993 187.815 111.905 184.476 113.301C184.208 113.422 183.926 113.542 183.658 113.65C185.603 111.248 187.413 108.766 188.982 106.109C189.183 105.747 189.384 105.384 189.572 105.022L191.704 105.532C192.24 106.753 193.246 108.618 194.949 110.523H194.936Z" fill="#BFCAD6"/>
<path d="M161.184 118.4C160.111 119.54 159.065 120.6 158.073 121.566C157.644 120.614 157.147 119.741 156.611 118.963C156.557 118.883 156.49 118.789 156.437 118.708C155.391 117.272 154.211 116.159 153.057 115.3C152.615 114.965 152.172 114.669 151.757 114.414C153.044 113.462 154.318 112.455 155.565 111.436C155.9 111.65 156.276 111.919 156.665 112.241C157.63 113.032 158.743 114.186 159.789 115.81C159.87 115.931 159.95 116.065 160.03 116.186C160.433 116.843 160.822 117.581 161.197 118.4H161.184Z" fill="#E43C37"/>
<path d="M172.113 154.641C169.136 152.91 166.601 150.428 164.724 147.53C164.684 147.463 164.643 147.396 164.603 147.329C162.364 143.786 161.197 139.64 160.808 135.44C162.699 134.085 164.536 132.663 166.333 131.187C165.421 133.884 165.072 136.755 165.461 139.721C165.81 142.203 166.601 144.618 167.768 146.832C168.881 148.925 170.316 150.858 172.046 152.495C172.072 153.206 172.099 153.93 172.113 154.641Z" fill="#E43C37"/>
<path d="M201.493 116.253C198.918 116.306 196.344 116.696 193.97 117.192C193.42 117.313 192.884 117.434 192.361 117.568C184.557 119.46 178.013 124.827 173.963 131.656C172.609 133.951 171.523 136.42 170.772 138.969C170.664 139.372 170.597 139.506 170.503 139.962L170.946 142.109L170.825 141.935V141.961L170.865 142.096C171.469 144.31 171.67 146.617 171.844 148.925C169.819 146.134 168.505 142.807 168.184 139.399C167.714 135.575 169.042 131.818 171.174 128.544C171.831 127.537 172.568 126.571 173.36 125.659C178.294 119.983 185.281 116.602 192.643 115.394C195.284 114.951 197.966 114.804 200.621 114.911C200.688 114.951 200.755 114.991 200.823 115.018L201.506 116.239L201.493 116.253Z" fill="#E43C37"/>
<path d="M48.8646 143.572C48.583 144.014 48.3417 144.484 48.1539 144.994C47.7919 145.973 47.5371 146.926 47.3494 147.838C41.1541 145.49 35.6696 143.25 31.0298 141.143C31.1774 140.016 31.6065 138.325 32.8804 137.024L48.8646 143.572Z" fill="#C7B299"/>
<path d="M102.785 164.208C102.436 164.799 102.128 165.335 101.86 165.765C97.5416 164.477 86.9882 161.283 74.0345 157.11C73.6591 156.721 73.2702 156.332 72.8545 155.956C75.2682 156.413 78.4195 157.137 82.496 158.278C83.7833 158.64 84.7622 158.586 85.4864 158.331C88.5572 159.123 91.6682 160.129 94.6317 161.149C97.3673 162.102 100.089 163.135 102.771 164.208H102.785Z" fill="#C7B299"/>
<path d="M104.649 160.867C104.314 161.498 103.951 162.142 103.603 162.773C98.2121 160.518 92.8483 158.09 87.7526 155.205C87.7795 154.534 87.6588 153.729 87.3101 152.763C86.9078 151.649 86.1971 150.415 85.2719 149.153C93.7199 154.427 100.881 158.667 104.649 160.881V160.867Z" fill="#C7B299"/>
<path d="M71.7683 140.526C71.6476 140.512 71.5404 140.485 71.4331 140.472C70.3067 140.204 66.3508 139.305 61.9659 139.144C51.6271 132.448 41.4894 125.551 38.2443 123.324C38.8209 120.05 40.725 119.151 41.8112 118.896C49.857 125.686 60.9736 133.454 71.7817 140.526H71.7683Z" fill="#C7B299"/>
<path d="M147.975 179.827C147.64 183.409 146.755 186.925 145.173 190.132C141.096 188.454 136.497 188.065 132.259 189.528C127.754 191.031 122.551 195.15 124.884 200.464C126.225 203.268 128.907 204.985 131.964 206.112C131.052 206.421 130.14 206.716 129.215 206.958C126.278 207.696 123.462 208.018 120.66 207.24C117.281 206.22 115.135 203.026 113.955 199.819C113.875 199.658 113.821 199.31 113.606 199.256C111.783 196.894 109.034 195.257 105.842 195.821C103.482 196.304 101.752 198.625 101.042 200.812C100.545 202.436 100.492 204.06 100.747 205.656C98.6814 205.187 96.6834 204.516 94.8061 203.603C89.4154 201 85.4461 196.237 83.4213 190.615C83.0726 189.662 82.7776 188.683 82.5363 187.703C83.7968 188.401 85.1243 188.991 86.4385 189.488C90.515 190.923 94.9133 191.702 99.2044 192.091C108.605 193.084 118.166 192.238 127.284 189.743C133.56 188.012 142.464 184.832 147.962 179.827H147.975Z" fill="white"/>
<path d="M145.991 181.45C140.493 185.529 132.876 188.2 127.298 189.729C125.554 190.212 123.784 190.628 122.014 190.977C121.129 193.553 119.319 196.116 115.712 197.351C115.712 197.351 113.512 192.815 109.677 194.318C108.725 194.694 107.907 195.177 107.21 195.714C109.811 195.754 112.037 197.243 113.606 199.256C113.808 199.31 113.875 199.658 113.955 199.819C114.773 202.033 116.047 204.247 117.884 205.737C123.181 206.367 126.48 205.898 128.531 204.435C127.499 203.576 125.501 201.711 124.897 200.477C122.564 195.163 127.767 191.044 132.273 189.541C135.974 188.253 139.956 188.387 143.617 189.568C145.092 186.67 145.87 183.839 145.991 181.464V181.45Z" fill="#BFCAD6"/>
<path d="M101.846 199.055C98.7351 198.679 93.0896 197.74 88.5035 195.579C88.5035 195.579 91.5341 201.215 100.626 204.194C100.586 203.08 100.72 201.939 101.055 200.812C101.243 200.222 101.511 199.618 101.846 199.055Z" fill="#BFCAD6"/>
<path d="M147.332 173.883C147.305 174.071 147.305 174.245 147.318 174.433C147.224 174.634 147.117 174.822 146.996 175.023C143.657 180.296 137.113 183.691 131.441 186.08C122.148 189.837 111.917 191.621 101.913 190.749C96.9918 190.346 91.8962 189.273 87.5515 187.005C85.2182 185.69 82.9654 184.121 81.7585 181.705C81.7317 181.652 81.7049 181.598 81.678 181.531C81.611 180.954 81.5976 180.216 81.6244 179.478C85.3925 183.758 92.218 184.912 97.7025 185.342C110.147 186.039 130.73 184.563 140.68 176.714C143.577 174.473 146.286 170.971 146.607 167.147C147.56 168.811 147.814 171.065 147.345 173.883H147.332Z" fill="#FF0000"/>
<path d="M87.3772 178.042C87.3772 178.042 87.2833 178.002 87.2431 177.975C85.6875 177.063 84.6282 175.949 84.0918 174.473C84.5611 173.816 85.1914 173.212 85.9155 172.662C86.063 174.513 86.6665 176.392 87.3772 178.042Z" fill="#FCEE81"/>
<path d="M120.123 179.787C112.48 180.806 100.934 181.732 92.7142 179.907C92.3923 179.397 91.9632 178.686 91.5207 177.841C91.1452 177.13 90.7832 176.325 90.4613 175.493C89.5763 173.131 89.469 171.333 90.1127 170.099C90.3809 169.965 90.6491 169.817 90.9039 169.683C90.9039 169.683 90.9173 169.683 90.9307 169.669C91.1855 170.783 91.628 171.816 92.2314 172.756C93.8137 175.251 96.4689 177.076 99.5799 177.962C103.133 179.049 107.183 178.445 110.173 176.231C111.152 176.123 112.118 175.895 113.016 175.573C113.861 175.332 114.706 175.063 115.537 174.768C116.731 175.439 117.763 176.352 118.622 177.438C119.185 178.163 119.694 178.941 120.137 179.76L120.123 179.787Z" fill="#FCEE81"/>
<path d="M129.711 177.707C128.022 178.243 126.292 178.659 124.642 179.022C123.02 176.821 120.888 174.902 118.42 173.748C119.131 173.48 119.842 173.198 120.539 172.93C120.982 172.756 121.411 172.595 121.853 172.42C123.315 172.769 124.736 173.333 125.997 174.164C126.52 174.5 127.016 174.876 127.499 175.292C127.66 175.426 127.821 175.573 127.981 175.734C127.995 175.748 128.022 175.761 128.035 175.775C128.129 175.855 128.209 175.949 128.303 176.043C128.826 176.566 129.309 177.13 129.725 177.734L129.711 177.707Z" fill="#FCEE81"/>
<path d="M136 175.05C134.579 175.869 133.037 176.539 131.455 177.116C130.663 175.788 129.671 174.594 128.531 173.561C127.539 172.662 126.426 171.897 125.232 171.28C125.501 171.226 125.769 171.199 126.01 171.212C128.223 171.105 128.451 168.287 126.788 167.549C126.547 167.442 126.265 167.375 125.943 167.375C123.395 167.496 121.384 168.797 119.225 169.844C116.878 171.092 114.572 172.353 112.212 173.507C109.087 175.184 105.078 175.868 102.637 172.675C103.187 173.936 104.032 174.822 105.064 175.412C105.695 175.761 106.379 176.016 107.116 176.15C104.89 176.767 102.463 176.647 100.344 175.734C96.9918 174.406 94.1758 171.588 94.3367 167.992C95.3022 168.287 96.1872 168.556 97.0052 168.797C99.258 169.482 100.934 169.978 101.873 170.26L101.994 170.3C101.994 170.3 102.034 170.3 102.047 170.313C102.302 170.381 102.53 170.421 102.758 170.421C103.268 170.421 103.71 170.233 104.139 169.857C106.58 171.481 109.785 171.414 112.52 170.77C114.84 170.166 116.717 168.462 118.568 167.201C120.177 166.087 121.987 165.644 123.905 165.671C124.656 165.671 125.514 165.751 126.265 165.872C129.872 166.556 132.635 169.173 134.566 172.286C135.115 173.171 135.612 174.111 136.027 175.037L136 175.05Z" fill="#FCEE81"/>
<path d="M139.97 172.085C139.326 172.729 138.615 173.319 137.864 173.869C137.462 172.903 137.006 171.977 136.483 171.051C133.801 166.328 129.631 162.92 123.972 162.786C121.518 162.612 118.957 163.202 116.865 164.517C114.532 165.926 113.244 167.294 110.871 167.576C109.53 167.684 107.921 167.724 106.727 167.093C107.25 166.717 107.894 166.302 108.618 165.845C111.984 163.725 117.254 160.921 122.309 160.384C127.526 159.834 132.326 160.988 135.451 163.564C137.167 164.973 138.374 166.771 139.058 168.945C139.38 169.938 139.581 170.998 139.688 172.138L139.956 172.111L139.97 172.085Z" fill="#FCEE81"/>
<path d="M105.641 145.598C105.534 146.765 105.869 147.785 106.164 148.67C106.379 149.301 106.566 149.905 106.539 150.361C106.472 151.112 105.789 151.904 105.064 152.749L104.863 152.978C104.381 153.555 103.817 154.266 103.415 155.098C103.147 154.937 102.879 154.776 102.597 154.615C102.275 154.427 101.94 154.225 101.605 154.024C101.725 153.689 101.886 153.326 102.087 152.951C102.879 151.461 104.072 149.516 104.193 147.61C104.246 147.06 104.193 146.43 104.112 145.879C104.059 145.544 103.871 145.088 103.791 144.766C103.428 143.907 102.838 142.981 102.584 142.096C101.967 140.298 102.49 138.164 102.061 136.192C101.792 134.917 100.907 133.79 99.8883 132.998C99.3653 132.529 98.8558 132.019 98.3998 131.469C99.0703 131.173 99.7274 130.851 100.371 130.462C100.492 130.409 100.599 130.342 100.706 130.274C101.457 130.878 102.034 131.482 102.262 132.193C102.383 132.569 102.423 133.052 102.476 133.562C102.53 134.152 102.584 134.81 102.785 135.481C103.227 136.997 104.193 138.137 105.051 139.144C105.199 139.305 105.333 139.479 105.467 139.64C106.365 140.727 106.754 141.572 106.687 142.243C106.66 142.579 106.486 142.981 106.298 143.424C106.043 144.041 105.748 144.752 105.668 145.584L105.641 145.598Z" fill="#FCEE81"/>
<path d="M115.202 146.738C115.202 147.919 114.974 149.127 114.478 150.2C114.411 150.334 114.344 150.468 114.263 150.589C114.183 150.697 114.116 150.817 114.062 150.951C113.15 152.494 111.903 153.742 110.455 154.99C109.557 155.782 108.524 156.627 107.666 157.634C107.264 157.392 106.821 157.137 106.312 156.842C106.459 156.426 106.781 155.903 107.277 155.312C107.317 155.272 107.344 155.245 107.371 155.205L107.572 154.977C108.524 153.877 109.718 152.508 109.865 150.656C109.959 149.516 109.624 148.523 109.342 147.637C109.128 146.993 108.926 146.389 108.967 145.933C109.007 145.598 109.168 145.182 109.356 144.726C109.61 144.122 109.892 143.451 109.972 142.646C110.214 140.485 108.967 138.687 108.001 137.52C107.854 137.346 107.693 137.171 107.545 136.983C106.848 136.165 106.191 135.387 105.949 134.568C105.842 134.206 105.802 133.75 105.762 133.28C105.708 132.636 105.641 131.911 105.4 131.173C105.011 129.966 104.246 129.027 103.428 128.248C103.67 128.034 103.898 127.806 104.139 127.577C104.501 127.215 104.85 126.826 105.158 126.424C105.842 126.826 106.459 127.336 106.902 127.926C107.612 128.785 108.001 130.315 108.31 132.072C108.618 134.018 109.315 136.433 110.67 138.057C110.951 138.433 111.367 138.848 111.675 139.197C113.472 141.291 115.068 143.92 115.175 146.752L115.202 146.738Z" fill="#FCEE81"/>
<path d="M104.85 153.004C104.367 153.581 103.804 154.293 103.402 155.124C103.133 154.963 102.865 154.802 102.584 154.641C102.919 153.742 103.375 152.656 103.79 152.065C104.582 150.978 105.721 150.079 104.903 148.442C104.086 146.792 105.856 142.297 104.635 140.15C103.415 138.003 102.034 136.205 101.712 133.723C101.471 131.871 101.015 130.878 100.331 130.489C100.451 130.435 100.559 130.368 100.666 130.301C101.417 130.905 101.994 131.509 102.222 132.22C102.342 132.596 102.382 133.079 102.436 133.589C102.49 134.179 102.543 134.837 102.745 135.507C103.187 137.024 104.153 138.164 105.011 139.171C105.158 139.332 105.292 139.506 105.426 139.667C106.325 140.754 106.714 141.599 106.647 142.27C106.62 142.606 106.446 143.008 106.258 143.451C106.003 144.068 105.708 144.779 105.628 145.611C105.52 146.778 105.856 147.798 106.151 148.684C106.365 149.314 106.553 149.918 106.526 150.374C106.459 151.126 105.775 151.918 105.051 152.763L104.85 152.991V153.004Z" fill="#D5B03B"/>
<path d="M115.202 146.738C115.202 147.919 114.974 149.127 114.478 150.2C114.411 150.334 114.344 150.468 114.263 150.589C114.183 150.697 114.116 150.817 114.062 150.951C113.15 152.494 111.903 153.742 110.455 154.99C109.557 155.782 108.524 156.627 107.666 157.634C107.264 157.392 106.821 157.137 106.311 156.842C106.459 156.426 106.781 155.903 107.277 155.312C107.934 155.554 108.618 155.661 109.315 154.655C110.696 152.656 112.922 150.442 113.405 148.442C113.888 146.443 113.714 144.296 112.104 141.787C110.509 139.278 108.417 136.219 107.706 134.863C106.995 133.508 106.848 130.073 106.057 128.866C105.721 128.356 104.89 127.846 104.126 127.577C104.488 127.215 104.836 126.826 105.145 126.424C105.829 126.826 106.446 127.336 106.888 127.926C107.599 128.785 107.988 130.315 108.296 132.072C108.605 134.018 109.302 136.433 110.656 138.057C110.938 138.433 111.354 138.848 111.662 139.197C113.459 141.291 115.055 143.92 115.162 146.752L115.202 146.738Z" fill="#D5B03B"/>
<path d="M107.317 216.498C102.262 215.223 96.5627 212.768 92.9824 208.018C95.9057 209.44 99.1508 210.42 102.678 210.876C103.361 212.07 104.153 213.17 105.011 214.177C105.722 215.009 106.499 215.773 107.317 216.498Z" fill="white"/>
<path d="M163.624 115.729C163.276 115.072 162.927 114.468 162.565 113.918C162.484 113.784 162.391 113.65 162.297 113.515C161.251 111.986 160.151 110.818 159.132 109.933C158.797 109.651 158.488 109.396 158.18 109.168C166.185 101.989 172.756 93.4423 176.135 84.6401C176.632 83.352 177.061 82.0639 177.409 80.7758C177.691 80.2793 177.959 79.7694 178.241 79.2596C178.321 79.2327 178.388 79.2059 178.455 79.179C178.817 79.0851 179.407 79.0314 179.662 79.2327C180.413 80.1183 180.467 81.3259 180.547 82.6543C180.963 92.9324 171.952 106.283 163.597 115.743L163.624 115.729Z" fill="#BFCAD6"/>
<path d="M185.656 101.694C181.875 106.605 178.563 111.932 174.54 116.669C166.548 126.41 157.188 135.212 146.205 141.505C137.475 146.497 127.552 149.905 117.468 150.052C117.723 149.06 117.857 148.026 117.83 146.939C117.83 146.939 117.844 146.939 117.857 146.939C119.01 146.524 120.016 146.121 121.089 145.705C125.058 144.108 129.094 142.444 133.077 140.687C133.184 140.633 133.292 140.579 133.412 140.539C133.667 140.418 133.935 140.311 134.19 140.19C137.033 138.916 139.849 137.587 142.585 136.205C146.473 134.179 150.697 132.005 154.372 129.617C164.013 123.579 174.996 113.22 181.298 101.721C182.13 100.218 182.867 98.6887 183.524 97.1591C184.53 98.5143 185.267 100.071 185.683 101.708L185.656 101.694Z" fill="#BFCAD6"/>
<path d="M155.444 124.022C151.153 127.873 146.379 131.227 141.485 134.26C135.907 137.641 129.872 140.915 123.637 142.86C121.692 143.478 119.667 143.934 117.656 144.242C117.509 143.021 117.267 141.814 116.878 140.646C117.737 140.512 118.501 140.204 119.225 139.801C120.874 138.862 122.47 137.842 123.959 136.675C124.294 136.42 124.629 136.151 124.964 135.883C127.539 133.83 129.993 131.616 132.42 129.416C134.566 127.322 137.543 124.049 139.715 121.902C142.759 120.345 145.776 118.561 148.713 116.575C149.182 116.803 149.732 117.098 150.295 117.474C151.489 118.265 152.816 119.393 153.916 120.989C153.942 121.016 153.956 121.043 153.983 121.07C154.559 121.915 155.055 122.895 155.444 124.022Z" fill="#BFCAD6"/>
<path d="M172.032 159.807C171.978 161.055 171.898 162.316 171.791 163.564C170.249 161.149 167.714 161.78 164.576 161.162C160.406 160.344 158.207 155.581 153.875 153.689C153.621 153.568 153.352 153.474 153.084 153.38C149.142 152.065 141.391 157.03 133.466 157.982C130.1 156.627 126.091 156.104 121.907 156.547C121.129 156.627 120.351 156.748 119.587 156.922C116.637 157.54 113.754 158.68 111.233 159.941C111.689 159.096 112.453 158.264 113.043 157.513C114.33 156.01 115.551 154.413 116.436 152.669C117.871 152.481 119.292 152.28 120.713 152.052C126.641 151.099 132.447 149.717 138.052 147.651C143.47 145.718 148.74 143.089 153.674 140.15C155.243 139.197 156.785 138.204 158.301 137.171C158.649 143.129 160.647 148.791 164.228 153.3C166.293 155.916 168.894 158.143 172.019 159.794L172.032 159.807Z" fill="#BFCAD6"/>
<path d="M213.951 130.046C213.428 128.396 212.811 126.423 212.127 124.867L212.073 124.76L211.939 124.532C208.721 119.916 201.614 120.453 196.666 121.432C186.421 123.176 178.952 130.328 176.176 140.257C177.383 143.209 177.731 146.483 178.066 149.583C178.75 156.117 178.469 162.759 177.476 169.227C177.409 169.723 177.316 170.206 177.235 170.689C179.635 169.24 182.277 168.22 185.174 167.898C188.848 167.643 192.683 168.65 195.593 170.917C196.451 171.588 197.242 172.366 197.819 173.292C197.94 173.48 198.06 173.668 198.154 173.869C195.66 173.198 193.447 172.863 191.248 172.688C189.411 172.581 187.574 172.514 185.75 172.756C181.768 173.547 178.174 176.472 175.411 179.518C185.16 176.7 191.208 181.678 193.407 188.039C190.377 185.033 186.367 182.993 182.183 182.296C176.457 181.504 170.651 182.873 165.368 185.127C168.13 188.253 169.779 192.346 170.503 196.411C170.959 199.591 170.718 202.852 170.182 206.005C169.846 207.897 169.417 209.749 168.921 211.6C169.055 211.6 169.189 211.614 169.323 211.614C172.931 211.466 176.484 210.768 179.984 209.843C182.827 209.064 185.79 208.152 188.405 206.797C193.193 204.341 197.457 200.839 201.024 196.827C216.793 178.955 220.548 152.562 213.937 130.06L213.951 130.046ZM206.562 148.912C206.106 149.006 205.637 149.046 205.167 149.046C203.223 149.046 201.279 148.268 199.643 146.805C197.779 145.141 196.451 142.726 195.915 140.016C195.365 137.305 195.66 134.568 196.746 132.314C197.913 129.858 199.951 128.181 202.324 127.712C202.794 127.618 203.25 127.577 203.706 127.577C207.93 127.577 211.912 131.334 212.972 136.608C214.138 142.444 211.269 147.973 206.562 148.912Z" fill="#BFCAD6"/>
<path d="M205.985 164.222C206.079 164.141 205.57 164.181 204.644 164.302C205.409 164.342 205.891 164.302 205.985 164.222Z" fill="white"/>
<path d="M193.42 188.039C196.961 195.888 182.398 204.771 179.904 199.269C177.409 193.768 172.046 191.796 172.046 191.796C172.046 191.796 173.427 194.546 173.547 199.779C173.641 203.67 172.354 206.448 169.726 208.3C169.484 209.4 169.216 210.487 168.921 211.574C169.055 211.574 169.189 211.587 169.323 211.587C172.931 211.439 176.484 210.742 179.984 209.816C182.827 209.038 185.79 208.125 188.405 206.77C193.193 204.314 197.457 200.812 201.024 196.8C216.793 178.928 220.548 152.535 213.937 130.033C213.414 128.383 212.797 126.41 212.113 124.854L212.06 124.746L211.926 124.518C208.909 120.184 202.472 120.399 197.591 121.244C200.179 123.659 199.535 126.061 199.535 126.061C205.422 125.914 211.322 129.979 212.65 135.387C212.771 135.789 212.878 136.192 212.958 136.608C214.125 142.444 211.255 147.973 206.548 148.912C206.093 149.006 205.623 149.046 205.154 149.046C204.644 149.046 204.135 148.992 203.625 148.885C201.037 152.535 196.719 148.925 196.719 148.925C198.087 155.715 204.43 155.111 204.43 155.111C204.43 155.111 207.192 167.59 195.633 164.061C184.074 160.545 177.222 170.676 177.222 170.676C179.622 169.227 182.264 168.207 185.16 167.885C188.834 167.63 192.67 168.636 195.579 170.904C196.599 171.722 197.551 172.675 198.141 173.856C203.679 179.384 201.574 183.812 192.602 179.008C183.618 174.205 175.398 179.518 175.398 179.518C185.147 176.7 191.194 181.678 193.394 188.039H193.42Z" fill="#8D8FA9"/>
<path d="M205.623 144.216C204.416 144.457 203.357 143.706 202.834 143.236C201.761 142.27 200.943 140.754 200.608 139.09C200.273 137.426 200.434 135.709 201.064 134.407C201.372 133.777 202.056 132.676 203.263 132.435C203.424 132.394 203.585 132.381 203.746 132.381C205.677 132.381 207.675 134.608 208.278 137.56C208.922 140.754 207.702 143.813 205.623 144.229V144.216Z" fill="#E43C37"/>
<path d="M207.447 140.821C206.562 141.076 205.731 140.579 205.315 140.257C204.457 139.6 203.759 138.526 203.424 137.305C203.116 136.219 203.102 135.091 203.37 134.152C203.29 134.152 203.209 134.166 203.142 134.192C202.177 134.461 201.694 135.4 201.493 135.937C201.077 137.037 201.051 138.433 201.426 139.774C201.801 141.116 202.566 142.283 203.491 142.995C203.947 143.343 204.845 143.88 205.811 143.612C206.87 143.317 207.568 142.163 207.742 140.714C207.648 140.767 207.541 140.807 207.447 140.834V140.821Z" fill="#BE1A0A"/>
<path d="M72.3986 162.276C73.0288 164.436 72.4522 165.859 71.8622 166.677C68.188 163.94 60.0751 162.545 58.3989 162.276C57.2189 162.088 56.1193 162.893 55.9316 164.074C55.7438 165.255 57.4066 165.51 58.5733 165.698C62.462 166.315 67.8527 168.757 69.5289 170.354C70.0385 170.837 69.891 171.575 69.6764 172.125C68.9925 173.869 66.7397 175.654 63.7494 175.707C62.2609 175.734 61.1881 175.949 60.3299 176.123C58.9085 176.419 58.4257 176.513 56.7361 175.546C56.535 175.426 56.307 175.305 56.0791 175.171C54.0408 174.044 51.7343 172.782 50.4604 169.106C50.4604 168.65 50.3397 168.247 50.1386 167.925C49.4681 164.047 52.673 160.183 52.6998 160.143C53.3301 159.405 53.3837 158.331 52.8473 157.526C52.7267 157.338 49.8436 152.91 52.1903 146.497C53.7994 142.109 65.2244 143.384 70.5078 144.699C70.5883 144.726 70.6821 144.739 70.776 144.752C77.0651 145.504 81.9999 151.327 83.1799 154.011C70.776 150.562 66.3911 150.858 65.6401 150.951C63.6555 149.824 61.7379 149.368 60.9602 149.207C59.4583 148.885 58.4257 148.805 58.3989 149.757C58.3587 150.951 60.6115 152.213 61.6843 152.709C66.5386 154.95 71.527 159.351 72.3852 162.303L72.3986 162.276Z" fill="#FF884B"/>
<path d="M54.2151 174.044C52.1635 171.186 50.4202 167.214 52.5389 164.141C54.9527 160.639 56.4277 160.639 56.0791 158.694C55.717 156.748 53.1155 154.561 54.2822 149.14C55.127 145.155 58.6269 143.853 61.4563 143.464C57.1652 143.343 53.1289 144.014 52.2171 146.483C49.8704 152.897 52.7401 157.325 52.8742 157.513C53.4105 158.318 53.3569 159.391 52.7267 160.129C52.6998 160.17 49.4815 164.02 50.1654 167.912C50.38 168.234 50.5007 168.636 50.4873 169.092C51.3857 171.669 52.7803 173.064 54.2285 174.044H54.2151Z" fill="#FFF796"/>
<path d="M158.797 203.08C158.395 209.038 155.404 211.439 154.385 212.083C153.487 212.124 152.548 212.365 151.837 212.634C149.491 213.519 147.372 214.834 145.24 215.854C140.077 218.484 134.23 219.705 128.464 219.235C125.755 219.02 123.074 218.444 120.66 217.222C120.123 216.9 119.466 216.807 118.863 216.619C115.175 215.505 111.608 213.533 109.034 210.648C106.808 208.165 104.381 204.261 106.285 201.108C106.325 201.054 106.352 200.987 106.392 200.933C106.472 200.786 106.607 200.678 106.727 200.557C106.835 200.45 106.848 200.41 107.036 200.316C108.645 199.793 110.509 200.289 112.48 200.45C112.386 203.093 113.097 205.643 114.626 207.87C120.043 215.29 131.28 213.211 138.025 208.809C138.454 208.501 138.736 208.139 138.897 207.749C139.943 207.91 140.949 208.045 141.874 208.165C142.88 208.259 143.885 208.34 144.891 208.353C146.219 208.393 147.533 208.353 148.847 208.179C144.542 206.689 140.439 204.945 136.363 203.04C134.606 202.248 132.675 201.175 131.294 199.9C130.663 199.31 130.221 198.652 130.14 198.29C130.087 198.102 130.114 198.021 130.14 197.968C130.784 196.733 132.956 195.767 134.364 195.244C140.238 193.191 146.688 194.627 152.856 195.512C151.837 194.358 150.671 193.312 149.397 192.413C149.651 191.916 149.879 191.406 150.107 190.897C150.241 190.977 150.389 191.044 150.55 191.111C150.818 191.205 155.525 192.909 157.724 197.324C158.502 198.88 158.971 200.772 158.81 203.053L158.797 203.08Z" fill="#FF884B"/>
<path d="M180.896 46.0771L180.856 45.9161L180.829 45.8356C180.789 45.7282 180.762 45.6343 180.735 45.5806C180.668 45.4599 180.668 45.4733 180.668 45.4733C180.333 45.3391 180.038 45.3659 179.555 45.4062C177.436 45.6745 175.183 46.7748 173.266 47.8483C172.77 48.1166 172.341 48.3984 171.911 48.6533C171.804 48.707 171.697 48.7607 171.59 48.8009C169.967 50.0085 168.398 51.2698 166.99 52.7324C165.394 54.3694 163.986 56.1539 162.779 58.1129C160.285 62.2054 158.622 66.8614 157.845 71.6785C156.464 63.99 158.234 55.6441 162.9 49.2705C164.013 47.7812 165.3 46.3991 166.735 45.1915C166.293 44.2925 165.837 43.3801 165.354 42.5348C153.822 21.7236 133.292 6.34666 108.605 9.76823C90.877 12.3042 73.2032 20.6502 62.3816 35.2488C53.424 46.9761 49.9911 61.3869 46.8801 75.7038L46.4241 76.6297C46.4241 76.6297 46.4375 76.6431 46.4241 76.6699L46.3973 76.7504C46.223 77.2335 46.0219 77.7568 45.9146 78.2666C44.9223 82.2115 45.9146 86.6528 47.7517 90.2488C48.744 87.8739 51.0773 85.5928 56.602 87.4579C69.1937 91.7248 72.7472 110.684 71.4197 117.702C70.8833 120.506 68.6841 122.385 65.734 122.331C66.1497 122.613 66.5654 122.881 66.9945 123.15C67.5845 123.539 67.9332 124.142 68.0539 124.787C68.8182 127.604 70.4676 130.113 72.479 132.22C79.1302 138.956 89.3215 140.942 98.534 140.687C98.4535 140.231 98.4133 139.774 98.3864 139.345C98.2792 138.5 98.3462 137.48 97.9573 136.943C97.8635 136.809 97.7428 136.769 97.6087 136.648C96.0666 135.561 94.6452 134.26 93.5053 132.73C89.2411 133.079 84.8025 131.321 82.5094 127.631C85.3255 128.544 88.1147 129.121 91.0112 128.906C91.1855 128.906 91.5475 128.866 91.7219 128.839C92.6337 128.731 93.5858 128.49 94.444 128.168C95.0743 127.953 95.785 127.591 96.375 127.282C98.534 126.101 100.653 124.639 102.141 122.68C102.275 122.237 102.543 121.821 102.892 121.513C101.672 121.459 100.452 121.566 99.2715 121.794C103.375 119.782 108.618 119.473 112.547 122.103C114.451 123.284 112.802 126.115 110.844 125.041C110.629 124.921 110.388 124.679 110.16 124.438C111.139 125.578 111.863 126.92 112.172 128.369C112.507 129.55 112.627 130.878 112.815 132.126C114.505 131.885 116.127 131.08 117.482 129.979C118.192 129.416 118.796 128.731 119.399 128.034C119.265 128.476 119.145 128.933 118.984 129.375C118.434 130.932 117.549 132.421 116.422 133.669C117.026 133.347 117.643 133.052 118.233 132.663C120.459 131.442 122.591 130.046 124.656 128.544C128.022 125.833 131.227 122.76 134.297 119.715C134.995 119.03 135.719 118.306 136.497 117.621C136.953 117.273 137.06 117.272 137.476 117.031C151.448 109.665 164.281 98.3398 170.611 83.7411C168.371 84.7475 166.011 85.4318 163.544 85.6465C166.668 84.3718 169.297 82.0907 171.442 79.5682C171.938 78.9778 172.394 78.374 172.823 77.7568C177.664 68.8339 182.974 56.1539 180.963 46.0234L180.896 46.0771ZM61.9257 72.1615C61.6709 73.463 60.4104 74.3084 59.1096 74.0534C59.1633 74.0534 59.1231 74.04 59.1096 74.0132C58.5733 73.7314 57.943 73.6241 57.3262 73.5704C55.3415 73.4094 53.3167 74.3486 51.8282 75.6367C51.493 75.9319 51.1846 76.254 50.8493 76.5626C51.1577 75.7172 51.5064 74.8048 51.9891 74.0266C53.5715 71.3296 56.535 69.4645 59.7131 69.3169C61.1345 69.3169 62.2207 70.766 61.9257 72.1481V72.1615ZM102.409 56.0332C106.607 51.1759 113.633 49.7938 119.815 49.9951C122.229 50.1293 123.905 52.6519 123.315 54.9732C122.779 57.1603 120.579 58.5021 118.394 57.9654C116.959 57.2542 115.309 56.8248 113.727 56.4894C108.444 55.3623 102.838 56.4894 99.7944 61.4003C100.224 59.5352 101.055 57.6433 102.423 56.0466L102.409 56.0332ZM128.424 120.546C127.432 120.801 126.372 121.191 125.407 121.606C124.441 122.063 123.409 122.519 122.792 123.431C122.899 122.264 123.677 121.231 124.347 120.292C125.112 119.312 125.89 118.44 126.815 117.568C127.526 116.91 128.625 116.95 129.282 117.662C130.194 118.587 129.671 120.265 128.411 120.546H128.424ZM134.284 111.302C129.175 109.826 123.69 109.141 118.407 109.893C115.739 110.242 113.164 111.073 110.71 112.241C108.229 113.395 105.923 115.005 103.576 116.83C103.992 115.89 104.515 115.005 105.091 114.16C102.423 113.797 93.036 111.556 93.854 97.897C94.8061 81.9968 109.141 69.3303 126.949 75.4221C143.644 81.1381 133.64 100.218 128.008 105.035C129.899 105.183 131.79 105.478 133.627 105.908C134.445 106.109 135.115 106.297 135.947 106.592C139.018 107.786 137.435 112.308 134.284 111.302ZM173.668 64.5401C168.492 65.6941 166.628 72.4299 166.212 77.1664L166.078 79.6755L165.676 77.1664C165.18 72.7519 165.354 68.1495 167.902 64.2718C169.082 62.5811 170.678 61.0246 172.703 60.3269C175.492 59.7768 176.43 63.8021 173.682 64.5267L173.668 64.5401Z" fill="#FF884B"/>
<path d="M84.3734 21.2271C98.7485 13.6326 110.428 10.5599 118.756 9.43279C115.457 9.20469 112.078 9.31203 108.605 9.79507C90.877 12.3311 73.2032 20.677 62.3816 35.2757C53.424 47.0029 49.9911 61.4138 46.8801 75.7307L46.4241 76.6565C46.4241 76.6565 46.4375 76.6699 46.4241 76.6968L46.3973 76.7773C46.223 77.2603 46.0219 77.7836 45.9146 78.2935C44.9223 82.2383 45.9146 86.6797 47.7517 90.2757C48.744 87.9007 51.0773 85.6197 56.602 87.4847C58.0905 87.9946 59.4449 88.7058 60.692 89.5779C57.7016 86.6394 52.5255 83.8485 50.8627 83.4728C48.4356 82.9227 49.8838 77.4884 50.8627 76.5492C50.8627 76.5492 51.8416 64.3791 57.9296 50.827C57.3932 53.6985 57.7821 55.9795 59.2572 56.9322C62.0866 58.7704 67.7991 55.0134 72.0231 48.5192C76.2471 42.0383 77.3736 35.2757 74.5441 33.4374C72.7741 32.2835 69.891 33.3301 66.9409 35.8526C71.4197 30.2037 77.1188 25.0378 84.3868 21.2003L84.3734 21.2271Z" fill="#FFF796"/>
<path d="M48.7842 212.258C47.2957 218.792 39.1695 223.328 35.3209 216.082C34.1409 213.814 33.8593 210.97 34.4359 208.326C35.1332 205.12 37.0776 202.208 40.135 200.973C43.6617 199.524 47.336 201.711 48.5294 205.187C48.8647 206.099 49.0658 207.052 49.1463 208.018C49.267 209.44 49.1194 210.889 48.7976 212.271L48.7842 212.258Z" fill="url(#paint5_linear_11_148)"/>
<path d="M47.0946 207.817C45.3648 212.513 39.4511 215.371 36.5547 209.91C36.434 209.682 36.3401 209.453 36.2462 209.225C35.3344 211.694 35.4014 214.593 36.5547 216.807C39.6523 222.63 46.1828 218.994 47.3896 213.734C47.8322 211.882 47.8456 209.856 47.1751 208.031C47.1483 207.964 47.1214 207.897 47.0946 207.817Z" fill="#6D00FF"/>
<path d="M83.4884 251.975C81.6915 243.884 90.9173 240.382 97.5282 242.22C100.277 242.904 102.892 244.313 104.783 246.406C106.244 247.936 107.13 249.882 107.29 251.841C107.451 249.197 106.405 246.474 104.434 244.407C102.275 242.046 99.2983 240.422 96.1873 239.657C88.6779 237.564 78.1916 241.549 80.2298 250.754C82.0267 257.355 89.2411 261.22 95.9727 260.898C90.4748 260.643 84.95 257.329 83.4884 251.975Z" fill="#FF95FF"/>
<path d="M104.032 246.863C103.107 245.843 101.994 244.998 100.787 244.313C101.551 245.628 101.806 247.211 101.31 248.808C99.2044 255.571 88.7851 257.771 84.1454 252.444C83.7565 251.961 83.4615 251.465 83.2335 250.969C83.2603 251.384 83.3274 251.814 83.4213 252.257C85.7411 260.75 98.5875 263.93 104.608 257.516C107.478 254.43 106.861 249.828 104.032 246.863Z" fill="#6D00FF"/>
<path d="M225.255 235.27C224.772 238.342 222.734 241.147 220.347 243.173C216.659 246.312 211.631 248.231 206.776 247.708C203.639 247.373 200.796 245.709 199.911 243.173C198.02 237.229 203.92 231.647 208.828 229.231C211.617 227.876 214.769 227.058 217.853 227.259C222.573 227.46 226.1 230.56 225.255 235.256V235.27Z" fill="#FF95FF"/>
<path d="M222.788 235.712C222.399 238.195 220.749 240.449 218.832 242.086C215.855 244.608 211.805 246.165 207.889 245.749C205.368 245.481 203.075 244.139 202.351 242.099C200.823 237.309 205.583 232.801 209.552 230.855C211.805 229.755 214.353 229.097 216.834 229.258C220.642 229.419 223.485 231.929 222.814 235.712H222.788Z" fill="url(#paint6_linear_11_148)"/>
<path d="M218.483 229.017C217.437 228.95 216.378 229.017 215.345 229.191C217.477 230.063 218.805 231.969 218.349 234.545C217.987 236.799 216.498 238.852 214.755 240.328C212.046 242.623 208.372 244.031 204.819 243.642C204.202 243.575 203.598 243.441 203.035 243.24C203.947 245.226 206.294 246.527 208.855 246.809C213.079 247.265 217.45 245.588 220.669 242.864C222.747 241.093 224.517 238.664 224.933 235.981C225.657 231.888 222.586 229.191 218.483 229.017Z" fill="#6D00FF"/>
<path d="M263.405 170.515C261.206 172.434 257.545 171.038 255.185 169.723C252.128 167.939 249.379 165.161 248.065 161.847C246.724 158.667 247.3 154.615 251.363 154.44C254.957 154.4 258.149 156.855 260.536 159.378C262.896 161.887 265.765 167.549 263.405 170.515Z" fill="#FF95FF"/>
<path d="M263.097 170.448C261.287 172.018 258.269 170.877 256.338 169.79C253.817 168.328 251.565 166.033 250.478 163.309C249.379 160.693 249.848 157.365 253.187 157.218C256.151 157.191 258.766 159.203 260.737 161.283C262.681 163.35 265.041 168.006 263.097 170.448Z" fill="url(#paint7_linear_11_148)"/>
<path d="M252.691 159.74C254.217 159.74 255.453 159.133 255.453 158.385C255.453 157.636 254.217 157.03 252.691 157.03C251.165 157.03 249.929 157.636 249.929 158.385C249.929 159.133 251.165 159.74 252.691 159.74Z" fill="#FF95FF"/>
<path d="M262.105 162.974C262.064 163.752 261.85 164.477 261.38 165.067C259.543 166.664 256.486 165.51 254.528 164.396C252.785 163.376 251.176 161.981 249.969 160.317C249.862 161.323 250.049 162.424 250.478 163.444C251.578 166.208 253.871 168.529 256.419 170.018C258.377 171.119 261.447 172.286 263.271 170.689C264.84 168.73 263.647 165.335 262.105 162.987V162.974Z" fill="#6D00FF"/>
<path d="M100.961 100.446C104.904 96.2064 110.375 97.3872 110.375 97.3872C110.375 97.3872 113.003 99.4804 117.24 98.8363C121.478 98.1922 122.282 93.9522 120.941 91.8322C120.941 91.8322 125.474 85.3379 128.464 88.3972C131.455 91.4564 129.671 102.674 118.501 105.706C108.94 108.296 101.122 105.438 100.948 100.446H100.961Z" fill="white"/>
<path d="M52.378 106.592C56.9104 109.799 60.1556 110.148 61.4429 109.343C62.7302 108.537 59.7533 106.659 63.0521 106.592C66.3508 106.525 68.5232 114.508 66.619 118.333C64.7148 122.157 53.853 116.293 52.378 106.592Z" fill="white"/>
<path d="M278.759 170.22C264.813 150.562 236.304 142.458 220.146 139.332C220.012 138.339 219.864 137.346 219.69 136.353C219.677 136.232 219.636 136.111 219.623 136.004C223.498 136.313 227.28 137.225 231.034 138.151C244.23 141.545 257.384 146.752 267.723 155.768C267.71 155.809 268.193 156.332 268.501 156.453C268.769 156.708 269.051 156.936 269.319 157.191C273.597 161.203 276.721 165.59 278.759 170.206V170.22Z" fill="white"/>
<path d="M90.6638 248.437C93.8448 248.031 96.2225 246.123 95.9745 244.175C95.7265 242.227 92.9467 240.977 89.7656 241.382C86.5846 241.788 84.2069 243.696 84.4549 245.644C84.7029 247.592 87.4827 248.842 90.6638 248.437Z" fill="#FF95FF"/>
<path d="M209.593 238.013C212.247 236.537 213.717 234.112 212.875 232.596C212.033 231.08 209.199 231.048 206.545 232.524C203.891 234 202.421 236.425 203.263 237.94C204.105 239.456 206.939 239.489 209.593 238.013Z" fill="#FF95FF"/>
<path d="M62.1402 97.3737C63.3739 98.8094 63.6287 100.607 62.7034 101.413C61.7782 102.218 60.0349 101.694 58.8012 100.272C57.5676 98.8497 57.3128 97.0383 58.238 96.2332C59.1633 95.4281 60.9066 95.9514 62.1402 97.3737ZM114.103 86.1295C115.551 87.3371 118.246 86.4918 120.11 84.2376C121.974 81.9834 122.309 79.1925 120.848 77.9849C119.386 76.7772 116.704 77.6226 114.84 79.8768C112.976 82.131 112.641 84.9219 114.103 86.1295Z" fill="white"/>
<path d="M93.1835 81.3259C93.6126 75.9856 95.852 63.2654 102.745 62.514C109.637 61.7626 107.398 68.4447 104.944 71.4235C102.45 74.4425 97.6757 78.7631 95.1145 85.0695C95.1145 85.0695 92.7678 86.6797 93.1969 81.3259H93.1835ZM111.286 60.1525C108.752 59.8707 107.183 62.353 110.12 64.8219C113.057 67.3042 115.913 67.1969 116.664 65.7477C117.187 64.7548 116.449 60.716 111.286 60.1525Z" fill="#FFF796"/>
<path d="M153.969 121.07C143.483 130.019 131.843 137.762 124.951 135.87C124.616 136.138 124.28 136.406 123.945 136.661C122.457 137.829 120.861 138.848 119.212 139.788C118.501 140.19 117.723 140.499 116.865 140.633C117.254 141.787 117.509 143.008 117.643 144.229C119.654 143.92 121.679 143.478 123.623 142.847C129.859 140.901 135.893 137.627 141.472 134.246C146.366 131.227 151.14 127.859 155.431 124.008C155.042 122.881 154.533 121.902 153.969 121.056V121.07ZM180.561 82.6543C180.48 81.3259 180.427 80.1183 179.676 79.2327C179.407 79.0314 178.817 79.0851 178.469 79.179C178.402 79.2193 178.321 79.2327 178.254 79.2596C177.986 79.7694 177.704 80.2659 177.423 80.7758C177.074 82.0639 176.645 83.3654 176.149 84.6401C180.909 89.6584 177.101 99.1851 163.302 112.549C162.967 112.871 162.632 113.193 162.297 113.515C162.753 114.186 163.195 114.924 163.624 115.729C171.978 106.283 180.976 92.9324 180.574 82.6409L180.561 82.6543ZM183.497 97.1456C182.84 98.6753 182.103 100.205 181.271 101.708C181.459 102.446 181.553 103.211 181.459 103.975C181.07 107.33 171.415 117.782 163.571 126.061C155.726 134.34 146.715 139.009 139.313 142.015C132.058 144.967 127.727 143.102 133.05 140.66C129.068 142.418 125.045 144.081 121.062 145.678C119.989 146.094 118.984 146.497 117.83 146.913C117.83 146.913 117.817 146.913 117.804 146.913C117.844 147.999 117.696 149.033 117.441 150.026C127.526 149.878 137.462 146.483 146.178 141.478C157.161 135.199 166.521 126.397 174.513 116.642C178.536 111.905 181.848 106.578 185.629 101.667C185.214 100.03 184.476 98.474 183.47 97.1188L183.497 97.1456Z" fill="#8D8FA9"/>
<path d="M164.241 153.313C163.262 153.246 162.122 153.058 160.822 152.682C152.535 150.361 153.996 143.37 152.87 148.925C152.441 151.019 153.192 152.468 153.875 153.689C158.207 155.581 160.406 160.344 164.576 161.162C167.714 161.78 170.262 161.162 171.791 163.564C171.898 162.316 171.965 161.055 172.032 159.807C168.908 158.143 166.306 155.916 164.241 153.313ZM116.449 152.669C115.564 154.413 114.344 156.01 113.057 157.513C112.467 158.251 111.702 159.096 111.246 159.941C113.767 158.68 116.65 157.54 119.6 156.922C119.051 155.272 119.319 153.474 120.727 152.052C119.305 152.28 117.884 152.481 116.449 152.669Z" fill="#8D8FA9"/>
<path d="M83.2336 200.128C78.7547 204.046 74.5843 205.965 70.8296 205.817C68.3623 205.723 66.1899 204.999 64.2723 203.831C68.5768 204.865 72.2645 204.556 73.3909 203.026C75.6303 199.967 68.9925 199.766 65.7876 196.545C62.5827 193.325 65.7876 197.404 70.6419 195.163C72.5863 194.264 72.3583 191.447 71.8085 189.166C74.1955 187.757 75.9253 185.382 76.9176 182.202C76.9713 183.892 77.1992 185.529 77.5211 187.18C78.4865 192.158 80.4578 196.519 83.2336 200.115V200.128Z" fill="#8D8FA9"/>
<path d="M75.8449 179.679C74.6112 184.724 71.4465 188.669 65.734 188.146C64.7551 188.052 63.7762 187.891 62.7839 187.663C63.7494 187.22 64.3394 186.536 64.6076 185.851C65.2915 184.04 69.14 186.12 72.0633 182.229C72.8143 181.839 73.525 181.41 74.2089 180.954C74.8257 180.578 75.3621 180.149 75.8314 179.679H75.8449Z" fill="#BE1A0A"/>
<path d="M139.701 172.111C139.594 170.971 139.393 169.911 139.071 168.918C138.723 169.401 138.213 169.683 137.449 169.468C135.249 168.838 135.571 164.504 127.365 162.048C119.158 159.593 115.819 164.718 112.788 165.765C111.085 166.355 109.811 166.194 108.618 165.818C107.894 166.275 107.25 166.704 106.727 167.066C107.921 167.684 109.53 167.657 110.871 167.549C113.231 167.281 114.532 165.899 116.865 164.49C118.957 163.175 121.518 162.585 123.972 162.759C129.631 162.893 133.788 166.302 136.483 171.025C137.006 171.95 137.462 172.89 137.864 173.842C138.615 173.306 139.326 172.715 139.97 172.058L139.701 172.085V172.111ZM128.518 173.561C129.658 174.594 130.65 175.788 131.441 177.116C133.023 176.539 134.566 175.868 135.987 175.05C135.571 174.111 135.089 173.185 134.525 172.299C133.56 173.333 130.838 173.896 128.504 173.561H128.518ZM123.704 176.298C122.403 175.426 120.848 173.909 120.526 172.903C119.815 173.171 119.118 173.453 118.407 173.722C120.874 174.876 122.993 176.794 124.629 178.995C126.292 178.646 128.008 178.217 129.698 177.68C129.269 177.09 128.786 176.526 128.276 175.989C126.936 176.352 125.058 177.183 123.704 176.271V176.298ZM112.212 173.507C114.572 172.353 116.878 171.092 119.225 169.844C121.371 168.797 123.395 167.482 125.943 167.375C126.265 167.375 126.547 167.442 126.788 167.549C126.587 167.201 126.171 166.892 125.487 166.677C122.926 165.859 118.796 168.958 115.269 170.729C111.729 172.514 109.811 173.4 107.411 173.601C105.011 173.816 102.034 171.615 102.637 172.675C105.078 175.868 109.087 175.184 112.212 173.507ZM115.537 174.795C114.706 175.077 113.861 175.359 113.016 175.6C112.118 175.922 111.152 176.137 110.174 176.258C107.17 178.472 103.133 179.075 99.5799 177.989C96.4689 177.116 93.8003 175.278 92.2314 172.782C92.2314 174.03 92.6471 175.707 94.3367 177.13C97.5014 179.813 105.279 178.794 102.53 179.84C100.264 180.712 95.5704 180.31 91.5341 177.868C91.9766 178.7 92.4057 179.411 92.7276 179.934C100.948 181.759 112.493 180.833 120.137 179.813C119.694 178.995 119.185 178.203 118.622 177.492C117.763 176.405 116.731 175.493 115.537 174.822V174.795ZM100.344 175.734C102.463 176.647 104.89 176.767 107.116 176.15C106.392 176.003 105.695 175.761 105.064 175.412C105.292 175.895 104.917 176.097 103.107 175.614C99.3117 174.567 97.7025 170.944 97.0052 168.811C96.1873 168.569 95.3022 168.287 94.3367 168.006C94.1758 171.615 96.9918 174.419 100.344 175.748V175.734Z" fill="#D5B03B"/>
<path d="M200.809 115.018C200.742 114.978 200.675 114.951 200.608 114.911C197.953 114.79 195.271 114.951 192.629 115.394C192.509 116.199 193.166 116.534 193.97 117.192C196.344 116.682 198.918 116.306 201.493 116.253L200.809 115.032V115.018ZM167.781 146.832C167.5 146.993 166.226 147.342 164.617 147.342C164.657 147.409 164.697 147.476 164.737 147.543C166.601 150.442 169.149 152.924 172.126 154.655C172.113 153.93 172.086 153.219 172.059 152.508C170.342 150.871 168.894 148.952 167.781 146.846V146.832ZM171.16 128.544C169.028 131.817 167.701 135.575 168.17 139.399C168.492 142.807 169.806 146.148 171.831 148.925C171.657 146.604 171.455 144.31 170.852 142.096L170.812 141.961V141.935L170.919 142.109L170.477 139.962C170.57 139.506 170.637 139.372 170.745 138.969C171.496 136.42 172.582 133.951 173.936 131.656C173.4 129.899 173.078 127.953 171.147 128.544H171.16ZM156.423 118.708C157.027 119.554 157.59 120.493 158.073 121.566C159.065 120.6 160.111 119.54 161.184 118.4C160.741 117.42 160.272 116.561 159.789 115.797C158.931 116.709 157.831 117.729 156.437 118.708H156.423Z" fill="#BE1A0A"/>
<path d="M71.071 159.874C68.9925 162.236 64.6344 160.076 59.1901 159.874C53.7324 159.673 55.9449 164.061 55.9449 164.061C56.1327 162.88 57.2323 162.088 58.4123 162.263C60.0885 162.531 68.2013 163.927 71.8756 166.664C72.4656 165.859 73.0422 164.436 72.412 162.263C72.1974 161.538 71.7415 160.72 71.0844 159.874H71.071Z" fill="#FF6118"/>
<path d="M69.6898 172.111C69.9044 171.575 70.0519 170.823 69.5423 170.34C69.0059 169.83 68.0941 169.227 66.9677 168.636C66.6726 170.461 64.9294 172.326 61.2954 172.997C56.2802 173.923 52.4853 171.924 50.4738 168.999C50.4738 169.039 50.4738 169.066 50.4738 169.106C51.7477 172.782 54.0542 174.057 56.0925 175.171C56.3204 175.292 56.5484 175.426 56.7495 175.546C58.4391 176.499 58.9219 176.405 60.3433 176.123C61.2015 175.949 62.2877 175.734 63.7628 175.707C66.7531 175.654 69.0059 173.869 69.6898 172.125V172.111Z" fill="#FF6118"/>
<path d="M74.0748 145.598C73.3506 147.007 70.2798 147.141 63.9639 146.725C56.4679 146.228 58.305 149.261 58.305 149.261C58.305 149.261 58.3721 149.301 58.5062 149.368C58.7878 148.831 59.713 148.925 60.9735 149.194C61.7513 149.355 63.6689 149.811 65.6535 150.938C66.4044 150.844 70.7894 150.549 83.1933 153.997C82.2278 151.81 78.7547 147.516 74.0748 145.611V145.598Z" fill="#FF6118"/>
<path d="M133.493 76.576C128.759 70.4037 123.194 70.283 122.805 68.0422C122.416 65.8014 124.937 58.8509 113.727 56.4759C102.517 54.101 121.076 50.3037 121.076 50.3037C121.076 50.3037 130.502 49.3779 132.997 63.4398C132.997 63.4398 138.723 72.4164 133.493 76.576Z" fill="#FF6118"/>
<path d="M113.365 123.592C113.338 124.733 112.158 125.82 110.817 125.082C110.603 124.961 110.361 124.719 110.133 124.478C111.112 125.618 111.836 126.96 112.145 128.409C112.145 128.45 112.158 128.503 112.172 128.544C114.304 127.416 114.693 125.162 113.365 123.606V123.592Z" fill="#FF6118"/>
<path d="M102.101 122.72C102.235 122.277 102.503 121.861 102.852 121.553C101.632 121.499 100.411 121.606 99.2312 121.835C99.3117 121.794 99.4056 121.754 99.486 121.714C98.2926 122.022 97.5684 122.291 97.783 122.371C98.1719 122.505 99.6872 123.364 99.9151 124.934C100.72 124.263 101.471 123.539 102.101 122.707V122.72Z" fill="#FF6118"/>
<path d="M163.477 85.7002C166.601 84.4255 169.229 82.1444 171.375 79.6218C171.871 79.0315 172.327 78.4277 172.756 77.8104C177.597 68.8875 182.907 56.2076 180.896 46.0771L180.856 45.9161L180.829 45.8356C180.789 45.7282 180.762 45.6343 180.735 45.5806C180.668 45.4599 180.668 45.4733 180.668 45.4733C180.333 45.3391 180.038 45.3659 179.555 45.4062C179.287 45.433 179.019 45.4867 178.75 45.5404C180.185 46.8687 179.555 48.5996 177.731 50.9612C175.559 53.7655 168.546 53.5106 164.603 63.5606C160.647 73.5972 166.078 79.6889 166.078 79.6889L165.676 77.1798C165.18 72.7653 165.354 68.163 167.902 64.2852C169.082 62.5945 170.678 61.038 172.703 60.3403C175.492 59.7902 176.43 63.8155 173.681 64.5401C173.521 64.5804 173.36 64.6206 173.212 64.6609C174.137 67.4518 171.335 74.9658 168.09 80.6684C164.174 87.5384 154.801 88.4642 154.801 88.4642C154.801 88.4642 162.444 89.484 148.941 98.8094C138.106 106.283 135.223 102.754 131.146 101.453C130.087 102.969 128.987 104.217 128.022 105.035C129.912 105.183 131.803 105.478 133.64 105.908C134.458 106.109 135.129 106.297 135.96 106.592C137.355 107.129 137.784 108.35 137.556 109.423C140.68 111.127 140.882 113.381 138.092 113.65C133.627 114.092 130.744 123.163 128.437 120.533C127.445 120.788 126.386 121.177 125.42 121.593C124.455 122.049 123.422 122.505 122.805 123.418C122.805 123.418 122.135 125.672 119.225 128.517C119.145 128.812 119.051 129.12 118.943 129.416C118.394 130.972 117.509 132.462 116.382 133.709C116.986 133.387 117.602 133.092 118.192 132.703C120.418 131.482 122.551 130.087 124.616 128.584C127.981 125.873 131.186 122.801 134.257 119.755C134.954 119.07 135.679 118.346 136.456 117.662C136.912 117.313 137.02 117.313 137.435 117.071C151.408 109.705 164.241 98.3801 170.57 83.7814C168.331 84.7877 165.971 85.4721 163.504 85.6867L163.477 85.7002Z" fill="#FF6118"/>
<path d="M98.5071 140.74C98.4267 140.284 98.3864 139.828 98.3596 139.399C98.306 138.969 98.2926 138.486 98.2523 138.043C76.7701 142.324 68.027 124.84 68.027 124.84C68.7914 127.658 70.4408 130.167 72.4522 132.274C79.1034 139.009 89.2947 140.995 98.5071 140.74Z" fill="#FF6118"/>
<path d="M157.416 65.4123C157.63 59.6694 159.481 53.9534 162.887 49.2974C164 47.808 165.287 46.4259 166.722 45.2183C166.279 44.3193 165.823 43.4069 165.341 42.5616C158.462 30.1634 148.391 19.684 136.148 13.968C144.113 22.0456 151.287 35.1281 151.757 47.1237C152.266 60.3269 155.833 64.4193 157.416 65.3989V65.4123Z" fill="#FF6118"/>
<path d="M66.619 88.6789C69.1936 93.6972 72.1706 77.1261 63.8298 72.9531C55.489 68.7802 50.8627 76.576 50.8627 76.576C50.8627 76.576 59.123 74.0131 66.6324 88.6789H66.619Z" fill="#FF6118"/>
<path d="M157.711 197.364C156.906 199.497 155.243 201.738 151.877 203.053C144.127 206.072 130.14 197.995 130.14 197.995C130.14 197.995 130.087 198.142 130.14 198.33C130.234 198.706 130.663 199.363 131.294 199.94C132.675 201.215 134.592 202.288 136.362 203.08C140.439 204.985 144.542 206.73 148.847 208.219C147.533 208.393 146.205 208.434 144.891 208.393C146.286 210.5 140.412 214.673 131.803 215.465C121.813 216.377 115.738 214.552 111.26 208.018C108.605 204.14 107.612 202.154 106.298 201.121C104.381 204.274 106.821 208.165 109.047 210.661C111.622 213.533 115.189 215.518 118.876 216.632C119.48 216.82 120.137 216.914 120.673 217.236C123.087 218.457 125.782 219.034 128.478 219.249C134.23 219.718 140.077 218.497 145.253 215.867C147.385 214.847 149.49 213.533 151.851 212.647C152.575 212.392 153.5 212.137 154.398 212.097C155.418 211.439 158.408 209.051 158.81 203.093C158.958 200.812 158.502 198.92 157.724 197.364H157.711Z" fill="#FF6118"/>
<path d="M49.1328 208.004C49.0524 207.038 48.8647 206.086 48.516 205.173C47.3225 201.698 43.6483 199.524 40.1216 200.96C37.0642 202.194 35.1198 205.106 34.4225 208.313C35.3612 206.958 36.7021 205.67 38.5929 204.918C38.432 205.16 38.3381 205.415 38.3381 205.696C38.3381 206.797 39.8266 207.682 41.6503 207.682C43.474 207.682 44.9625 206.797 44.9625 205.696C44.9625 205.254 44.7211 204.851 44.3322 204.529C46.5448 205.079 48.0869 206.448 49.1328 207.991V208.004Z" fill="#FF95FF"/>
<path d="M239.04 283.574C239.55 285.01 240.005 286.633 240.26 288.243C242.097 285.721 243.371 282.729 244.23 279.656C242.54 280.998 240.81 282.313 239.04 283.587V283.574ZM218.979 295.959C221.889 296.428 224.879 296.334 227.776 295.731C226.515 294.979 225.416 294.013 224.41 292.993C222.613 294.013 220.803 295.006 218.979 295.972V295.959ZM167.03 317.736C170.477 316.475 173.601 314.422 176.377 311.778C173.722 312.396 171.093 312.932 168.465 313.415C168.344 315.146 167.875 316.582 167.03 317.736ZM144.864 316.059C147.332 317.132 149.933 317.937 152.575 318.447C151.851 317.629 151.301 316.663 150.818 315.697C148.833 315.858 146.862 315.978 144.864 316.059Z" fill="#6D00FF"/>
<path d="M81.5574 310.812C81.4099 310.705 81.2758 310.598 81.1283 310.477C79.0766 308.813 77.5077 306.639 76.3947 304.184L76.7031 304.063C78.1379 304.694 79.5861 305.298 81.0478 305.861C80.9673 307.31 81.0478 309.055 81.5708 310.812H81.5574Z" fill="#6D00FF"/>
<path d="M100.907 312.02C97.7562 313.939 93.9881 314.663 90.1932 314.167C91.6682 313.093 93.0628 311.631 94.1222 310.276C96.375 310.906 98.6278 311.483 100.907 312.02Z" fill="#6D00FF"/>
<path d="M53.0193 239.222C54.1456 234.151 53.4001 229.671 51.3541 229.216C49.3082 228.761 46.7365 232.503 45.6102 237.574C44.4839 242.645 45.2294 247.125 47.2754 247.58C49.3214 248.035 51.893 244.293 53.0193 239.222Z" fill="#E43C37"/>
<path d="M153.916 120.976C149.96 123.834 146.125 126.155 143.201 127.577C134.619 131.737 142.558 122.76 142.558 122.76C142.558 122.76 145.803 120.868 150.295 117.46C151.489 118.252 152.816 119.379 153.916 120.976Z" fill="white"/>
<path d="M159.789 115.797C159.87 115.917 159.95 116.051 160.03 116.172C158.904 117.125 157.764 118.064 156.611 118.95C156.557 118.869 156.49 118.775 156.437 118.695C155.391 117.259 154.211 116.145 153.057 115.287C154.211 114.347 155.431 113.328 156.665 112.214C157.63 113.006 158.743 114.16 159.789 115.783V115.797Z" fill="white"/>
<path d="M172.877 100.849C170.919 105.21 167.03 109.772 162.552 113.918C162.471 113.784 162.377 113.65 162.283 113.515C161.237 111.986 160.138 110.818 159.119 109.933C161.224 107.907 163.343 105.679 165.368 103.251C175.371 91.2015 176.015 87.5921 176.015 87.5921C176.015 87.5921 177.691 90.1683 172.877 100.836V100.849Z" fill="white"/>
<path d="M189.626 186.831C189.626 186.831 187.775 183.852 180.427 183.597C173.078 183.342 167.821 185.019 168.09 185.516C168.358 186.012 173.078 187.609 175.706 190.695C178.335 193.781 178.63 194.6 179.206 194.238C179.783 193.875 177.463 189.662 178.335 188.267C179.206 186.871 182.545 185.127 186.917 186.979C191.288 188.83 192.468 189.756 189.639 186.831H189.626Z" fill="white"/>
<path d="M179.34 176.848C179.34 176.848 185.053 172.769 190.403 173.494C195.754 174.218 199.468 177.022 199.508 178.498C199.549 179.974 195.526 177.626 189.746 176.298C183.967 174.969 180.333 177.022 179.34 176.848Z" fill="white"/>
<path d="M194.399 123.861C194.399 123.861 188.834 124.706 183.9 129.59C178.965 134.474 177.503 139.828 177.503 139.828C177.503 139.828 179.126 142.928 179.609 149.65C180.078 156.372 179.501 163.779 179.501 164.329C179.501 164.879 183.176 162.196 187.681 162.196C192.187 162.196 197.229 162.88 197.336 162.719C197.443 162.558 193.769 159.727 189.049 159.405C184.329 159.083 182.653 157.204 182.653 153.89C182.653 150.307 185.013 148.375 187.788 145.799C190.564 143.223 192.093 141.022 191.932 141.13C191.771 141.237 187.574 143.478 184.423 142.914C181.271 142.351 183.001 136.782 186.568 131.898C190.135 127.014 194.386 123.861 194.386 123.861H194.399Z" fill="white"/>
<path d="M141.646 140.432C146.326 139.238 153.031 134.904 157.55 130.811C162.069 126.719 162.887 125.028 161.197 126.061C159.507 127.094 154.667 130.878 147.439 134.649C140.211 138.419 134.954 140.311 136.175 141.183C137.395 142.055 138.669 141.183 141.659 140.432H141.646Z" fill="white"/>
<path d="M149.625 144.229C149.625 144.229 135.357 151.18 129.524 152.065C123.677 152.951 125.621 154.279 131.468 155.124C137.315 155.97 149.249 151.703 149.625 151.193C150 150.683 148.498 147.771 149.625 144.229Z" fill="white"/>
<path d="M206.763 138.213C207.522 137.917 207.751 136.686 207.275 135.464C206.799 134.242 205.797 133.492 205.038 133.788C204.279 134.084 204.05 135.315 204.527 136.537C205.003 137.759 206.005 138.51 206.763 138.213Z" fill="white"/>
<path d="M160.165 70.7526C163.155 70.7526 160.916 62.9568 168.157 56.7175C175.398 50.4781 179.059 48.6533 177.771 47.7006C176.484 46.748 168.076 50.6392 163.007 59.1327C157.939 67.6262 160.165 70.7526 160.165 70.7526Z" fill="#FFF796"/>
<path d="M117.616 110.966C113.311 111.61 107.867 113.905 109.61 116.038C111.354 118.171 122.725 116.092 125.098 113.918C127.472 111.744 122.47 110.242 117.629 110.966H117.616Z" fill="#FF6EC5"/>
<path d="M73.2666 123.613C74.8597 123.271 76.0216 122.389 75.8617 121.643C75.7018 120.896 74.2807 120.568 72.6876 120.91C71.0944 121.252 69.9326 122.134 70.0925 122.88C70.2524 123.627 71.6735 123.955 73.2666 123.613Z" fill="#FF6EC5"/>
<path d="M88.584 313.563C88.584 313.563 83.5554 312.288 82.6569 311.121C81.7585 309.954 82.0669 308.357 82.6569 308.572C83.247 308.786 90.582 310.745 90.8905 311.604C91.1989 312.463 89.1338 313.684 88.584 313.576V313.563ZM153.5 318.031C153.755 318.085 156.383 318.863 160.607 318.635C164.845 318.407 166.628 317.387 166.628 317.387C166.628 317.387 167.54 316.354 167.164 315.683C166.789 315.012 164.161 316.22 160.379 316.703C156.611 317.199 152.655 316.985 152.427 317.052C152.199 317.119 152.856 317.884 153.5 318.031ZM227.763 295.087C227.99 295.087 232.134 294.59 235.808 292.081C239.483 289.572 239.764 288.23 239.764 288.23C239.764 288.23 240.006 286.311 239.027 286.231C238.048 286.15 235.285 290.86 231.45 292.39C227.615 293.919 226.287 293.611 226.247 294.027C226.207 294.443 227.763 295.087 227.763 295.087Z" fill="#FF95FF"/>
<path d="M293.094 199.162C291.418 191.916 288.589 187.529 285.933 184.885C285.947 183.691 285.907 182.484 285.813 181.262C285.491 177.197 284.472 173.265 282.876 169.562C287.046 173.99 290.372 179.223 292.048 185.087C293.389 189.904 293.657 194.613 293.081 199.175L293.094 199.162Z" fill="white"/>
<path d="M134.002 196.68C132.246 197.619 138.937 197.767 145.374 198.384C151.81 199.001 152.374 197.297 150.282 196.72C148.19 196.143 139.366 193.795 134.016 196.68H134.002Z" fill="#FFF796"/>
<path d="M247.609 174.567C248.078 188.468 242.58 206.663 217.973 222.71C218.108 222.71 218.228 222.724 218.362 222.737C225.268 223.422 230.552 228.802 228.889 235.994C226.287 246.782 210.786 254.645 200.769 249.399C196.759 247.305 194.828 242.717 195.66 238.329C195.968 236.598 196.599 235.001 197.43 233.512C163.101 248.124 130.999 246.46 107.706 241.254C107.773 241.334 107.854 241.415 107.934 241.509C112.292 246.688 112.627 254.39 107.518 259.18C98.5205 267.54 81.2757 263.259 77.2395 251.666C74.9464 245.051 78.8486 238.383 85.1243 235.847C85.7546 235.578 86.3982 235.35 87.0553 235.162C81.0344 233.458 75.4962 231.07 70.7626 227.823C70.7626 227.823 60.5981 241.858 60.2092 264.776C60.8797 265.03 61.5636 265.285 62.2341 265.527C113.62 283.534 183.859 271.297 230.967 245.561C247.676 236.236 263.754 224.455 274.187 208.179C276.426 204.677 278.183 201.094 279.457 197.485C266.369 183.812 252.316 176.7 247.649 174.567H247.609Z" fill="url(#paint8_linear_11_148)"/>
</g>
<defs>
<linearGradient id="paint0_linear_11_148" x1="170.316" y1="172.957" x2="185.658" y2="204.495" gradientUnits="userSpaceOnUse">
<stop stop-color="#FF00FF"/>
<stop offset="1" stop-color="#6400EB"/>
</linearGradient>
<linearGradient id="paint1_linear_11_148" x1="97.2735" y1="208.514" x2="112.616" y2="240.052" gradientUnits="userSpaceOnUse">
<stop stop-color="#FF00FF"/>
<stop offset="1" stop-color="#6400EB"/>
</linearGradient>
<linearGradient id="paint2_linear_11_148" x1="79.9616" y1="250.016" x2="107.317" y2="250.016" gradientUnits="userSpaceOnUse">
<stop stop-color="#FF00FF"/>
<stop offset="1" stop-color="#6400EB"/>
</linearGradient>
<linearGradient id="paint3_linear_11_148" x1="162.538" y1="299.286" x2="171.519" y2="328.776" gradientUnits="userSpaceOnUse">
<stop stop-color="#FF00FF"/>
<stop offset="1" stop-color="#6400EB"/>
</linearGradient>
<linearGradient id="paint4_linear_11_148" x1="55.0867" y1="260.173" x2="54.0529" y2="221.731" gradientUnits="userSpaceOnUse">
<stop stop-color="#E43C37"/>
<stop offset="0.03" stop-color="#DE3731"/>
<stop offset="0.16" stop-color="#D02A1F"/>
<stop offset="0.31" stop-color="#C52013"/>
<stop offset="0.51" stop-color="#BF1B0C"/>
<stop offset="1" stop-color="#BE1A0A"/>
</linearGradient>
<linearGradient id="paint5_linear_11_148" x1="34.1409" y1="210.138" x2="49.1731" y2="210.138" gradientUnits="userSpaceOnUse">
<stop stop-color="#FF00FF"/>
<stop offset="1" stop-color="#6400EB"/>
</linearGradient>
<linearGradient id="paint6_linear_11_148" x1="202.043" y1="237.524" x2="222.881" y2="237.524" gradientUnits="userSpaceOnUse">
<stop stop-color="#FF00FF"/>
<stop offset="1" stop-color="#6400EB"/>
</linearGradient>
<linearGradient id="paint7_linear_11_148" x1="249.929" y1="164.222" x2="263.821" y2="164.222" gradientUnits="userSpaceOnUse">
<stop stop-color="#FF00FF"/>
<stop offset="1" stop-color="#6400EB"/>
</linearGradient>
<linearGradient id="paint8_linear_11_148" x1="161.506" y1="197.055" x2="198.291" y2="348.037" gradientUnits="userSpaceOnUse">
<stop stop-color="#BE1A0A"/>
<stop offset="1"/>
</linearGradient>
<clipPath id="clip0_11_148">
<rect width="307" height="330" fill="white"/>
</clipPath>
</defs>
</svg>
